<svg xmlns="http://www.w3.org/2000/svg" viewBox="0 0 595.28 595.28"><defs><style>.cls-2{fill:#fff;}.cls-3{fill:none;}</style></defs><title>ice-logo</title><path class="cls-2" d="M470.29,282.49l-93.34-93.34H218.22l-93.34,93.34a21.34,21.34,0,0,0,0,30.19L282.49,470.29a21.34,21.34,0,0,0,30.19,0L470.29,312.68A21.34,21.34,0,0,0,470.29,282.49Zm-25,21.13L303.62,445.27a8.54,8.54,0,0,1-12.07,0L149.9,303.62a8.54,8.54,0,0,1,0-12.07l78.3-78.3H367l78.3,78.3A8.54,8.54,0,0,1,445.27,303.62Z"/><polygon class="cls-2" points="297.58 109.79 242.69 164.68 352.48 164.68 297.58 109.79"/><rect class="cls-2" x="224.32" y="274.54" width="13.25" height="52.09"/><path class="cls-2" d="M287.5,315.62c-8.26,0-14.51-6.62-14.51-15.33s6.25-15.11,14.51-15.11c4.61,0,9.67,2.6,13.1,6.77l7.67-9.08a30.25,30.25,0,0,0-21-8.78c-15.85,0-27.83,11.31-27.83,26.34,0,15.26,11.68,26.79,27.39,26.79,7.66,0,15.92-3.79,21.51-9.53l-7.74-8.19C297,313.23,291.89,315.62,287.5,315.62Z"/><polygon class="cls-2" points="342.49 305.72 367.34 305.72 367.34 295.3 342.49 295.3 342.49 284.95 370.02 284.95 370.02 274.54 329.24 274.54 329.24 326.63 370.84 326.63 370.84 316.21 342.49 316.21 342.49 305.72"/></svg>