<svg xmlns="http://www.w3.org/2000/svg" viewBox="0 0 200 200"><title>Bell</title><g id="9016c930-de73-4c30-a26c-ab15d5f4ac0b" data-name="Sky"><rect x="25.04" y="25.04" width="149.93" height="149.93" rx="14.17" ry="14.17" transform="translate(100 -41.42) rotate(45)" style="fill:#71cc98"/></g><g id="497bd231-6987-493b-9ce7-d401b9354e22" data-name="Icon"><g id="7c580fe1-e6d3-4d58-b22f-e0a786df58e4" data-name="&lt;Group&gt;"><path id="99843878-3ce6-4b3d-8832-73bab192a29d" data-name="&lt;Path&gt;" d="M104.17,72.24a5,5,0,0,0,.95-3,5.12,5.12,0,1,0-10.24,0,5,5,0,0,0,.95,3" style="fill:none;stroke:#fff;stroke-linecap:round;stroke-linejoin:round;stroke-width:4px"/><path id="268bc396-93d9-4db5-bb7e-33a8d3067089" data-name="&lt;Path&gt;" d="M75.41,115.37l1.18-2.92a41.3,41.3,0,0,0,2.92-15.21V92.32a20.49,20.49,0,1,1,41,0v4.92a41.3,41.3,0,0,0,2.92,15.21l1.18,2.92" style="fill:none;stroke:#fff;stroke-linecap:round;stroke-linejoin:round;stroke-width:4px"/><path id="3468c6d3-ca6a-4070-8feb-d2ef911c9fc0" data-name="&lt;Path&gt;" d="M110.24,125.61a10.24,10.24,0,0,1-20.49,0" style="fill:none;stroke:#fff;stroke-linecap:round;stroke-linejoin:round;stroke-width:4px"/><path id="bba21448-8c69-4f88-8cc5-dd976382a362" data-name="&lt;Path&gt;" d="M125.61,125.61H74.39a5.12,5.12,0,0,1-5.12-5.12h0a5.12,5.12,0,0,1,5.12-5.12h51.22a5.12,5.12,0,0,1,5.12,5.12h0A5.12,5.12,0,0,1,125.61,125.61Z" style="fill:none;stroke:#fff;stroke-linecap:round;stroke-linejoin:round;stroke-width:4px"/></g></g></svg>