<svg xmlns="http://www.w3.org/2000/svg" viewBox="0 0 200 200"><title>Bus</title><g id="3537f3fe-7932-4c02-b7e3-e405cc93a847" data-name="Sky"><rect x="25.04" y="25.04" width="149.93" height="149.93" rx="14.17" ry="14.17" transform="translate(100 -41.42) rotate(45)" style="fill:#71cc98"/></g><g id="d9e39107-737f-4485-b828-0a3b8d1e8346" data-name="Icon"><g id="9b3f1b1d-3e9d-4113-97a0-161b3d14d3cf" data-name="&lt;Group&gt;"><path id="55d75875-8d97-4a37-8940-0bef7e1a4bc6" data-name="&lt;Path&gt;" d="M88.85,122.31V129a2.24,2.24,0,0,1-2.23,2.23H79.92A2.24,2.24,0,0,1,77.69,129v-6.69" style="fill:none;stroke:#fff;stroke-linecap:round;stroke-linejoin:round;stroke-width:4px"/><path id="464cdcc0-bc83-4f26-9d30-ce53fc90c32b" data-name="&lt;Path&gt;" d="M122.31,122.31V129a2.24,2.24,0,0,1-2.23,2.23h-6.69a2.24,2.24,0,0,1-2.23-2.23v-6.69" style="fill:none;stroke:#fff;stroke-linecap:round;stroke-linejoin:round;stroke-width:4px"/><rect id="cfd76ff9-c9c3-48e0-8ea8-74aaea3298e5" data-name="&lt;Rectangle&gt;" x="71" y="68.77" width="58" height="53.54" rx="2" ry="2" style="fill:none;stroke:#fff;stroke-linecap:round;stroke-linejoin:round;stroke-width:4px"/><line id="167eeb29-cc16-48e2-bb54-86f42ce8b181" data-name="&lt;Path&gt;" x1="71" y1="77.69" x2="129" y2="77.69" style="fill:none;stroke:#fff;stroke-linecap:round;stroke-linejoin:round;stroke-width:4px"/><line id="231d8340-2d09-48ff-81cc-e4e2ac7fad10" data-name="&lt;Path&gt;" x1="71" y1="102.23" x2="129" y2="102.23" style="fill:none;stroke:#fff;stroke-linecap:round;stroke-linejoin:round;stroke-width:4px"/><circle id="b9bfe66d-ecb5-4d11-a33b-69f4edf4f2b4" data-name="&lt;Path&gt;" cx="83.27" cy="112.27" r="3.35" style="fill:none;stroke:#fff;stroke-linecap:round;stroke-linejoin:round;stroke-width:4px"/><circle id="6c222a1e-67f6-447c-8492-deeb76c16738" data-name="&lt;Path&gt;" cx="116.73" cy="112.27" r="3.35" style="fill:none;stroke:#fff;stroke-linecap:round;stroke-linejoin:round;stroke-width:4px"/></g></g></svg>