<svg xmlns="http://www.w3.org/2000/svg" viewBox="0 0 200 200"><title>Cocktail</title><g id="5b73203f-68dc-4c53-8b3f-7fecb43f43f1" data-name="Sky"><rect x="25.04" y="25.04" width="149.93" height="149.93" rx="14.17" ry="14.17" transform="translate(100 -41.42) rotate(45)" style="fill:#71cc98"/></g><g id="7277e6bf-06e5-4a60-9e39-19fc0db13136" data-name="Icon"><g id="1110171a-9d31-4c87-8fd4-67b7fd9eb83d" data-name="&lt;Group&gt;"><polyline id="54e0d087-3fab-4e85-a1ab-2e21723e768d" data-name="&lt;Path&gt;" points="67.89 76 82.63 81.9 82.63 99.59" style="fill:none;stroke:#fff;stroke-linecap:round;stroke-linejoin:round;stroke-width:4px"/><path id="bc54aa3a-f400-4080-b09b-f10c0755051b" data-name="&lt;Path&gt;" d="M132.11,84.75c-12,1-25.68-7-30.67-17.88l25.14-7.75Z" style="fill:none;stroke:#fff;stroke-linecap:round;stroke-linejoin:round;stroke-width:4px"/><line id="e8b26bec-12fc-4e7a-a22c-0c1656625819" data-name="&lt;Path&gt;" x1="113.56" y1="79.89" x2="101.24" y2="99.59" style="fill:none;stroke:#fff;stroke-linecap:round;stroke-linejoin:round;stroke-width:4px"/><path id="0f1ca8fb-c734-4bce-9045-65b17c9e6943" data-name="&lt;Path&gt;" d="M122.64,99.59l-4.51,7.25-6.28-7.25H72a34.8,34.8,0,0,0-1.12,8.85c0,17.93,13.21,32.44,29.49,32.44s29.49-14.51,29.49-32.44a34.8,34.8,0,0,0-1.12-8.85Z" style="fill:none;stroke:#fff;stroke-linecap:round;stroke-linejoin:round;stroke-width:4px"/></g></g></svg>