<svg xmlns="http://www.w3.org/2000/svg" viewBox="0 0 200 200"><title>Cutlery</title><g id="a397b962-eaca-4c2c-b6bf-9e199c5f7eb8" data-name="Sky"><rect x="25.04" y="25.04" width="149.93" height="149.93" rx="14.17" ry="14.17" transform="translate(100 -41.42) rotate(45)" style="fill:#71cc98"/></g><g id="586a0be9-0fc5-4486-ac1e-c05fae6e5405" data-name="Icon"><g id="8e791382-6486-44dd-9eb4-096796d8bfee" data-name="&lt;Group&gt;"><g id="e34e0bb4-9ff9-4d85-9ed3-5cc76facb726" data-name="&lt;Group&gt;"><line id="73adcf96-e328-46fd-949c-0b320c2ff8d6" data-name="&lt;Path&gt;" x1="84.28" y1="62" x2="84.28" y2="80.34" style="fill:none;stroke:#fff;stroke-linecap:round;stroke-linejoin:round;stroke-width:4px"/><path id="c5775392-6b0b-4b8a-b12f-de6bb2de3e29" data-name="&lt;Path&gt;" d="M71.17,62V80.34A13.16,13.16,0,0,0,75,89.62a13.45,13.45,0,0,0,4,2.75v40.38A5.24,5.24,0,0,0,84.28,138h0a5.24,5.24,0,0,0,5.24-5.24V92.37a13.18,13.18,0,0,0,7.86-12V62" style="fill:none;stroke:#fff;stroke-linecap:round;stroke-linejoin:round;stroke-width:4px"/></g><path id="4ca994f4-6c7b-4bbe-b0b8-cbb9a244fd42" data-name="&lt;Path&gt;" d="M118.34,103.93l-2.1,27.29a6.3,6.3,0,0,0,6.28,6.78h0a6.3,6.3,0,0,0,6.3-6.3V64.62A15.74,15.74,0,0,0,113.1,80.34v23.59Z" style="fill:none;stroke:#fff;stroke-linecap:round;stroke-linejoin:round;stroke-width:4px"/></g></g></svg>