<svg xmlns="http://www.w3.org/2000/svg" viewBox="0 0 200 200"><title>Design</title><g id="1d6a3bc5-21e0-46bb-8119-577daa0a51b9" data-name="Sky"><rect x="25.04" y="25.04" width="149.93" height="149.93" rx="14.17" ry="14.17" transform="translate(100 -41.42) rotate(45)" style="fill:#71cc98"/></g><g id="37794e80-bec7-4f7a-894d-aad8cd1b89d4" data-name="Icon"><g id="4cacdc09-44fd-48af-aa53-71878a47c04d" data-name="&lt;Group&gt;"><polyline id="c3937ea8-6bfc-46a8-8c9b-556fd123f016" data-name="&lt;Path&gt;" points="113.91 103.15 131.79 121.03 135.37 135.37 121.03 131.79 103.13 113.89" style="fill:none;stroke:#fff;stroke-linecap:round;stroke-linejoin:round;stroke-width:4px"/><path id="e44e31e3-c27f-46c0-aa73-c7196bc0bccd" data-name="&lt;Path&gt;" d="M87.07,97.83,65.38,76.13a2.52,2.52,0,0,1,0-3.59L69,69l3.59-3.59a2.52,2.52,0,0,1,3.59,0L97.85,87.1" style="fill:none;stroke:#fff;stroke-linecap:round;stroke-linejoin:round;stroke-width:4px"/><line id="448c66f4-d249-491c-971c-ce0f556c3e9c" data-name="&lt;Path&gt;" x1="131.78" y1="121.03" x2="121.03" y2="131.78" style="fill:none;stroke:#fff;stroke-linecap:round;stroke-linejoin:round;stroke-width:4px"/><line id="268af868-313d-4f39-a851-0318ec5db3b8" data-name="&lt;Path&gt;" x1="85.35" y1="74.6" x2="74.55" y2="85.3" style="fill:none;stroke:#fff;stroke-linecap:round;stroke-linejoin:round;stroke-width:4px"/><g id="2fced0db-7e41-4bea-91d0-486f7e494cea" data-name="&lt;Group&gt;"><rect id="2e609396-2f68-4b5a-8f2d-94daf9ab8ef3" data-name="&lt;Path&gt;" x="62.64" y="89.13" width="75.7" height="22.71" transform="translate(-41.62 100.48) rotate(-45)" style="fill:none;stroke:#fff;stroke-linecap:round;stroke-linejoin:round;stroke-width:4px"/><line id="b36c5e82-c602-4629-a80b-7403f61b1269" data-name="&lt;Path&gt;" x1="74.61" y1="110.3" x2="79.97" y2="115.66" style="fill:none;stroke:#fff;stroke-linecap:round;stroke-linejoin:round;stroke-width:4px"/><line id="ff9e50d2-7c68-4af2-b0ac-83e665285e61" data-name="&lt;Path&gt;" x1="83.54" y1="101.38" x2="90.68" y2="108.52" style="fill:none;stroke:#fff;stroke-linecap:round;stroke-linejoin:round;stroke-width:4px"/><line id="93323c38-b3d1-494f-a43a-4345bfc00dac" data-name="&lt;Path&gt;" x1="92.46" y1="92.46" x2="97.81" y2="97.81" style="fill:none;stroke:#fff;stroke-linecap:round;stroke-linejoin:round;stroke-width:4px"/><line id="e4a366f7-5eac-4d1f-9eab-1014352cf850" data-name="&lt;Path&gt;" x1="101.38" y1="83.54" x2="108.52" y2="90.68" style="fill:none;stroke:#fff;stroke-linecap:round;stroke-linejoin:round;stroke-width:4px"/><line id="69afd76f-83a9-4773-9b61-38fcf21f8dd5" data-name="&lt;Path&gt;" x1="110.3" y1="74.62" x2="115.66" y2="79.97" style="fill:none;stroke:#fff;stroke-linecap:round;stroke-linejoin:round;stroke-width:4px"/></g></g></g></svg>