<svg xmlns="http://www.w3.org/2000/svg" viewBox="0 0 200 200"><title>Diamond</title><g id="447813c7-ed9d-4328-99be-fef3a525811c" data-name="Sky"><rect x="25.04" y="25.04" width="149.93" height="149.93" rx="14.17" ry="14.17" transform="translate(100 -41.42) rotate(45)" style="fill:#71cc98"/></g><g id="f111e77d-3b4a-47a3-bef4-25e13653aab7" data-name="Icon"><g id="c9710404-d202-4946-83b7-acfdb4b78852" data-name="&lt;Group&gt;"><polygon id="f1b93017-e281-41b4-827c-cd7deb85c3e1" data-name="&lt;Path&gt;" points="101 144.31 62 98.04 75.96 77.69 101 77.69 126.04 77.69 140 98.04 101 144.31" style="fill:none;stroke:#fff;stroke-linecap:round;stroke-linejoin:round;stroke-width:4px"/><polyline id="0e77ebfa-2d03-43e4-af48-30603723aec7" data-name="&lt;Path&gt;" points="62 98.04 71.75 98.04 81.5 98.04 91.25 98.04 101 98.04 110.75 98.04 120.5 98.04 130.25 98.04 140 98.04" style="fill:none;stroke:#fff;stroke-linecap:round;stroke-linejoin:round;stroke-width:4px"/><line id="1d83d490-82f4-4dd7-a405-315718835f77" data-name="&lt;Path&gt;" x1="113.58" y1="98.04" x2="101" y2="77.69" style="fill:none;stroke:#fff;stroke-linecap:round;stroke-linejoin:round;stroke-width:4px"/><line id="73be8c44-db42-4da7-a07d-50b062139230" data-name="&lt;Path&gt;" x1="101" y1="77.69" x2="88.42" y2="98.04" style="fill:none;stroke:#fff;stroke-linecap:round;stroke-linejoin:round;stroke-width:4px"/><polyline id="84eb6ecb-c4e6-4247-8a49-17d16452b110" data-name="&lt;Path&gt;" points="101 144.31 88.42 98.04 75.96 77.69" style="fill:none;stroke:#fff;stroke-linecap:round;stroke-linejoin:round;stroke-width:4px"/><polyline id="cff66b49-776b-4bc4-9a87-983b03c9ca8c" data-name="&lt;Path&gt;" points="101 144.31 113.58 98.04 126.04 77.69" style="fill:none;stroke:#fff;stroke-linecap:round;stroke-linejoin:round;stroke-width:4px"/></g></g></svg>