<svg xmlns="http://www.w3.org/2000/svg" viewBox="0 0 200 200"><title>Direction</title><g id="2d23e648-a43c-4f61-964c-04cdf59f1c37" data-name="Sky"><rect x="25.04" y="25.04" width="149.93" height="149.93" rx="14.17" ry="14.17" transform="translate(100 -41.42) rotate(45)" style="fill:#71cc98"/></g><g id="13ca69d1-19ee-487a-a5c5-b9417cd15d25" data-name="Icon"><g id="1ed75de6-7da7-40c2-bdd5-593631696c75" data-name="&lt;Group&gt;"><path id="84615e07-31c6-4889-b2be-d21d05cc5cfe" data-name="&lt;Path&gt;" d="M93.84,73.2V67A6.16,6.16,0,0,1,100,60.88h0A6.16,6.16,0,0,1,106.16,67V73.2" style="fill:none;stroke:#fff;stroke-linecap:round;stroke-linejoin:round;stroke-width:4px"/><line id="ce565df1-2be2-4349-864f-55ae1b134445" data-name="&lt;Path&gt;" x1="106.16" y1="104" x2="106.16" y2="91.68" style="fill:none;stroke:#fff;stroke-linecap:round;stroke-linejoin:round;stroke-width:4px"/><line id="12bac7e5-0908-4020-82f4-14963317c0f9" data-name="&lt;Path&gt;" x1="106.16" y1="147.12" x2="106.16" y2="122.48" style="fill:none;stroke:#fff;stroke-linecap:round;stroke-linejoin:round;stroke-width:4px"/><line id="b1bda165-c128-4fef-a217-f440681aef01" data-name="&lt;Path&gt;" x1="93.84" y1="104" x2="93.84" y2="91.68" style="fill:none;stroke:#fff;stroke-linecap:round;stroke-linejoin:round;stroke-width:4px"/><line id="574945b5-6ce0-4f44-b931-8d493d39d779" data-name="&lt;Path&gt;" x1="93.84" y1="147.12" x2="93.84" y2="122.48" style="fill:none;stroke:#fff;stroke-linecap:round;stroke-linejoin:round;stroke-width:4px"/><polygon id="4ee2ed53-94e9-43af-b4f3-1b3146858d78" data-name="&lt;Path&gt;" points="122.97 91.68 94.34 91.68 65.72 91.68 71.92 82.44 65.72 73.2 94.34 73.2 122.97 73.2 128.98 77.82 135 82.44 128.98 87.06 122.97 91.68" style="fill:none;stroke:#fff;stroke-linecap:round;stroke-linejoin:round;stroke-width:4px"/><polygon id="b42c42b1-a4a1-4b04-b014-09c0ae31685f" data-name="&lt;Path&gt;" points="77.03 104 105.66 104 134.29 104 128.09 113.24 134.29 122.48 105.66 122.48 77.03 122.48 71.02 117.86 65 113.24 71.02 108.62 77.03 104" style="fill:none;stroke:#fff;stroke-linecap:round;stroke-linejoin:round;stroke-width:4px"/><line id="62643c12-d984-40cb-b2c5-8b874ce701df" data-name="&lt;Path&gt;" x1="84.6" y1="147.12" x2="115.4" y2="147.12" style="fill:none;stroke:#fff;stroke-linecap:round;stroke-linejoin:round;stroke-width:4px"/></g></g></svg>