<svg xmlns="http://www.w3.org/2000/svg" viewBox="0 0 200 200"><title>DoNotDisturb</title><g id="b39996db-cd5b-40fc-8935-bc5f3f8f801f" data-name="Sky"><rect x="25.04" y="25.04" width="149.93" height="149.93" rx="14.17" ry="14.17" transform="translate(100 -41.42) rotate(45)" style="fill:#71cc98"/></g><g id="4c3721d7-ffcc-4984-9a76-b424a8117e4b" data-name="Icon"><g id="28ae9763-e5d5-4ec8-8e27-57bd9daaf38e" data-name="&lt;Group&gt;"><path id="fed85539-70df-4a33-9689-82aa1e51dcbd" data-name="&lt;Path&gt;" d="M120,80v60H80V105l24.07-16.18a10.17,10.17,0,0,0,4.5-8.44h0a8.83,8.83,0,0,0-6.84-8.78A8.59,8.59,0,0,0,91.43,80v2.86H80v-2C80,69.47,89.3,59.65,100.65,60A20,20,0,0,1,120,80Z" style="fill:none;stroke:#fff;stroke-linecap:round;stroke-linejoin:round;stroke-width:4px"/><path id="8cacbd9b-6049-4b63-b9db-b753b88b2c75" data-name="&lt;Path&gt;" d="M111.43,120a11.43,11.43,0,1,1-3.35-8.08A11.39,11.39,0,0,1,111.43,120Z" style="fill:none;stroke:#fff;stroke-linecap:round;stroke-linejoin:round;stroke-width:4px"/><line id="543235a6-c07a-4932-ab0d-c52732e05a2b" data-name="&lt;Path&gt;" x1="108.08" y1="111.92" x2="91.92" y2="128.08" style="fill:none;stroke:#fff;stroke-linecap:round;stroke-linejoin:round;stroke-width:4px"/></g></g></svg>