<svg xmlns="http://www.w3.org/2000/svg" viewBox="0 0 200 200"><title>Gift</title><g id="291215a0-b0ee-4f18-b5a4-545c5996791a" data-name="Sky"><rect x="25.04" y="25.04" width="149.93" height="149.93" rx="14.17" ry="14.17" transform="translate(100 -41.42) rotate(45)" style="fill:#71cc98"/></g><g id="3302eec9-a3f0-4337-a69f-619242be7378" data-name="Icon"><g id="1643f67a-6af7-4501-8bad-54ecc8ae33ab" data-name="&lt;Group&gt;"><line id="7d2f437d-c3d9-4422-aa02-46b31aa5ad2a" data-name="&lt;Path&gt;" x1="94.29" y1="98.62" x2="94.29" y2="140" style="fill:none;stroke:#fff;stroke-linecap:round;stroke-linejoin:round;stroke-width:4px"/><line id="b301dca0-7e02-4035-87ed-f0bcbd21d47a" data-name="&lt;Path&gt;" x1="105.71" y1="98.62" x2="105.71" y2="140" style="fill:none;stroke:#fff;stroke-linecap:round;stroke-linejoin:round;stroke-width:4px"/><path id="1844f2ae-ef00-40c7-9801-0d9fe4687344" data-name="&lt;Path&gt;" d="M108.63,80c3.34-1,9.54-3.89,12.54-8.17a8.25,8.25,0,0,0,1.37-7.14A6.52,6.52,0,0,0,115.66,60c-8.29.71-14.17,10.69-15.4,20" style="fill:none;stroke:#fff;stroke-linecap:round;stroke-linejoin:round;stroke-width:4px"/><path id="0891651e-4ae4-454f-8b6a-8c75a50ac26b" data-name="&lt;Path&gt;" d="M91.6,80c-2.51-1.06-5.74-2.91-7.49-5.4a6.21,6.21,0,0,1-1-5.37,4.92,4.92,0,0,1,5.17-3.49c6,.49,10.31,7.49,11.46,14.26" style="fill:none;stroke:#fff;stroke-linecap:round;stroke-linejoin:round;stroke-width:4px"/><rect id="91966c7c-3781-46de-a420-ab1c9f9be84d" data-name="&lt;Rectangle&gt;" x="60" y="80" width="80" height="17.14" style="fill:none;stroke:#fff;stroke-linecap:round;stroke-linejoin:round;stroke-width:4px"/><polyline id="9c283782-cb98-4481-8235-e09ac1b77ed9" data-name="&lt;Path&gt;" points="134.29 97.14 134.29 140 65.71 140 65.71 97.14" style="fill:none;stroke:#fff;stroke-linecap:round;stroke-linejoin:round;stroke-width:4px"/></g></g></svg>