<svg xmlns="http://www.w3.org/2000/svg" viewBox="0 0 200 200"><title>Glasses</title><g id="6074c347-1807-4bfe-a89e-1c9db2ede228" data-name="Sky"><rect x="25.04" y="25.04" width="149.93" height="149.93" rx="14.17" ry="14.17" transform="translate(100 -41.42) rotate(45)" style="fill:#71cc98"/></g><g id="dce0bc0f-a03b-455a-ba19-05238a9e1a59" data-name="Icon"><g id="83893a34-87d4-4cf6-ba09-8a181edeb1f0" data-name="&lt;Group&gt;"><path id="5a4e2bed-d2ab-4c30-9027-76012f6e4851" data-name="&lt;Path&gt;" d="M87.19,71.83h-2.3a7.68,7.68,0,0,0-7.22,5.06L69.27,100" style="fill:none;stroke:#fff;stroke-linecap:round;stroke-linejoin:round;stroke-width:4px"/><path id="0a41169a-4e0e-4d2e-9b91-9ffa9440aa22" data-name="&lt;Path&gt;" d="M112.81,71.83h2.3a7.68,7.68,0,0,1,7.22,5.06L130.73,100" style="fill:none;stroke:#fff;stroke-linecap:round;stroke-linejoin:round;stroke-width:4px"/><path id="524729e0-ac6a-42dc-a2af-32defb3c92ba" data-name="&lt;Rectangle&gt;" d="M66.14,100H92.88a2,2,0,0,1,2,2v18.17a8,8,0,0,1-8,8H66.14a2,2,0,0,1-2-2V102A2,2,0,0,1,66.14,100Z" style="fill:none;stroke:#fff;stroke-linecap:round;stroke-linejoin:round;stroke-width:4px"/><path id="53bec3ed-da91-4052-bd95-0457d2004797" data-name="&lt;Rectangle&gt;" d="M107.12,100h26.73a2,2,0,0,1,2,2v24.17a2,2,0,0,1-2,2H113.12a8,8,0,0,1-8-8V102A2,2,0,0,1,107.12,100Z" style="fill:none;stroke:#fff;stroke-linecap:round;stroke-linejoin:round;stroke-width:4px"/><line id="775d0aab-63fd-4b45-9bf6-4ad710631b47" data-name="&lt;Path&gt;" x1="105.28" y1="110.24" x2="94.72" y2="110.24" style="fill:none;stroke:#fff;stroke-linecap:round;stroke-linejoin:round;stroke-width:4px"/></g></g></svg>