<svg xmlns="http://www.w3.org/2000/svg" viewBox="0 0 200 200"><title>Global</title><g id="7bef5c2f-283e-46db-8f0a-5dd06022bf98" data-name="Sky"><rect x="25.04" y="25.04" width="149.93" height="149.93" rx="14.17" ry="14.17" transform="translate(100 -41.42) rotate(45)" style="fill:#71cc98"/></g><g id="3ed0fa1e-c95b-4122-a7a9-788062cfb87d" data-name="Icon"><g id="19407091-63ee-4d1a-8de6-92fe72befc06" data-name="&lt;Group&gt;"><line id="694d0a12-9b4e-4079-8800-317fd83c8e8d" data-name="&lt;Path&gt;" x1="100" y1="60" x2="100" y2="140" style="fill:none;stroke:#fff;stroke-linecap:round;stroke-linejoin:round;stroke-width:4px"/><line id="09facc59-e463-4076-b0a3-ece14f0a651b" data-name="&lt;Path&gt;" x1="60" y1="100" x2="140" y2="100" style="fill:none;stroke:#fff;stroke-linecap:round;stroke-linejoin:round;stroke-width:4px"/><path id="01c0f921-da8f-4d02-9aa0-1db420420148" data-name="&lt;Path&gt;" d="M109.2,138.94l0,0a62.3,62.3,0,0,0,0-77.83l0,0" style="fill:none;stroke:#fff;stroke-linecap:round;stroke-linejoin:round;stroke-width:4px"/><path id="7fa1e342-ac3a-4ba8-ba5d-d3086422bf25" data-name="&lt;Path&gt;" d="M90.8,138.94l0,0a62.3,62.3,0,0,1,0-77.83l0,0" style="fill:none;stroke:#fff;stroke-linecap:round;stroke-linejoin:round;stroke-width:4px"/><path id="de65fb5a-3ba2-4100-b367-d501131dda25" data-name="&lt;Path&gt;" d="M129.23,72.71a62.32,62.32,0,0,1-58.46,0" style="fill:none;stroke:#fff;stroke-linecap:round;stroke-linejoin:round;stroke-width:4px"/><path id="cc28f621-0bdd-49ca-8178-59f04822feb2" data-name="&lt;Path&gt;" d="M70.77,127.29a62.32,62.32,0,0,1,58.46,0" style="fill:none;stroke:#fff;stroke-linecap:round;stroke-linejoin:round;stroke-width:4px"/><circle id="512fce7a-9d02-431b-808e-4fda85a6dc94" data-name="&lt;Path&gt;" cx="100" cy="100" r="40" style="fill:none;stroke:#fff;stroke-linecap:round;stroke-linejoin:round;stroke-width:4px"/></g></g></svg>