<svg xmlns="http://www.w3.org/2000/svg" viewBox="0 0 200 200"><title>Lightbulb</title><g id="e6dd64ef-10f6-4365-a45b-2000a1a1eece" data-name="Sky"><rect x="25.04" y="25.04" width="149.93" height="149.93" rx="14.17" ry="14.17" transform="translate(100 -41.42) rotate(45)" style="fill:#71cc98"/></g><g id="970e7532-d5fe-43f8-addb-f8ceb1cad0d3" data-name="Icon"><g id="b2f37a58-5acc-4cb1-aefd-63625a6ad9f2" data-name="&lt;Group&gt;"><line id="5b360067-b434-4794-a680-f0ee40697682" data-name="&lt;Path&gt;" x1="100" y1="127" x2="100" y2="103" style="fill:none;stroke:#fff;stroke-linecap:round;stroke-linejoin:round;stroke-width:4px"/><path id="df127249-9d1e-4c57-8caf-94838a40cad7" data-name="&lt;Path&gt;" d="M88,136.35V139a3,3,0,0,0,3,3h18a3,3,0,0,0,3-3v-2.65a30,30,0,0,1,2.57-12.16l1.44-3.24a141.64,141.64,0,0,1,9.49-17.15,30,30,0,1,0-51,0A141.64,141.64,0,0,1,84,120.95l1.44,3.24A30,30,0,0,1,88,136.35Z" style="fill:none;stroke:#fff;stroke-linecap:round;stroke-linejoin:round;stroke-width:4px"/><line id="f850da39-a37c-4565-b8a6-4d2d764e5f2f" data-name="&lt;Path&gt;" x1="87.31" y1="127" x2="112.69" y2="127" style="fill:none;stroke:#fff;stroke-linecap:round;stroke-linejoin:round;stroke-width:4px"/><polyline id="8f12a14c-824d-45b2-b79b-6b9ef7835518" data-name="&lt;Path&gt;" points="84.06 91.92 89.36 96.38 94.68 91.92 99.98 96.38 105.3 91.92 110.62 96.38 115.94 91.92" style="fill:none;stroke:#fff;stroke-linecap:round;stroke-linejoin:round;stroke-width:4px"/></g></g></svg>