<svg xmlns="http://www.w3.org/2000/svg" viewBox="0 0 200 200"><title>Luggage</title><g id="06eb2db8-559c-48cb-9a7f-260633b571e1" data-name="Sky"><rect x="25.04" y="25.04" width="149.93" height="149.93" rx="14.17" ry="14.17" transform="translate(100 -41.42) rotate(45)" style="fill:#71cc98"/></g><g id="4ce3a58d-aeed-48da-8ff3-ab4017c4bc87" data-name="Icon"><g id="803f5ad0-54ca-4cae-b4bb-7f8c2ebb2e94" data-name="&lt;Group&gt;"><path id="cd465acc-c6b2-45cd-a9b8-317b0c60ac42" data-name="&lt;Path&gt;" d="M62,71.19l5.95,5.95v36.32a5.19,5.19,0,0,0,5.19,5.19H138" style="fill:none;stroke:#fff;stroke-linecap:round;stroke-linejoin:round;stroke-width:4px"/><circle id="ff672852-161d-4e38-bfba-6a25f3a9ca8f" data-name="&lt;Path&gt;" cx="125.03" cy="131.62" r="5.19" style="fill:none;stroke:#fff;stroke-linecap:round;stroke-linejoin:round;stroke-width:4px"/><circle id="e4e9bae4-aaa9-4489-beaa-778784b1ec38" data-name="&lt;Path&gt;" cx="78.33" cy="131.62" r="5.19" style="fill:none;stroke:#fff;stroke-linecap:round;stroke-linejoin:round;stroke-width:4px"/><rect id="ac4d0ad5-70e7-44e4-83f4-8d84b484352f" data-name="&lt;Rectangle&gt;" x="80.92" y="79.73" width="46.7" height="31.13" rx="1" ry="1" style="fill:none;stroke:#fff;stroke-linecap:round;stroke-linejoin:round;stroke-width:4px"/><path id="dfcaca85-6108-45ee-bc23-813c13737617" data-name="&lt;Path&gt;" d="M112.06,79.73V74.54a2.59,2.59,0,0,0-2.59-2.59H99.08a2.59,2.59,0,0,0-2.59,2.59v5.19" style="fill:none;stroke:#fff;stroke-linecap:round;stroke-linejoin:round;stroke-width:4px"/><line id="c02fb016-db11-46b7-9e1f-89b5f4c6c1b1" data-name="&lt;Path&gt;" x1="91.3" y1="79.73" x2="91.3" y2="110.87" style="fill:none;stroke:#fff;stroke-linecap:round;stroke-linejoin:round;stroke-width:4px"/><line id="203c9399-7dc5-4f4f-bcdc-542883948b54" data-name="&lt;Path&gt;" x1="117.24" y1="79.73" x2="117.24" y2="110.87" style="fill:none;stroke:#fff;stroke-linecap:round;stroke-linejoin:round;stroke-width:4px"/></g></g></svg>