<svg xmlns="http://www.w3.org/2000/svg" viewBox="0 0 200 200"><title>Meeting</title><g id="72e682c6-42ce-4306-9ea3-b8036448196e" data-name="Sky"><rect x="25.04" y="25.04" width="149.93" height="149.93" rx="14.17" ry="14.17" transform="translate(100 -41.42) rotate(45)" style="fill:#71cc98"/></g><g id="af0259ce-8551-4f85-bbc0-78078022fe80" data-name="Icon"><g id="4c8dc4d0-9783-47d8-b611-1f4301d4eb52" data-name="&lt;Group&gt;"><circle id="2da66be1-5ea9-413e-826b-6d87cd55bae5" data-name="&lt;Path&gt;" cx="64.64" cy="88.75" r="9.64" style="fill:none;stroke:#fff;stroke-linecap:round;stroke-linejoin:round;stroke-width:4px"/><circle id="3974c293-c9ee-4269-b576-c3cc9ea4791a" data-name="&lt;Path&gt;" cx="100" cy="69.46" r="9.64" style="fill:none;stroke:#fff;stroke-linecap:round;stroke-linejoin:round;stroke-width:4px"/><circle id="f273a37c-a103-4213-ae62-6794bb4bdbda" data-name="&lt;Path&gt;" cx="135.36" cy="88.75" r="9.64" style="fill:none;stroke:#fff;stroke-linecap:round;stroke-linejoin:round;stroke-width:4px"/><path id="54450317-80d4-48f7-98b5-17ec84f6e038" data-name="&lt;Path&gt;" d="M87.14,98.39V88.75a6.43,6.43,0,0,1,6.43-6.43h12.86a6.43,6.43,0,0,1,6.43,6.43v9.64" style="fill:none;stroke:#fff;stroke-linecap:round;stroke-linejoin:round;stroke-width:4px"/><path id="6ac03eb0-689a-4bfe-b78b-93a7fd5a9a1d" data-name="&lt;Path&gt;" d="M80.71,140.18V124.11a3.21,3.21,0,0,0-3.21-3.21H67.86a3.21,3.21,0,0,1-3.21-3.21V98.39" style="fill:none;stroke:#fff;stroke-linecap:round;stroke-linejoin:round;stroke-width:4px"/><path id="691405c8-8427-4d04-95f1-06f2e931a1f0" data-name="&lt;Path&gt;" d="M119.29,140.18V124.11a3.21,3.21,0,0,1,3.21-3.21h9.64a3.21,3.21,0,0,0,3.21-3.21V98.39" style="fill:none;stroke:#fff;stroke-linecap:round;stroke-linejoin:round;stroke-width:4px"/><line id="40f0211c-9d3f-448e-bebf-d0d96acd810f" data-name="&lt;Path&gt;" x1="74.29" y1="108.04" x2="125.71" y2="108.04" style="fill:none;stroke:#fff;stroke-linecap:round;stroke-linejoin:round;stroke-width:4px"/><line id="cd44eb4b-f210-4f65-8376-8723735f8e39" data-name="&lt;Path&gt;" x1="100" y1="108.04" x2="100" y2="140.18" style="fill:none;stroke:#fff;stroke-linecap:round;stroke-linejoin:round;stroke-width:4px"/></g></g></svg>