<svg xmlns="http://www.w3.org/2000/svg" viewBox="0 0 200 200"><title>Megaphone</title><g id="15286ced-09fd-42cc-85ce-e4dcc586a22f" data-name="Sky"><rect x="25.04" y="25.04" width="149.93" height="149.93" rx="14.17" ry="14.17" transform="translate(100 -41.42) rotate(45)" style="fill:#71cc98"/></g><g id="945db472-6747-4bf1-a47a-01e0958c5af4" data-name="Icon"><g id="5215efa5-13e1-4e56-9235-41ceafd30ab7" data-name="&lt;Group&gt;"><path id="e6f29d60-b7bd-4813-9ecc-541ad651a2ae" data-name="&lt;Path&gt;" d="M85.12,102l5.71,22.85a6.34,6.34,0,0,1-12.09,3.76L68.75,102" style="fill:none;stroke:#fff;stroke-linecap:round;stroke-linejoin:round;stroke-width:4px"/><path id="f007fdc6-4d95-4cd1-b551-58b29295696f" data-name="&lt;Path&gt;" d="M91,102H65.42a2.56,2.56,0,0,1-2.56-2.56V84a2.56,2.56,0,0,1,2.56-2.56H91" style="fill:none;stroke:#fff;stroke-linecap:round;stroke-linejoin:round;stroke-width:4px"/><polygon id="e3e3768f-0de3-46c9-b40f-e666ae78c3f1" data-name="&lt;Path&gt;" points="121.77 116.14 91.04 101.89 91.04 81.55 121.77 67.31 121.77 116.14" style="fill:none;stroke:#fff;stroke-linecap:round;stroke-linejoin:round;stroke-width:4px"/><line id="6f266d8d-553c-47cc-9135-c8e1d3d21b90" data-name="&lt;Path&gt;" x1="129.45" y1="91.71" x2="137.14" y2="91.71" style="fill:none;stroke:#fff;stroke-linecap:round;stroke-linejoin:round;stroke-width:4px"/><line id="32216dde-cd12-41f8-b58e-4ee75b1cea0f" data-name="&lt;Path&gt;" x1="129.45" y1="81.47" x2="137.14" y2="81.47" style="fill:none;stroke:#fff;stroke-linecap:round;stroke-linejoin:round;stroke-width:4px"/><line id="209b0f16-ab53-4ac2-963a-39edba1d07ed" data-name="&lt;Path&gt;" x1="129.45" y1="101.96" x2="137.14" y2="101.96" style="fill:none;stroke:#fff;stroke-linecap:round;stroke-linejoin:round;stroke-width:4px"/></g></g></svg>