<svg xmlns="http://www.w3.org/2000/svg" viewBox="0 0 200 200"><title>Money</title><g id="bd64e2f6-4185-49b1-aea8-e4da1282c9e1" data-name="Sky"><rect x="25.04" y="25.04" width="149.93" height="149.93" rx="14.17" ry="14.17" transform="translate(100 -41.42) rotate(45)" style="fill:#71cc98"/></g><g id="a032e09c-758b-4567-ac1a-68647395d356" data-name="Icon"><g id="2fe7e8ba-5b6d-46e4-aae3-459c2669916c" data-name="&lt;Group&gt;"><rect id="db6b7df6-b791-4bed-955a-04b6fc861690" data-name="&lt;Rectangle&gt;" x="59.75" y="77" width="80.5" height="46" style="fill:none;stroke:#fff;stroke-linecap:round;stroke-linejoin:round;stroke-width:4px"/><ellipse id="300481dc-d3ff-49c0-a7d7-f50781a855cd" data-name="&lt;Path&gt;" cx="100" cy="100" rx="8.63" ry="11.5" style="fill:none;stroke:#fff;stroke-linecap:round;stroke-linejoin:round;stroke-width:4px"/><path id="d612e052-a0ec-450a-bdf4-80a4bd4eda1f" data-name="&lt;Path&gt;" d="M74.13,77A14.37,14.37,0,0,1,59.75,91.38" style="fill:none;stroke:#fff;stroke-linecap:round;stroke-linejoin:round;stroke-width:4px"/><path id="650dcf97-88d3-4a8d-a00f-2ec5410fa55a" data-name="&lt;Path&gt;" d="M140.25,91.38A14.37,14.37,0,0,1,125.88,77" style="fill:none;stroke:#fff;stroke-linecap:round;stroke-linejoin:round;stroke-width:4px"/><path id="00ebf29e-18f0-4b95-92cb-f8cff13eee20" data-name="&lt;Path&gt;" d="M125.88,123a14.37,14.37,0,0,1,14.38-14.37" style="fill:none;stroke:#fff;stroke-linecap:round;stroke-linejoin:round;stroke-width:4px"/><path id="13855c90-c989-4f5b-9840-3cd0d7e31482" data-name="&lt;Path&gt;" d="M59.75,108.63A14.37,14.37,0,0,1,74.13,123" style="fill:none;stroke:#fff;stroke-linecap:round;stroke-linejoin:round;stroke-width:4px"/><line id="538403a2-8451-4b24-9945-b6155109357c" data-name="&lt;Path&gt;" x1="77" y1="100" x2="82.75" y2="100" style="fill:none;stroke:#fff;stroke-linecap:round;stroke-linejoin:round;stroke-width:4px"/><line id="727f509c-c0e6-4ccd-93a5-b784f72843aa" data-name="&lt;Path&gt;" x1="117.25" y1="100" x2="123" y2="100" style="fill:none;stroke:#fff;stroke-linecap:round;stroke-linejoin:round;stroke-width:4px"/></g></g></svg>