<svg xmlns="http://www.w3.org/2000/svg" viewBox="0 0 200 200"><title>Pestle</title><g id="5920b5be-84ef-493e-9b1c-8ba4907bfed0" data-name="Sky"><rect x="25.04" y="25.04" width="149.93" height="149.93" rx="14.17" ry="14.17" transform="translate(100 -41.42) rotate(45)" style="fill:#71cc98"/></g><g id="c506545c-f607-4766-b2ff-e6de3145a367" data-name="Icon"><g id="6b9a3bd0-7a2f-4d76-916f-4e5f35391639" data-name="&lt;Group&gt;"><path id="30da263a-0ae4-4e66-b62a-bc574d8a1677" data-name="&lt;Path&gt;" d="M109.27,92.32,116.9,70a8.35,8.35,0,0,1,10.83-5.35,9,9,0,0,1,5.56,8.43,9.91,9.91,0,0,1-.51,3.07l-5.53,16.14" style="fill:none;stroke:#fff;stroke-linecap:round;stroke-linejoin:round;stroke-width:4px"/><g id="f60ec890-236f-497e-aa7c-e8ed247d0198" data-name="&lt;Group&gt;"><path id="ad0bde09-78eb-43c3-b07d-1534482ab87e" data-name="&lt;Path&gt;" d="M100,128.17h0A35.86,35.86,0,0,1,64.14,92.32h71.71A35.86,35.86,0,0,1,100,128.17Z" style="fill:none;stroke:#fff;stroke-linecap:round;stroke-linejoin:round;stroke-width:4px"/><polyline id="40574890-f3b2-4748-97d4-93178cf18b4a" data-name="&lt;Path&gt;" points="115.37 124.72 115.37 135.86 84.63 135.86 84.63 124.72" style="fill:none;stroke:#fff;stroke-linecap:round;stroke-linejoin:round;stroke-width:4px"/></g><line id="88e5bcfb-0f80-494e-8951-f0e1d1f2221c" data-name="&lt;Path&gt;" x1="134.37" y1="102.56" x2="65.63" y2="102.56" style="fill:none;stroke:#fff;stroke-linecap:round;stroke-linejoin:round;stroke-width:4px"/></g></g></svg>