<svg xmlns="http://www.w3.org/2000/svg" viewBox="0 0 200 200"><title>Plan</title><g id="0adb2df0-9f41-45d0-bdb1-f74e78c83205" data-name="Sky"><rect x="25.04" y="25.04" width="149.93" height="149.93" rx="14.17" ry="14.17" transform="translate(100 -41.42) rotate(45)" style="fill:#71cc98"/></g><g id="6f22f730-3314-463c-bd8c-8a7c9288b23d" data-name="Icon"><g id="9a4a19b7-1c93-4268-893c-5861aaba4990" data-name="&lt;Group&gt;"><g id="7edeba3e-61b3-4fb6-b418-cea7dd79a568" data-name="&lt;Group&gt;"><polyline id="15a306b4-4ade-4575-b6c3-a0ce02321c16" data-name="&lt;Path&gt;" points="120.49 82.48 89.75 82.48 89.75 128.58 128.17 128.58" style="fill:none;stroke:#fff;stroke-linecap:round;stroke-linejoin:round;stroke-width:4px"/><path id="b351eb6e-3850-4abe-8eca-8a3b5da210d6" data-name="&lt;Path&gt;" d="M135.86,120.9a7.68,7.68,0,0,1-7.68,7.68" style="fill:none;stroke:#fff;stroke-linecap:round;stroke-linejoin:round;stroke-width:4px"/><path id="c190f75f-42dc-4f98-99aa-be2137c7947f" data-name="&lt;Path&gt;" d="M120.49,120.9a7.68,7.68,0,0,1,15.37,0" style="fill:none;stroke:#fff;stroke-linecap:round;stroke-linejoin:round;stroke-width:4px"/><path id="42208fee-464d-4255-9c3f-989e25568235" data-name="&lt;Path&gt;" d="M135.86,120.9V82.48a7.68,7.68,0,0,0-15.37,0V120.9" style="fill:none;stroke:#fff;stroke-linecap:round;stroke-linejoin:round;stroke-width:4px"/></g><g id="2fdaa8c5-ae02-4d49-88a6-2c5541f56845" data-name="&lt;Group&gt;"><path id="95108d9f-17c1-4f51-a87b-b2f5a470da25" data-name="&lt;Path&gt;" d="M79,81.61a2.56,2.56,0,0,1,.47,1.48V126a2.56,2.56,0,0,1-2.56,2.56H66.71A2.56,2.56,0,0,1,64.14,126V83.09a2.56,2.56,0,0,1,.47-1.48l7.21-10.19Z" style="fill:none;stroke:#fff;stroke-linecap:round;stroke-linejoin:round;stroke-width:4px"/><line id="7d4b4c4b-7c33-4a10-ba6f-4df8ccd83b47" data-name="&lt;Path&gt;" x1="64.14" y1="115.77" x2="79.51" y2="115.77" style="fill:none;stroke:#fff;stroke-linecap:round;stroke-linejoin:round;stroke-width:4px"/><line id="9512cf0f-bc04-4a94-bb11-dfbedccb1deb" data-name="&lt;Path&gt;" x1="64.14" y1="85.04" x2="79.51" y2="85.04" style="fill:none;stroke:#fff;stroke-linecap:round;stroke-linejoin:round;stroke-width:4px"/></g></g></g></svg>