<svg xmlns="http://www.w3.org/2000/svg" viewBox="0 0 200 200"><title>Rocket</title><g id="fd83b90a-d9c4-46ed-86cc-9ddca9e7ec02" data-name="Sky"><rect x="25.04" y="25.04" width="149.93" height="149.93" rx="14.17" ry="14.17" transform="translate(100 -41.42) rotate(45)" style="fill:#71cc98"/></g><g id="a96d8760-7e20-4f51-b160-aeb53caf3bd2" data-name="Icon"><g id="2bc79412-eb2e-4487-8d73-cf11de35a384" data-name="&lt;Group&gt;"><polyline id="c25b26f5-e623-4cea-8274-3349655ed352" data-name="&lt;Path&gt;" points="110.18 127.22 113.57 140.79 86.43 140.79 89.82 127.22" style="fill:none;stroke:#fff;stroke-linecap:round;stroke-linejoin:round;stroke-width:4px"/><circle id="555636d9-b4c1-46af-ae06-662c6afbe54f" data-name="&lt;Path&gt;" cx="100" cy="89.89" r="10.18" style="fill:none;stroke:#fff;stroke-linecap:round;stroke-linejoin:round;stroke-width:4px"/><path id="f0147301-d547-4e28-95b3-b60aa75cb958" data-name="&lt;Path&gt;" d="M123.38,102.48l2.21.92a13.54,13.54,0,0,1,8.35,12.52V134l-12.76-17.78" style="fill:none;stroke:#fff;stroke-linecap:round;stroke-linejoin:round;stroke-width:4px"/><path id="37f0e3c0-d32a-4ca5-a1ab-e9edc9dd2de3" data-name="&lt;Path&gt;" d="M76.62,102.48l-2.21.92a13.54,13.54,0,0,0-8.35,12.52V134l12.76-17.78" style="fill:none;stroke:#fff;stroke-linecap:round;stroke-linejoin:round;stroke-width:4px"/><path id="8923db53-0fc8-4931-a4e1-942e2d1f50bf" data-name="&lt;Path&gt;" d="M82.8,127.22H117.2a66.77,66.77,0,0,0,6.28-27.14c0-29.18-23.48-52.86-23.48-52.86S76.52,70.89,76.52,100.07A66.77,66.77,0,0,0,82.8,127.22Z" style="fill:none;stroke:#fff;stroke-linecap:round;stroke-linejoin:round;stroke-width:4px"/></g></g></svg>