<svg xmlns="http://www.w3.org/2000/svg" viewBox="0 0 200 200"><title>Snowman</title><g id="3749798c-adb5-434d-9190-ce9813966dab" data-name="Sky"><rect x="25.04" y="25.04" width="149.93" height="149.93" rx="14.17" ry="14.17" transform="translate(100 -41.42) rotate(45)" style="fill:#71cc98"/></g><g id="1030947b-82c6-47f1-ac3c-2e1554bd7779" data-name="Icon"><g id="95ef2bda-3830-40e3-a64d-780136b6a3d5" data-name="&lt;Group&gt;"><path id="004e0669-8736-412d-b3ac-eed54d0b6b01" data-name="&lt;Path&gt;" d="M80.86,140a25.69,25.69,0,0,1,6.71-39.66" style="fill:none;stroke:#fff;stroke-linecap:round;stroke-linejoin:round;stroke-width:4px"/><path id="bfaab245-dac0-4062-9752-0a5a9b07553e" data-name="&lt;Path&gt;" d="M112.43,100.34A25.69,25.69,0,0,1,119.14,140" style="fill:none;stroke:#fff;stroke-linecap:round;stroke-linejoin:round;stroke-width:4px"/><path id="11367a06-29ac-464b-8ede-9e3eb63df8bd" data-name="&lt;Path&gt;" d="M109.46,74.29a17.14,17.14,0,1,1-18.91,0" style="fill:none;stroke:#fff;stroke-linecap:round;stroke-linejoin:round;stroke-width:4px"/><path id="ccf4d226-ee89-4625-bdf8-968d17fae0f8" data-name="&lt;Path&gt;" d="M106.06,91.78a8.58,8.58,0,0,1-12.12,0" style="fill:none;stroke:#fff;stroke-linecap:round;stroke-linejoin:round;stroke-width:4px"/><polyline id="90cefd6e-f175-499c-9b24-b507443b08e1" data-name="&lt;Path&gt;" points="134.29 140 119.14 140 80.86 140 65.71 140" style="fill:none;stroke:#fff;stroke-linecap:round;stroke-linejoin:round;stroke-width:4px"/><line id="bd192153-7359-4170-ae4a-8ba7e93e7628" data-name="&lt;Path&gt;" x1="120" y1="74.29" x2="80" y2="74.29" style="fill:none;stroke:#fff;stroke-linecap:round;stroke-linejoin:round;stroke-width:4px"/><path id="de504253-4dba-4b56-90c2-33661553ca1f" data-name="&lt;Path&gt;" d="M88.57,74.29V62.86A2.86,2.86,0,0,1,91.43,60h17.14a2.86,2.86,0,0,1,2.86,2.86V74.29" style="fill:none;stroke:#fff;stroke-linecap:round;stroke-linejoin:round;stroke-width:4px"/></g></g></svg>