<svg xmlns="http://www.w3.org/2000/svg" viewBox="0 0 200 200"><title>SprayPaint</title><g id="dc371238-b276-4d84-9184-bd54b5ec733e" data-name="Sky"><rect x="25.04" y="25.04" width="149.93" height="149.93" rx="14.17" ry="14.17" transform="translate(100 -41.42) rotate(45)" style="fill:#71cc98"/></g><g id="88260cd8-61f1-474b-8e75-cdb7c0e5080b" data-name="Icon"><g id="95371fa7-ad2f-43c4-b2a9-bb1ba35086ee" data-name="&lt;Group&gt;"><path id="bb5f456c-bcc2-415a-8d44-b9725f5b8e0b" data-name="&lt;Path&gt;" d="M89.76,75.13V66.71a2.56,2.56,0,0,1,2.56-2.56h5.12A2.56,2.56,0,0,1,100,66.71v8.43" style="fill:none;stroke:#fff;stroke-linecap:round;stroke-linejoin:round;stroke-width:4px"/><path id="e73a0355-e2ec-4e5e-a3ad-1ec4d1e5a23d" data-name="&lt;Path&gt;" d="M94.88,74.39h0A17.93,17.93,0,0,0,76.95,92.32v41a2.56,2.56,0,0,0,2.56,2.56h30.73a2.56,2.56,0,0,0,2.56-2.56v-41A17.93,17.93,0,0,0,94.88,74.39Z" style="fill:none;stroke:#fff;stroke-linecap:round;stroke-linejoin:round;stroke-width:4px"/><line id="b0192310-e972-48da-ba93-d0fb155d42c6" data-name="&lt;Path&gt;" x1="112.81" y1="92.32" x2="76.95" y2="92.32" style="fill:none;stroke:#fff;stroke-linecap:round;stroke-linejoin:round;stroke-width:4px"/><line id="0f974f97-806c-4a6e-8bb6-11621171c3da" data-name="&lt;Path&gt;" x1="107.68" y1="69.27" x2="112.81" y2="69.27" style="fill:none;stroke:#fff;stroke-linecap:round;stroke-linejoin:round;stroke-width:4px"/><line id="b45274c2-d09f-4a18-ba07-9ad2615b7ddf" data-name="&lt;Path&gt;" x1="117.93" y1="64.14" x2="123.05" y2="64.14" style="fill:none;stroke:#fff;stroke-linecap:round;stroke-linejoin:round;stroke-width:4px"/><line id="463e0598-9d5d-4b7c-a1f0-818b6e31d983" data-name="&lt;Path&gt;" x1="117.93" y1="74.39" x2="123.05" y2="74.39" style="fill:none;stroke:#fff;stroke-linecap:round;stroke-linejoin:round;stroke-width:4px"/></g></g></svg>