<svg xmlns="http://www.w3.org/2000/svg" viewBox="0 0 200 200"><title>Star</title><g id="4945cf96-b791-49be-937f-dd4f4abcb3e7" data-name="Sky"><rect x="25.04" y="25.04" width="149.93" height="149.93" rx="14.17" ry="14.17" transform="translate(100 -41.42) rotate(45)" style="fill:#71cc98"/></g><g id="f912f4a9-9063-4b4f-b7f1-93d8c2964bee" data-name="Icon"><path id="26e52b75-11df-4eeb-9c54-2bb828d943ea" data-name="&lt;Path&gt;" d="M102.39,68.15l9,17.77a2.66,2.66,0,0,0,2,1.42l20.16,2.85A2.58,2.58,0,0,1,135,94.61l-14.59,13.83a2.55,2.55,0,0,0-.77,2.3l3.44,19.53a2.65,2.65,0,0,1-3.87,2.73l-18-9.22a2.73,2.73,0,0,0-2.48,0l-18,9.22a2.65,2.65,0,0,1-3.87-2.73l3.44-19.53a2.55,2.55,0,0,0-.77-2.3L65,94.61a2.58,2.58,0,0,1,1.48-4.42l20.16-2.85a2.66,2.66,0,0,0,2-1.42l9-17.77A2.7,2.7,0,0,1,102.39,68.15Z" style="fill:none;stroke:#fff;stroke-linecap:round;stroke-linejoin:round;stroke-width:4px"/></g></svg>