<svg xmlns="http://www.w3.org/2000/svg" viewBox="0 0 200 200"><title>Sunset</title><g id="a0edd1bb-2207-4982-a70b-8b42a68009c6" data-name="Sky"><rect x="25.04" y="25.04" width="149.93" height="149.93" rx="14.17" ry="14.17" transform="translate(100 -41.42) rotate(45)" style="fill:#71cc98"/></g><g id="191b3a35-ec39-4fdb-9e34-06fc7e80c3a9" data-name="Icon"><g id="a77cff69-e097-43ab-8848-cadb090d5ef7" data-name="&lt;Group&gt;"><line id="faf77883-910a-49ff-aded-7aa0efcfc897" data-name="&lt;Path&gt;" x1="138.94" y1="101.5" x2="132.07" y2="101.5" style="fill:none;stroke:#fff;stroke-linecap:round;stroke-linejoin:round;stroke-width:4px"/><g id="bdec4194-568e-4af7-b5ac-7a4da909a2cd" data-name="&lt;Group&gt;"><line id="4509e123-1424-4f20-a987-96e723a46af1" data-name="&lt;Path&gt;" x1="100" y1="62.56" x2="100" y2="69.42" style="fill:none;stroke:#fff;stroke-linecap:round;stroke-linejoin:round;stroke-width:4px"/><path id="6a06777f-7931-445f-8b0b-748a399f3fb4" data-name="&lt;Path&gt;" d="M117.19,113.48a20.64,20.64,0,0,0,3.77-12,21,21,0,1,0-41.94,0,20.64,20.64,0,0,0,3.77,12" style="fill:none;stroke:#fff;stroke-linecap:round;stroke-linejoin:round;stroke-width:4px"/><line id="9d32c037-2ec8-4ac9-8215-d46287db6201" data-name="&lt;Path&gt;" x1="67.93" y1="101.5" x2="61.06" y2="101.5" style="fill:none;stroke:#fff;stroke-linecap:round;stroke-linejoin:round;stroke-width:4px"/><line id="a0b7b8c9-8663-4305-8e6f-bf354d917536" data-name="&lt;Path&gt;" x1="127.54" y1="73.96" x2="124.18" y2="77.32" style="fill:none;stroke:#fff;stroke-linecap:round;stroke-linejoin:round;stroke-width:4px"/><line id="20499473-a95e-4e38-b620-0b863be09b08" data-name="&lt;Path&gt;" x1="75.82" y1="77.32" x2="72.46" y2="73.96" style="fill:none;stroke:#fff;stroke-linecap:round;stroke-linejoin:round;stroke-width:4px"/><line id="d5170691-d61b-4af5-a645-57349cc25b7e" data-name="&lt;Path&gt;" x1="55.07" y1="113.48" x2="144.93" y2="113.48" style="fill:none;stroke:#fff;stroke-linecap:round;stroke-linejoin:round;stroke-width:4px"/><line id="3ae80bbe-cf0f-44be-9c73-4b3a119c5c2a" data-name="&lt;Path&gt;" x1="61.06" y1="125.46" x2="138.94" y2="125.46" style="fill:none;stroke:#fff;stroke-linecap:round;stroke-linejoin:round;stroke-width:4px"/><line id="cd4aa6b0-6e1c-4a4b-9675-ed1fd96987fd" data-name="&lt;Path&gt;" x1="73.04" y1="137.44" x2="126.96" y2="137.44" style="fill:none;stroke:#fff;stroke-linecap:round;stroke-linejoin:round;stroke-width:4px"/></g></g></g></svg>