<svg xmlns="http://www.w3.org/2000/svg" viewBox="0 0 200 200"><title>Bell</title><g id="89c1b3d8-5f4e-4f9f-9720-b7845716a651" data-name="Sky"><rect x="25.04" y="25.04" width="149.93" height="149.93" rx="14.17" ry="14.17" transform="translate(100 -41.42) rotate(45)" style="fill:#fff"/></g><g id="41f765a8-c9a9-40de-bebb-d63d94ed46e9" data-name="Icon"><g id="5d3ea147-37ef-4f84-b89f-bc0ca4bc4740" data-name="&lt;Group&gt;"><path id="a1528ece-2be9-4746-87d0-ba177294b156" data-name="&lt;Path&gt;" d="M104.17,72.24a5,5,0,0,0,.95-3,5.12,5.12,0,1,0-10.24,0,5,5,0,0,0,.95,3" style="fill:none;stroke:#00b5e2;stroke-linecap:round;stroke-linejoin:round;stroke-width:4px"/><path id="4ffcdb52-69e6-415e-9f45-aba9ec01d7ae" data-name="&lt;Path&gt;" d="M75.41,115.37l1.18-2.92a41.3,41.3,0,0,0,2.92-15.21V92.32a20.49,20.49,0,1,1,41,0v4.92a41.3,41.3,0,0,0,2.92,15.21l1.18,2.92" style="fill:none;stroke:#00b5e2;stroke-linecap:round;stroke-linejoin:round;stroke-width:4px"/><path id="5f096647-975d-4842-9489-97a5d644e1c4" data-name="&lt;Path&gt;" d="M110.24,125.61a10.24,10.24,0,0,1-20.49,0" style="fill:none;stroke:#00b5e2;stroke-linecap:round;stroke-linejoin:round;stroke-width:4px"/><path id="e54be555-fc1f-4654-9778-2192d23c3c51" data-name="&lt;Path&gt;" d="M125.61,125.61H74.39a5.12,5.12,0,0,1-5.12-5.12h0a5.12,5.12,0,0,1,5.12-5.12h51.22a5.12,5.12,0,0,1,5.12,5.12h0A5.12,5.12,0,0,1,125.61,125.61Z" style="fill:none;stroke:#00b5e2;stroke-linecap:round;stroke-linejoin:round;stroke-width:4px"/></g></g></svg>