<svg xmlns="http://www.w3.org/2000/svg" viewBox="0 0 200 200"><title>Bus</title><g id="4f22d2fc-3942-4699-8a3a-7aa8ca5049e4" data-name="Sky"><rect x="25.04" y="25.04" width="149.93" height="149.93" rx="14.17" ry="14.17" transform="translate(100 -41.42) rotate(45)" style="fill:#fff"/></g><g id="9818cc3c-6da8-45f8-92ff-8e69ddbfcd9d" data-name="Icon"><g id="efe345d7-da8b-4405-bc73-bec268d66307" data-name="&lt;Group&gt;"><path id="b84247e4-163f-4550-a7c3-1558235ecafb" data-name="&lt;Path&gt;" d="M88.85,122.31V129a2.24,2.24,0,0,1-2.23,2.23H79.92A2.24,2.24,0,0,1,77.69,129v-6.69" style="fill:none;stroke:#00b5e2;stroke-linecap:round;stroke-linejoin:round;stroke-width:4px"/><path id="ebbc2c06-bfa0-4968-a70a-eb6219e47195" data-name="&lt;Path&gt;" d="M122.31,122.31V129a2.24,2.24,0,0,1-2.23,2.23h-6.69a2.24,2.24,0,0,1-2.23-2.23v-6.69" style="fill:none;stroke:#00b5e2;stroke-linecap:round;stroke-linejoin:round;stroke-width:4px"/><rect id="e8012602-9082-4712-aed4-9c5b7c2be2ce" data-name="&lt;Rectangle&gt;" x="71" y="68.77" width="58" height="53.54" rx="2" ry="2" style="fill:none;stroke:#00b5e2;stroke-linecap:round;stroke-linejoin:round;stroke-width:4px"/><line id="4c2e008e-5305-4bd5-8deb-dfcee44ef370" data-name="&lt;Path&gt;" x1="71" y1="77.69" x2="129" y2="77.69" style="fill:none;stroke:#00b5e2;stroke-linecap:round;stroke-linejoin:round;stroke-width:4px"/><line id="4a88dc2e-6a6c-414f-b1a7-d9e7cb6cb409" data-name="&lt;Path&gt;" x1="71" y1="102.23" x2="129" y2="102.23" style="fill:none;stroke:#00b5e2;stroke-linecap:round;stroke-linejoin:round;stroke-width:4px"/><circle id="f0236048-e1b7-42be-b436-9f0356d363bd" data-name="&lt;Path&gt;" cx="83.27" cy="112.27" r="3.35" style="fill:none;stroke:#00b5e2;stroke-linecap:round;stroke-linejoin:round;stroke-width:4px"/><circle id="1faa11ef-0ead-493b-b3f0-78003f51aad5" data-name="&lt;Path&gt;" cx="116.73" cy="112.27" r="3.35" style="fill:none;stroke:#00b5e2;stroke-linecap:round;stroke-linejoin:round;stroke-width:4px"/></g></g></svg>