<svg xmlns="http://www.w3.org/2000/svg" viewBox="0 0 200 200"><title>Cocktail</title><g id="f08c0f8c-cb27-4327-9300-5d9e6e746e87" data-name="Sky"><rect x="25.04" y="25.04" width="149.93" height="149.93" rx="14.17" ry="14.17" transform="translate(100 -41.42) rotate(45)" style="fill:#fff"/></g><g id="dd0d906e-b73b-40e3-b925-da403d05dba4" data-name="Icon"><g id="93e36794-cdc1-4d12-83ec-f1a4546f7ba1" data-name="&lt;Group&gt;"><polyline id="22ca39a2-706d-484a-ab12-ec00597c2515" data-name="&lt;Path&gt;" points="67.89 76 82.63 81.9 82.63 99.59" style="fill:none;stroke:#00b5e2;stroke-linecap:round;stroke-linejoin:round;stroke-width:4px"/><path id="5ecf344c-a86e-425b-bc00-966bafc68e8d" data-name="&lt;Path&gt;" d="M132.11,84.75c-12,1-25.68-7-30.67-17.88l25.14-7.75Z" style="fill:none;stroke:#00b5e2;stroke-linecap:round;stroke-linejoin:round;stroke-width:4px"/><line id="a05cfdcf-9a38-4de3-9fc6-e1a52e132f65" data-name="&lt;Path&gt;" x1="113.56" y1="79.89" x2="101.24" y2="99.59" style="fill:none;stroke:#00b5e2;stroke-linecap:round;stroke-linejoin:round;stroke-width:4px"/><path id="9b4284cd-3aac-4e2d-a31c-fa61ecc4ad3f" data-name="&lt;Path&gt;" d="M122.64,99.59l-4.51,7.25-6.28-7.25H72a34.8,34.8,0,0,0-1.12,8.85c0,17.93,13.21,32.44,29.49,32.44s29.49-14.51,29.49-32.44a34.8,34.8,0,0,0-1.12-8.85Z" style="fill:none;stroke:#00b5e2;stroke-linecap:round;stroke-linejoin:round;stroke-width:4px"/></g></g></svg>