<svg xmlns="http://www.w3.org/2000/svg" viewBox="0 0 200 200"><title>Cutlery</title><g id="49cbdebe-3671-4ab4-a531-6ba5f3d76d52" data-name="Sky"><rect x="25.04" y="25.04" width="149.93" height="149.93" rx="14.17" ry="14.17" transform="translate(100 -41.42) rotate(45)" style="fill:#fff"/></g><g id="afa53ec9-c017-475e-b17f-a620edb5c262" data-name="Icon"><g id="beedbbbb-2e6e-4988-a14e-d3ff0898958d" data-name="&lt;Group&gt;"><g id="7d40df4e-150d-4073-b4ee-ba6f48ec3822" data-name="&lt;Group&gt;"><line id="594a92fd-21c5-43b8-b336-3415a862f1b1" data-name="&lt;Path&gt;" x1="84.28" y1="62" x2="84.28" y2="80.34" style="fill:none;stroke:#00b5e2;stroke-linecap:round;stroke-linejoin:round;stroke-width:4px"/><path id="2c4296f0-6e95-462e-8402-f02fa05c3014" data-name="&lt;Path&gt;" d="M71.17,62V80.34A13.16,13.16,0,0,0,75,89.62a13.45,13.45,0,0,0,4,2.75v40.38A5.24,5.24,0,0,0,84.28,138h0a5.24,5.24,0,0,0,5.24-5.24V92.37a13.18,13.18,0,0,0,7.86-12V62" style="fill:none;stroke:#00b5e2;stroke-linecap:round;stroke-linejoin:round;stroke-width:4px"/></g><path id="e0480e4d-299b-4cd5-8362-59412e76fc4a" data-name="&lt;Path&gt;" d="M118.34,103.93l-2.1,27.29a6.3,6.3,0,0,0,6.28,6.78h0a6.3,6.3,0,0,0,6.3-6.3V64.62A15.74,15.74,0,0,0,113.1,80.34v23.59Z" style="fill:none;stroke:#00b5e2;stroke-linecap:round;stroke-linejoin:round;stroke-width:4px"/></g></g></svg>