<svg xmlns="http://www.w3.org/2000/svg" viewBox="0 0 200 200"><title>Design</title><g id="1337fe09-3523-4af3-b6bc-954d73c990af" data-name="Sky"><rect x="25.04" y="25.04" width="149.93" height="149.93" rx="14.17" ry="14.17" transform="translate(100 -41.42) rotate(45)" style="fill:#fff"/></g><g id="4c56efdf-18c0-4926-b56a-ce9830e563e7" data-name="Icon"><g id="17b98f0e-08de-4539-b4aa-00c2b901f84d" data-name="&lt;Group&gt;"><polyline id="6ab3f11b-3e8e-4336-84ec-6523fc6ae182" data-name="&lt;Path&gt;" points="113.91 103.15 131.79 121.03 135.37 135.37 121.03 131.79 103.13 113.89" style="fill:none;stroke:#00b5e2;stroke-linecap:round;stroke-linejoin:round;stroke-width:4px"/><path id="ea0ebe9c-04f2-4556-b5c4-cacbf15d648f" data-name="&lt;Path&gt;" d="M87.07,97.83,65.38,76.13a2.52,2.52,0,0,1,0-3.59L69,69l3.59-3.59a2.52,2.52,0,0,1,3.59,0L97.85,87.1" style="fill:none;stroke:#00b5e2;stroke-linecap:round;stroke-linejoin:round;stroke-width:4px"/><line id="ce1ee639-9436-49f0-b893-0fcff779a706" data-name="&lt;Path&gt;" x1="131.78" y1="121.03" x2="121.03" y2="131.78" style="fill:none;stroke:#00b5e2;stroke-linecap:round;stroke-linejoin:round;stroke-width:4px"/><line id="d8488fa4-28bc-49cb-9bff-23e9e984024d" data-name="&lt;Path&gt;" x1="85.35" y1="74.6" x2="74.55" y2="85.3" style="fill:none;stroke:#00b5e2;stroke-linecap:round;stroke-linejoin:round;stroke-width:4px"/><g id="91aea45a-e360-40ef-b95b-41b364ef3e42" data-name="&lt;Group&gt;"><rect id="e3bad4e4-f7ea-416b-8423-c596e7ddc73b" data-name="&lt;Path&gt;" x="62.64" y="89.13" width="75.7" height="22.71" transform="translate(-41.62 100.48) rotate(-45)" style="fill:none;stroke:#00b5e2;stroke-linecap:round;stroke-linejoin:round;stroke-width:4px"/><line id="8ed4c240-e467-4ddb-b099-fdc6db6c77b0" data-name="&lt;Path&gt;" x1="74.61" y1="110.3" x2="79.97" y2="115.66" style="fill:none;stroke:#00b5e2;stroke-linecap:round;stroke-linejoin:round;stroke-width:4px"/><line id="c6a20476-3ed6-49e5-8ed8-fed9cc757944" data-name="&lt;Path&gt;" x1="83.54" y1="101.38" x2="90.68" y2="108.52" style="fill:none;stroke:#00b5e2;stroke-linecap:round;stroke-linejoin:round;stroke-width:4px"/><line id="43362522-5a55-46cc-b907-a53b9acd460d" data-name="&lt;Path&gt;" x1="92.46" y1="92.46" x2="97.81" y2="97.81" style="fill:none;stroke:#00b5e2;stroke-linecap:round;stroke-linejoin:round;stroke-width:4px"/><line id="f9d0ce47-523b-4287-ba71-2b936c4ef834" data-name="&lt;Path&gt;" x1="101.38" y1="83.54" x2="108.52" y2="90.68" style="fill:none;stroke:#00b5e2;stroke-linecap:round;stroke-linejoin:round;stroke-width:4px"/><line id="21a3e80b-20e8-4eae-85fa-56af6564007c" data-name="&lt;Path&gt;" x1="110.3" y1="74.62" x2="115.66" y2="79.97" style="fill:none;stroke:#00b5e2;stroke-linecap:round;stroke-linejoin:round;stroke-width:4px"/></g></g></g></svg>