<svg xmlns="http://www.w3.org/2000/svg" viewBox="0 0 200 200"><title>Diamond</title><g id="de9464cc-0819-453f-8f64-5e905a4cc709" data-name="Sky"><rect x="25.04" y="25.04" width="149.93" height="149.93" rx="14.17" ry="14.17" transform="translate(100 -41.42) rotate(45)" style="fill:#fff"/></g><g id="521c3b6f-cdb8-41d3-bb72-43611cd2a547" data-name="Icon"><g id="5d857f29-4cfd-4995-8dc5-d8793579bca2" data-name="&lt;Group&gt;"><polygon id="b93a51c4-0fd8-44ce-a79e-dcec59ecb68d" data-name="&lt;Path&gt;" points="101 144.31 62 98.04 75.96 77.69 101 77.69 126.04 77.69 140 98.04 101 144.31" style="fill:none;stroke:#00b5e2;stroke-linecap:round;stroke-linejoin:round;stroke-width:4px"/><polyline id="95a19b17-b17d-49a9-80cb-dff6998dffa7" data-name="&lt;Path&gt;" points="62 98.04 71.75 98.04 81.5 98.04 91.25 98.04 101 98.04 110.75 98.04 120.5 98.04 130.25 98.04 140 98.04" style="fill:none;stroke:#00b5e2;stroke-linecap:round;stroke-linejoin:round;stroke-width:4px"/><line id="3d9c70ec-5b3c-4dd4-b21f-df28e7fd538b" data-name="&lt;Path&gt;" x1="113.58" y1="98.04" x2="101" y2="77.69" style="fill:none;stroke:#00b5e2;stroke-linecap:round;stroke-linejoin:round;stroke-width:4px"/><line id="472846d7-6c12-4952-8c5c-331398b42bf6" data-name="&lt;Path&gt;" x1="101" y1="77.69" x2="88.42" y2="98.04" style="fill:none;stroke:#00b5e2;stroke-linecap:round;stroke-linejoin:round;stroke-width:4px"/><polyline id="1ce62c82-0abe-4c31-90a6-32d14a87481d" data-name="&lt;Path&gt;" points="101 144.31 88.42 98.04 75.96 77.69" style="fill:none;stroke:#00b5e2;stroke-linecap:round;stroke-linejoin:round;stroke-width:4px"/><polyline id="e8eb1fb5-621c-450b-83f7-ec972d60f6d6" data-name="&lt;Path&gt;" points="101 144.31 113.58 98.04 126.04 77.69" style="fill:none;stroke:#00b5e2;stroke-linecap:round;stroke-linejoin:round;stroke-width:4px"/></g></g></svg>