<svg xmlns="http://www.w3.org/2000/svg" viewBox="0 0 200 200"><title>Direction</title><g id="753fd2b5-bab1-4d60-9771-74bcdacdd297" data-name="Sky"><rect x="25.04" y="25.04" width="149.93" height="149.93" rx="14.17" ry="14.17" transform="translate(100 -41.42) rotate(45)" style="fill:#fff"/></g><g id="d601d989-1fa3-430c-92c7-9ffaef873378" data-name="Icon"><g id="2e1b4bff-5557-480a-955e-c9d37401dd5c" data-name="&lt;Group&gt;"><path id="a3e2f26a-10ea-451f-83d3-363e1524aee0" data-name="&lt;Path&gt;" d="M93.84,73.2V67A6.16,6.16,0,0,1,100,60.88h0A6.16,6.16,0,0,1,106.16,67V73.2" style="fill:none;stroke:#00b5e2;stroke-linecap:round;stroke-linejoin:round;stroke-width:4px"/><line id="18cb0118-2b9a-41be-ab7a-ce031d9f3d41" data-name="&lt;Path&gt;" x1="106.16" y1="104" x2="106.16" y2="91.68" style="fill:none;stroke:#00b5e2;stroke-linecap:round;stroke-linejoin:round;stroke-width:4px"/><line id="dfa04b63-94ea-4c47-a92c-2d1824b45d6c" data-name="&lt;Path&gt;" x1="106.16" y1="147.12" x2="106.16" y2="122.48" style="fill:none;stroke:#00b5e2;stroke-linecap:round;stroke-linejoin:round;stroke-width:4px"/><line id="037bf0de-91d4-44cf-a53b-a85f7589985a" data-name="&lt;Path&gt;" x1="93.84" y1="104" x2="93.84" y2="91.68" style="fill:none;stroke:#00b5e2;stroke-linecap:round;stroke-linejoin:round;stroke-width:4px"/><line id="bf627c47-c19f-4732-881c-acf7ce4fb097" data-name="&lt;Path&gt;" x1="93.84" y1="147.12" x2="93.84" y2="122.48" style="fill:none;stroke:#00b5e2;stroke-linecap:round;stroke-linejoin:round;stroke-width:4px"/><polygon id="10a1f34a-1fd8-41f0-a351-9f5144c1e1e2" data-name="&lt;Path&gt;" points="122.97 91.68 94.34 91.68 65.72 91.68 71.92 82.44 65.72 73.2 94.34 73.2 122.97 73.2 128.98 77.82 135 82.44 128.98 87.06 122.97 91.68" style="fill:none;stroke:#00b5e2;stroke-linecap:round;stroke-linejoin:round;stroke-width:4px"/><polygon id="3d112d3e-654e-4437-9567-dc6ab1ca2a21" data-name="&lt;Path&gt;" points="77.03 104 105.66 104 134.29 104 128.09 113.24 134.29 122.48 105.66 122.48 77.03 122.48 71.02 117.86 65 113.24 71.02 108.62 77.03 104" style="fill:none;stroke:#00b5e2;stroke-linecap:round;stroke-linejoin:round;stroke-width:4px"/><line id="0c89445c-171a-491f-b4a8-1a627e954dba" data-name="&lt;Path&gt;" x1="84.6" y1="147.12" x2="115.4" y2="147.12" style="fill:none;stroke:#00b5e2;stroke-linecap:round;stroke-linejoin:round;stroke-width:4px"/></g></g></svg>