<svg xmlns="http://www.w3.org/2000/svg" viewBox="0 0 200 200"><title>DoNotDisturb</title><g id="b5e800b5-0bbe-4e78-9758-b92cf0dd8ea5" data-name="Sky"><rect x="25.04" y="25.04" width="149.93" height="149.93" rx="14.17" ry="14.17" transform="translate(100 -41.42) rotate(45)" style="fill:#fff"/></g><g id="8a6ea1f3-ada2-48de-8c29-14ae3a714248" data-name="Icon"><g id="779ea64d-ebe0-4f7b-8695-6646021fc992" data-name="&lt;Group&gt;"><path id="2019a200-3a53-4aeb-bae2-fad5ec4c14b7" data-name="&lt;Path&gt;" d="M120,80v60H80V105l24.07-16.18a10.17,10.17,0,0,0,4.5-8.44h0a8.83,8.83,0,0,0-6.84-8.78A8.59,8.59,0,0,0,91.43,80v2.86H80v-2C80,69.47,89.3,59.65,100.65,60A20,20,0,0,1,120,80Z" style="fill:none;stroke:#00b5e2;stroke-linecap:round;stroke-linejoin:round;stroke-width:4px"/><path id="780dd3dd-9a19-4071-8c7d-0cc305c0869f" data-name="&lt;Path&gt;" d="M111.43,120a11.43,11.43,0,1,1-3.35-8.08A11.39,11.39,0,0,1,111.43,120Z" style="fill:none;stroke:#00b5e2;stroke-linecap:round;stroke-linejoin:round;stroke-width:4px"/><line id="eef64c2e-a057-471f-b5ca-0849fb59b088" data-name="&lt;Path&gt;" x1="108.08" y1="111.92" x2="91.92" y2="128.08" style="fill:none;stroke:#00b5e2;stroke-linecap:round;stroke-linejoin:round;stroke-width:4px"/></g></g></svg>