<svg xmlns="http://www.w3.org/2000/svg" viewBox="0 0 200 200"><title>Fire</title><g id="b409c0c9-95b1-443d-b365-cb6063358335" data-name="Sky"><rect x="25.04" y="25.04" width="149.93" height="149.93" rx="14.17" ry="14.17" transform="translate(100 -41.42) rotate(45)" style="fill:#fff"/></g><g id="036c2792-7cf3-485c-85f4-6de111d7712a" data-name="Icon"><g id="193b7bd3-375d-4acd-adff-5483dcd06817" data-name="&lt;Group&gt;"><path id="5b803deb-d410-4875-a928-540b22e9c02b" data-name="&lt;Path&gt;" d="M95.54,64.14c0,6.22-.14,12.25-3.14,17.8C89.68,87,85.28,90.55,81.9,95a24.86,24.86,0,0,0-4.49,10.28C75.06,117.56,82,130,92.67,134.39c9.77,4,21.91-.47,27.27-10.15,4.18-7.55,4.08-18,.08-25.64a28.32,28.32,0,0,0-3.4-5.05s-2.43,8.31-9.34,8.1a36.76,36.76,0,0,0-.37-21.51A31.54,31.54,0,0,0,95.54,64.14Z" style="fill:none;stroke:#00b5e2;stroke-linecap:round;stroke-linejoin:round;stroke-width:4px"/></g></g></svg>