<svg xmlns="http://www.w3.org/2000/svg" viewBox="0 0 200 200"><title>Gift</title><g id="67dd0fef-92df-4e4f-ab95-bbb27202db94" data-name="Sky"><rect x="25.04" y="25.04" width="149.93" height="149.93" rx="14.17" ry="14.17" transform="translate(100 -41.42) rotate(45)" style="fill:#fff"/></g><g id="a75ec0b5-1b90-4288-bb3b-0968c4336161" data-name="Icon"><g id="951db2a6-cde6-4438-a0d1-8dd15b20ce50" data-name="&lt;Group&gt;"><line id="d055bed2-f946-4067-a367-88810d8c57ec" data-name="&lt;Path&gt;" x1="94.29" y1="98.62" x2="94.29" y2="140" style="fill:none;stroke:#00b5e2;stroke-linecap:round;stroke-linejoin:round;stroke-width:4px"/><line id="939a416c-2427-4847-aa93-5d3747e0e473" data-name="&lt;Path&gt;" x1="105.71" y1="98.62" x2="105.71" y2="140" style="fill:none;stroke:#00b5e2;stroke-linecap:round;stroke-linejoin:round;stroke-width:4px"/><path id="a1e6eeb4-cd76-420f-b517-9c2ff6938da2" data-name="&lt;Path&gt;" d="M108.63,80c3.34-1,9.54-3.89,12.54-8.17a8.25,8.25,0,0,0,1.37-7.14A6.52,6.52,0,0,0,115.66,60c-8.29.71-14.17,10.69-15.4,20" style="fill:none;stroke:#00b5e2;stroke-linecap:round;stroke-linejoin:round;stroke-width:4px"/><path id="64ccdfcd-650f-4abd-bb61-6c34f94992c2" data-name="&lt;Path&gt;" d="M91.6,80c-2.51-1.06-5.74-2.91-7.49-5.4a6.21,6.21,0,0,1-1-5.37,4.92,4.92,0,0,1,5.17-3.49c6,.49,10.31,7.49,11.46,14.26" style="fill:none;stroke:#00b5e2;stroke-linecap:round;stroke-linejoin:round;stroke-width:4px"/><rect id="c425ce1f-ce18-4a9a-b161-137c842f7dee" data-name="&lt;Rectangle&gt;" x="60" y="80" width="80" height="17.14" style="fill:none;stroke:#00b5e2;stroke-linecap:round;stroke-linejoin:round;stroke-width:4px"/><polyline id="b09398ef-e8b7-4060-ad97-f4386a2b0e06" data-name="&lt;Path&gt;" points="134.29 97.14 134.29 140 65.71 140 65.71 97.14" style="fill:none;stroke:#00b5e2;stroke-linecap:round;stroke-linejoin:round;stroke-width:4px"/></g></g></svg>