<svg xmlns="http://www.w3.org/2000/svg" viewBox="0 0 200 200"><title>Glasses</title><g id="dded7f5b-1d67-47e7-b7c3-f0be44fbfd95" data-name="Sky"><rect x="25.04" y="25.04" width="149.93" height="149.93" rx="14.17" ry="14.17" transform="translate(100 -41.42) rotate(45)" style="fill:#fff"/></g><g id="1cd89adf-16f7-48ce-842c-9fc544aa5763" data-name="Icon"><g id="c4dd77f0-0fe5-4465-9966-50e4e1103c22" data-name="&lt;Group&gt;"><path id="c90df662-7c0d-488d-a7ef-328a8ec5db13" data-name="&lt;Path&gt;" d="M87.19,71.83h-2.3a7.68,7.68,0,0,0-7.22,5.06L69.27,100" style="fill:none;stroke:#00b5e2;stroke-linecap:round;stroke-linejoin:round;stroke-width:4px"/><path id="7f4edf59-485f-42ae-8b65-a41602c53b70" data-name="&lt;Path&gt;" d="M112.81,71.83h2.3a7.68,7.68,0,0,1,7.22,5.06L130.73,100" style="fill:none;stroke:#00b5e2;stroke-linecap:round;stroke-linejoin:round;stroke-width:4px"/><path id="6e8dd8d7-520b-41bb-96e1-6ca194dff675" data-name="&lt;Rectangle&gt;" d="M66.14,100H92.88a2,2,0,0,1,2,2v18.17a8,8,0,0,1-8,8H66.14a2,2,0,0,1-2-2V102A2,2,0,0,1,66.14,100Z" style="fill:none;stroke:#00b5e2;stroke-linecap:round;stroke-linejoin:round;stroke-width:4px"/><path id="f564ba61-35d5-4bca-be46-739cf761eab0" data-name="&lt;Rectangle&gt;" d="M107.12,100h26.73a2,2,0,0,1,2,2v24.17a2,2,0,0,1-2,2H113.12a8,8,0,0,1-8-8V102A2,2,0,0,1,107.12,100Z" style="fill:none;stroke:#00b5e2;stroke-linecap:round;stroke-linejoin:round;stroke-width:4px"/><line id="0e5dfcfe-80d7-4e3e-b684-90b2ca6821c2" data-name="&lt;Path&gt;" x1="105.28" y1="110.24" x2="94.72" y2="110.24" style="fill:none;stroke:#00b5e2;stroke-linecap:round;stroke-linejoin:round;stroke-width:4px"/></g></g></svg>