<svg xmlns="http://www.w3.org/2000/svg" viewBox="0 0 200 200"><title>Global</title><g id="87acb433-89de-4eba-9490-29e6ffa6279d" data-name="Sky"><rect x="25.04" y="25.04" width="149.93" height="149.93" rx="14.17" ry="14.17" transform="translate(100 -41.42) rotate(45)" style="fill:#fff"/></g><g id="ad121fa0-811c-4dd9-894d-7c1f8a080276" data-name="Icon"><g id="5a1dfbee-37b6-4128-8813-ed1006ebaded" data-name="&lt;Group&gt;"><line id="a87b4e15-d771-49ef-93e0-885e80c1ad4d" data-name="&lt;Path&gt;" x1="100" y1="60" x2="100" y2="140" style="fill:none;stroke:#00b5e2;stroke-linecap:round;stroke-linejoin:round;stroke-width:4px"/><line id="9fd3395d-d3e5-4522-8dc3-801f8104d70f" data-name="&lt;Path&gt;" x1="60" y1="100" x2="140" y2="100" style="fill:none;stroke:#00b5e2;stroke-linecap:round;stroke-linejoin:round;stroke-width:4px"/><path id="c74940e3-1568-4a4b-a413-a7a7078fe0ae" data-name="&lt;Path&gt;" d="M109.2,138.94l0,0a62.3,62.3,0,0,0,0-77.83l0,0" style="fill:none;stroke:#00b5e2;stroke-linecap:round;stroke-linejoin:round;stroke-width:4px"/><path id="c5f425b5-6acf-4aa6-b8d8-fb57d59a59d7" data-name="&lt;Path&gt;" d="M90.8,138.94l0,0a62.3,62.3,0,0,1,0-77.83l0,0" style="fill:none;stroke:#00b5e2;stroke-linecap:round;stroke-linejoin:round;stroke-width:4px"/><path id="3569dc58-fd54-4963-b8dc-dcb6d30fb0b0" data-name="&lt;Path&gt;" d="M129.23,72.71a62.32,62.32,0,0,1-58.46,0" style="fill:none;stroke:#00b5e2;stroke-linecap:round;stroke-linejoin:round;stroke-width:4px"/><path id="a5c9e24d-d9b6-4c0e-ad2f-2a3e992975d0" data-name="&lt;Path&gt;" d="M70.77,127.29a62.32,62.32,0,0,1,58.46,0" style="fill:none;stroke:#00b5e2;stroke-linecap:round;stroke-linejoin:round;stroke-width:4px"/><circle id="acb28f97-d767-4a32-b616-1b5d0956bcd1" data-name="&lt;Path&gt;" cx="100" cy="100" r="40" style="fill:none;stroke:#00b5e2;stroke-linecap:round;stroke-linejoin:round;stroke-width:4px"/></g></g></svg>