<svg xmlns="http://www.w3.org/2000/svg" viewBox="0 0 200 200"><title>Lightbulb</title><g id="ff2f53e3-ea71-4b09-bce7-3fcc2601f9b8" data-name="Sky"><rect x="25.04" y="25.04" width="149.93" height="149.93" rx="14.17" ry="14.17" transform="translate(100 -41.42) rotate(45)" style="fill:#fff"/></g><g id="d0edc376-a7cc-4612-8234-a667b314862a" data-name="Icon"><g id="aebb2b44-9154-4b76-92a2-2a3acb44908c" data-name="&lt;Group&gt;"><line id="af9adb02-8103-4127-9229-b2eacc4ed0d6" data-name="&lt;Path&gt;" x1="100" y1="127" x2="100" y2="103" style="fill:none;stroke:#00b5e2;stroke-linecap:round;stroke-linejoin:round;stroke-width:4px"/><path id="8cf0cf8a-bdfe-4062-8058-10ea94d1b4f4" data-name="&lt;Path&gt;" d="M88,136.35V139a3,3,0,0,0,3,3h18a3,3,0,0,0,3-3v-2.65a30,30,0,0,1,2.57-12.16l1.44-3.24a141.64,141.64,0,0,1,9.49-17.15,30,30,0,1,0-51,0A141.64,141.64,0,0,1,84,120.95l1.44,3.24A30,30,0,0,1,88,136.35Z" style="fill:none;stroke:#00b5e2;stroke-linecap:round;stroke-linejoin:round;stroke-width:4px"/><line id="34344f3c-b696-466b-b892-e80957b204e0" data-name="&lt;Path&gt;" x1="87.31" y1="127" x2="112.69" y2="127" style="fill:none;stroke:#00b5e2;stroke-linecap:round;stroke-linejoin:round;stroke-width:4px"/><polyline id="ddf30031-70c2-4d93-8c03-6484b64a1a15" data-name="&lt;Path&gt;" points="84.06 91.92 89.36 96.38 94.68 91.92 99.98 96.38 105.3 91.92 110.62 96.38 115.94 91.92" style="fill:none;stroke:#00b5e2;stroke-linecap:round;stroke-linejoin:round;stroke-width:4px"/></g></g></svg>