<svg xmlns="http://www.w3.org/2000/svg" viewBox="0 0 200 200"><title>Luggage</title><g id="1a1ccf6e-8cf7-431e-92d7-ee382640aae0" data-name="Sky"><rect x="25.04" y="25.04" width="149.93" height="149.93" rx="14.17" ry="14.17" transform="translate(100 -41.42) rotate(45)" style="fill:#fff"/></g><g id="9e8793fa-65f3-49ff-a7c4-ba49f9683c5c" data-name="Icon"><g id="f8005996-8ddc-4d52-ab3b-0b5933fea7fc" data-name="&lt;Group&gt;"><path id="e08beab6-1bde-40db-9ba2-f0e326130834" data-name="&lt;Path&gt;" d="M62,71.19l5.95,5.95v36.32a5.19,5.19,0,0,0,5.19,5.19H138" style="fill:none;stroke:#00b5e2;stroke-linecap:round;stroke-linejoin:round;stroke-width:4px"/><circle id="be433222-524e-4d9f-8a3d-152186c0517d" data-name="&lt;Path&gt;" cx="125.03" cy="131.62" r="5.19" style="fill:none;stroke:#00b5e2;stroke-linecap:round;stroke-linejoin:round;stroke-width:4px"/><circle id="8164d029-f6a4-4f55-ad73-67d43f4ccc08" data-name="&lt;Path&gt;" cx="78.33" cy="131.62" r="5.19" style="fill:none;stroke:#00b5e2;stroke-linecap:round;stroke-linejoin:round;stroke-width:4px"/><rect id="530bc114-ded0-4058-bbbb-0152dd1c5974" data-name="&lt;Rectangle&gt;" x="80.92" y="79.73" width="46.7" height="31.13" rx="1" ry="1" style="fill:none;stroke:#00b5e2;stroke-linecap:round;stroke-linejoin:round;stroke-width:4px"/><path id="e4bf4b74-e8af-48de-8dab-0e162b1adbd2" data-name="&lt;Path&gt;" d="M112.06,79.73V74.54a2.59,2.59,0,0,0-2.59-2.59H99.08a2.59,2.59,0,0,0-2.59,2.59v5.19" style="fill:none;stroke:#00b5e2;stroke-linecap:round;stroke-linejoin:round;stroke-width:4px"/><line id="8825398b-af11-4209-834c-b9cd5db17edc" data-name="&lt;Path&gt;" x1="91.3" y1="79.73" x2="91.3" y2="110.87" style="fill:none;stroke:#00b5e2;stroke-linecap:round;stroke-linejoin:round;stroke-width:4px"/><line id="8456bf3e-2c7b-4750-a667-c3e6a8451b8d" data-name="&lt;Path&gt;" x1="117.24" y1="79.73" x2="117.24" y2="110.87" style="fill:none;stroke:#00b5e2;stroke-linecap:round;stroke-linejoin:round;stroke-width:4px"/></g></g></svg>