<svg xmlns="http://www.w3.org/2000/svg" viewBox="0 0 200 200"><title>Meeting</title><g id="c5d3020b-4d04-459c-ae19-4a65c020be71" data-name="Sky"><rect x="25.04" y="25.04" width="149.93" height="149.93" rx="14.17" ry="14.17" transform="translate(100 -41.42) rotate(45)" style="fill:#fff"/></g><g id="8a6589f3-7633-4227-bbea-1b854d6d5fbc" data-name="Icon"><g id="09fc36e9-f514-49e1-a2a4-5d31ab86613a" data-name="&lt;Group&gt;"><circle id="6643b88b-41b6-4279-ac0a-02a26d49c181" data-name="&lt;Path&gt;" cx="64.64" cy="88.75" r="9.64" style="fill:none;stroke:#00b5e2;stroke-linecap:round;stroke-linejoin:round;stroke-width:4px"/><circle id="ebcc5d2a-641d-41d6-9d27-f2da203cb86c" data-name="&lt;Path&gt;" cx="100" cy="69.46" r="9.64" style="fill:none;stroke:#00b5e2;stroke-linecap:round;stroke-linejoin:round;stroke-width:4px"/><circle id="9158b98b-1673-479f-8fa4-637f54f55616" data-name="&lt;Path&gt;" cx="135.36" cy="88.75" r="9.64" style="fill:none;stroke:#00b5e2;stroke-linecap:round;stroke-linejoin:round;stroke-width:4px"/><path id="bea0e55f-b18b-49a6-bb13-4a38a90fedc0" data-name="&lt;Path&gt;" d="M87.14,98.39V88.75a6.43,6.43,0,0,1,6.43-6.43h12.86a6.43,6.43,0,0,1,6.43,6.43v9.64" style="fill:none;stroke:#00b5e2;stroke-linecap:round;stroke-linejoin:round;stroke-width:4px"/><path id="8c7b21d8-b712-4b8c-a121-90f861962846" data-name="&lt;Path&gt;" d="M80.71,140.18V124.11a3.21,3.21,0,0,0-3.21-3.21H67.86a3.21,3.21,0,0,1-3.21-3.21V98.39" style="fill:none;stroke:#00b5e2;stroke-linecap:round;stroke-linejoin:round;stroke-width:4px"/><path id="16b4b5e9-7619-4808-914b-36ffa7b11530" data-name="&lt;Path&gt;" d="M119.29,140.18V124.11a3.21,3.21,0,0,1,3.21-3.21h9.64a3.21,3.21,0,0,0,3.21-3.21V98.39" style="fill:none;stroke:#00b5e2;stroke-linecap:round;stroke-linejoin:round;stroke-width:4px"/><line id="6c3ae605-6cc2-436b-aaf2-0b1d7e4ea5b7" data-name="&lt;Path&gt;" x1="74.29" y1="108.04" x2="125.71" y2="108.04" style="fill:none;stroke:#00b5e2;stroke-linecap:round;stroke-linejoin:round;stroke-width:4px"/><line id="58a9e1e8-8ad1-4a22-9437-c8419c28220a" data-name="&lt;Path&gt;" x1="100" y1="108.04" x2="100" y2="140.18" style="fill:none;stroke:#00b5e2;stroke-linecap:round;stroke-linejoin:round;stroke-width:4px"/></g></g></svg>