<svg xmlns="http://www.w3.org/2000/svg" viewBox="0 0 200 200"><title>Megaphone</title><g id="82206fa6-f814-41cb-97a3-b927818ab4fa" data-name="Sky"><rect x="25.04" y="25.04" width="149.93" height="149.93" rx="14.17" ry="14.17" transform="translate(100 -41.42) rotate(45)" style="fill:#fff"/></g><g id="2a7df67e-5a6e-4346-a044-6025c7a604d4" data-name="Icon"><g id="2bd82891-81b9-4fe1-9898-36b6f9d2b4cf" data-name="&lt;Group&gt;"><path id="58b6ba50-eef0-437c-b1d6-ff1ad7744256" data-name="&lt;Path&gt;" d="M85.12,102l5.71,22.85a6.34,6.34,0,0,1-12.09,3.76L68.75,102" style="fill:none;stroke:#00b5e2;stroke-linecap:round;stroke-linejoin:round;stroke-width:4px"/><path id="034730db-fc98-4dca-b03d-198a27ac4a12" data-name="&lt;Path&gt;" d="M91,102H65.42a2.56,2.56,0,0,1-2.56-2.56V84a2.56,2.56,0,0,1,2.56-2.56H91" style="fill:none;stroke:#00b5e2;stroke-linecap:round;stroke-linejoin:round;stroke-width:4px"/><polygon id="1c86e054-a2a3-4f69-995b-992c215526c6" data-name="&lt;Path&gt;" points="121.77 116.14 91.04 101.89 91.04 81.55 121.77 67.31 121.77 116.14" style="fill:none;stroke:#00b5e2;stroke-linecap:round;stroke-linejoin:round;stroke-width:4px"/><line id="c120c7de-6092-4c0a-94a7-616abe4c99a7" data-name="&lt;Path&gt;" x1="129.45" y1="91.71" x2="137.14" y2="91.71" style="fill:none;stroke:#00b5e2;stroke-linecap:round;stroke-linejoin:round;stroke-width:4px"/><line id="472cb7e0-0c88-495a-906a-cd71bef94d1a" data-name="&lt;Path&gt;" x1="129.45" y1="81.47" x2="137.14" y2="81.47" style="fill:none;stroke:#00b5e2;stroke-linecap:round;stroke-linejoin:round;stroke-width:4px"/><line id="c79e9195-b0a8-432c-97bd-4e9f5bbca1f9" data-name="&lt;Path&gt;" x1="129.45" y1="101.96" x2="137.14" y2="101.96" style="fill:none;stroke:#00b5e2;stroke-linecap:round;stroke-linejoin:round;stroke-width:4px"/></g></g></svg>