<svg xmlns="http://www.w3.org/2000/svg" viewBox="0 0 200 200"><title>Money</title><g id="59116d9a-c860-4ddf-920a-ef934342c2ae" data-name="Sky"><rect x="25.04" y="25.04" width="149.93" height="149.93" rx="14.17" ry="14.17" transform="translate(100 -41.42) rotate(45)" style="fill:#fff"/></g><g id="73aa7a9c-963e-4cbe-8d15-37e90ef356c2" data-name="Icon"><g id="cce4d3e0-e2a4-4af4-837e-48887057100b" data-name="&lt;Group&gt;"><rect id="f08117db-a82d-4698-954b-f4274bdeb4ea" data-name="&lt;Rectangle&gt;" x="59.75" y="77" width="80.5" height="46" style="fill:none;stroke:#00b5e2;stroke-linecap:round;stroke-linejoin:round;stroke-width:4px"/><ellipse id="99d6ffc6-4f13-40a2-97a0-7113da6296b4" data-name="&lt;Path&gt;" cx="100" cy="100" rx="8.63" ry="11.5" style="fill:none;stroke:#00b5e2;stroke-linecap:round;stroke-linejoin:round;stroke-width:4px"/><path id="421477b0-e80e-4f78-a421-3886785d6564" data-name="&lt;Path&gt;" d="M74.13,77A14.37,14.37,0,0,1,59.75,91.38" style="fill:none;stroke:#00b5e2;stroke-linecap:round;stroke-linejoin:round;stroke-width:4px"/><path id="ad680daa-08b3-4148-a958-4dfc1f6230a4" data-name="&lt;Path&gt;" d="M140.25,91.38A14.37,14.37,0,0,1,125.88,77" style="fill:none;stroke:#00b5e2;stroke-linecap:round;stroke-linejoin:round;stroke-width:4px"/><path id="6b86b54e-d70f-4b5c-944c-4481bd429995" data-name="&lt;Path&gt;" d="M125.88,123a14.37,14.37,0,0,1,14.38-14.37" style="fill:none;stroke:#00b5e2;stroke-linecap:round;stroke-linejoin:round;stroke-width:4px"/><path id="a69c7557-2b29-488d-b641-78c475f1687f" data-name="&lt;Path&gt;" d="M59.75,108.63A14.37,14.37,0,0,1,74.13,123" style="fill:none;stroke:#00b5e2;stroke-linecap:round;stroke-linejoin:round;stroke-width:4px"/><line id="12307fd4-5b83-4cc1-8a47-69f923409bcb" data-name="&lt;Path&gt;" x1="77" y1="100" x2="82.75" y2="100" style="fill:none;stroke:#00b5e2;stroke-linecap:round;stroke-linejoin:round;stroke-width:4px"/><line id="88bfd50f-b426-4771-829d-6ad965965ebc" data-name="&lt;Path&gt;" x1="117.25" y1="100" x2="123" y2="100" style="fill:none;stroke:#00b5e2;stroke-linecap:round;stroke-linejoin:round;stroke-width:4px"/></g></g></svg>