<svg xmlns="http://www.w3.org/2000/svg" viewBox="0 0 200 200"><title>Pestle</title><g id="ecdd0407-ea2c-4630-aa29-8a787be8bee8" data-name="Sky"><rect x="25.04" y="25.04" width="149.93" height="149.93" rx="14.17" ry="14.17" transform="translate(100 -41.42) rotate(45)" style="fill:#fff"/></g><g id="3bc4308b-8fd0-4123-b603-7f85ff8285d6" data-name="Icon"><g id="bc1914e8-bcfe-4b31-8e45-204b12580084" data-name="&lt;Group&gt;"><path id="ade33378-34bf-4f85-a264-400b16129a43" data-name="&lt;Path&gt;" d="M109.27,92.32,116.9,70a8.35,8.35,0,0,1,10.83-5.35,9,9,0,0,1,5.56,8.43,9.91,9.91,0,0,1-.51,3.07l-5.53,16.14" style="fill:none;stroke:#00b5e2;stroke-linecap:round;stroke-linejoin:round;stroke-width:4px"/><g id="4b7f0184-3889-4b1f-8136-d769723a642f" data-name="&lt;Group&gt;"><path id="db7922a0-4ddf-47da-af90-18208d254c2b" data-name="&lt;Path&gt;" d="M100,128.17h0A35.86,35.86,0,0,1,64.14,92.32h71.71A35.86,35.86,0,0,1,100,128.17Z" style="fill:none;stroke:#00b5e2;stroke-linecap:round;stroke-linejoin:round;stroke-width:4px"/><polyline id="19b54a68-ef36-4f03-b6ac-8d2ddc4d39f3" data-name="&lt;Path&gt;" points="115.37 124.72 115.37 135.86 84.63 135.86 84.63 124.72" style="fill:none;stroke:#00b5e2;stroke-linecap:round;stroke-linejoin:round;stroke-width:4px"/></g><line id="3f8a6c03-85a7-44ba-8db8-7f2dd84a821f" data-name="&lt;Path&gt;" x1="134.37" y1="102.56" x2="65.63" y2="102.56" style="fill:none;stroke:#00b5e2;stroke-linecap:round;stroke-linejoin:round;stroke-width:4px"/></g></g></svg>