<svg xmlns="http://www.w3.org/2000/svg" viewBox="0 0 200 200"><title>Plan</title><g id="7a1aad3e-6785-4771-bfcf-b71c88cf211d" data-name="Sky"><rect x="25.04" y="25.04" width="149.93" height="149.93" rx="14.17" ry="14.17" transform="translate(100 -41.42) rotate(45)" style="fill:#fff"/></g><g id="aaa951fe-46d9-4f23-85e1-90cf38a9f582" data-name="Icon"><g id="9c7241fc-f6fe-410a-a3a2-5cdd98d557d4" data-name="&lt;Group&gt;"><g id="0f407748-374c-436b-80a2-76bddfc22251" data-name="&lt;Group&gt;"><polyline id="baf02665-339e-43e9-9627-48d85acf6a4d" data-name="&lt;Path&gt;" points="120.49 82.48 89.75 82.48 89.75 128.58 128.17 128.58" style="fill:none;stroke:#00b5e2;stroke-linecap:round;stroke-linejoin:round;stroke-width:4px"/><path id="c7e28da7-4c43-438d-8ee7-591bc17ac5dd" data-name="&lt;Path&gt;" d="M135.86,120.9a7.68,7.68,0,0,1-7.68,7.68" style="fill:none;stroke:#00b5e2;stroke-linecap:round;stroke-linejoin:round;stroke-width:4px"/><path id="efd08399-9a58-49c3-be96-36f908ace211" data-name="&lt;Path&gt;" d="M120.49,120.9a7.68,7.68,0,0,1,15.37,0" style="fill:none;stroke:#00b5e2;stroke-linecap:round;stroke-linejoin:round;stroke-width:4px"/><path id="274406bd-4d30-4764-b672-4b0f8aa7f84b" data-name="&lt;Path&gt;" d="M135.86,120.9V82.48a7.68,7.68,0,0,0-15.37,0V120.9" style="fill:none;stroke:#00b5e2;stroke-linecap:round;stroke-linejoin:round;stroke-width:4px"/></g><g id="25986d4b-6f1a-43df-9e3f-ade3e5f03464" data-name="&lt;Group&gt;"><path id="0cb621b6-d823-422c-85d3-1d48a771d7cd" data-name="&lt;Path&gt;" d="M79,81.61a2.56,2.56,0,0,1,.47,1.48V126a2.56,2.56,0,0,1-2.56,2.56H66.71A2.56,2.56,0,0,1,64.14,126V83.09a2.56,2.56,0,0,1,.47-1.48l7.21-10.19Z" style="fill:none;stroke:#00b5e2;stroke-linecap:round;stroke-linejoin:round;stroke-width:4px"/><line id="b38c77cf-5226-4dea-97ef-8a6069b09b4e" data-name="&lt;Path&gt;" x1="64.14" y1="115.77" x2="79.51" y2="115.77" style="fill:none;stroke:#00b5e2;stroke-linecap:round;stroke-linejoin:round;stroke-width:4px"/><line id="2783a30e-be30-4235-887f-36443ea7cae1" data-name="&lt;Path&gt;" x1="64.14" y1="85.04" x2="79.51" y2="85.04" style="fill:none;stroke:#00b5e2;stroke-linecap:round;stroke-linejoin:round;stroke-width:4px"/></g></g></g></svg>