<svg xmlns="http://www.w3.org/2000/svg" viewBox="0 0 200 200"><title>Rocket</title><g id="c5c9a303-10ac-46a0-b540-bbdcc612eed8" data-name="Sky"><rect x="25.04" y="25.04" width="149.93" height="149.93" rx="14.17" ry="14.17" transform="translate(100 -41.42) rotate(45)" style="fill:#fff"/></g><g id="b4125b93-f03a-4707-ae41-379a33b88ff9" data-name="Icon"><g id="5413affd-c520-4ab9-b505-2d77631001d7" data-name="&lt;Group&gt;"><polyline id="0426b57b-e3a4-4f1f-ba27-1e0f590d15e6" data-name="&lt;Path&gt;" points="110.18 127.22 113.57 140.79 86.43 140.79 89.82 127.22" style="fill:none;stroke:#00b5e2;stroke-linecap:round;stroke-linejoin:round;stroke-width:4px"/><circle id="43a786dd-60db-4fb1-9353-b993832cfbb3" data-name="&lt;Path&gt;" cx="100" cy="89.89" r="10.18" style="fill:none;stroke:#00b5e2;stroke-linecap:round;stroke-linejoin:round;stroke-width:4px"/><path id="8199673a-e49b-427d-be5f-0a554d3ac26a" data-name="&lt;Path&gt;" d="M123.38,102.48l2.21.92a13.54,13.54,0,0,1,8.35,12.52V134l-12.76-17.78" style="fill:none;stroke:#00b5e2;stroke-linecap:round;stroke-linejoin:round;stroke-width:4px"/><path id="e8769228-63ca-4245-a6dc-5a4093f73393" data-name="&lt;Path&gt;" d="M76.62,102.48l-2.21.92a13.54,13.54,0,0,0-8.35,12.52V134l12.76-17.78" style="fill:none;stroke:#00b5e2;stroke-linecap:round;stroke-linejoin:round;stroke-width:4px"/><path id="59b7d4b1-2141-41fb-bb2a-ba8de0f86979" data-name="&lt;Path&gt;" d="M82.8,127.22H117.2a66.77,66.77,0,0,0,6.28-27.14c0-29.18-23.48-52.86-23.48-52.86S76.52,70.89,76.52,100.07A66.77,66.77,0,0,0,82.8,127.22Z" style="fill:none;stroke:#00b5e2;stroke-linecap:round;stroke-linejoin:round;stroke-width:4px"/></g></g></svg>