<svg xmlns="http://www.w3.org/2000/svg" viewBox="0 0 200 200"><title>Snowman</title><g id="7205fa9d-1362-4305-ba0c-7acf1e8b2045" data-name="Sky"><rect x="25.04" y="25.04" width="149.93" height="149.93" rx="14.17" ry="14.17" transform="translate(100 -41.42) rotate(45)" style="fill:#fff"/></g><g id="175691ab-bca0-4935-9193-808579fa3211" data-name="Icon"><g id="711a9d83-2bd8-4c77-b02f-45935e1e8186" data-name="&lt;Group&gt;"><path id="f137a0d6-79a6-4214-9ea1-6b50cde723db" data-name="&lt;Path&gt;" d="M80.86,140a25.69,25.69,0,0,1,6.71-39.66" style="fill:none;stroke:#00b5e2;stroke-linecap:round;stroke-linejoin:round;stroke-width:4px"/><path id="6aaec85a-5284-419c-9250-f30a7043a147" data-name="&lt;Path&gt;" d="M112.43,100.34A25.69,25.69,0,0,1,119.14,140" style="fill:none;stroke:#00b5e2;stroke-linecap:round;stroke-linejoin:round;stroke-width:4px"/><path id="298a8f5a-baa3-4518-aeca-c38ae4be8840" data-name="&lt;Path&gt;" d="M109.46,74.29a17.14,17.14,0,1,1-18.91,0" style="fill:none;stroke:#00b5e2;stroke-linecap:round;stroke-linejoin:round;stroke-width:4px"/><path id="efcb7a4e-7bed-4da1-b374-cca48cc8b233" data-name="&lt;Path&gt;" d="M106.06,91.78a8.58,8.58,0,0,1-12.12,0" style="fill:none;stroke:#00b5e2;stroke-linecap:round;stroke-linejoin:round;stroke-width:4px"/><polyline id="50cf01f4-bb2b-4b25-ae30-1ed92ec34677" data-name="&lt;Path&gt;" points="134.29 140 119.14 140 80.86 140 65.71 140" style="fill:none;stroke:#00b5e2;stroke-linecap:round;stroke-linejoin:round;stroke-width:4px"/><line id="a0076c9f-51dd-41ab-86be-e6de60e85b22" data-name="&lt;Path&gt;" x1="120" y1="74.29" x2="80" y2="74.29" style="fill:none;stroke:#00b5e2;stroke-linecap:round;stroke-linejoin:round;stroke-width:4px"/><path id="cc42c38d-e54f-4e72-81a6-b22d6020a0c9" data-name="&lt;Path&gt;" d="M88.57,74.29V62.86A2.86,2.86,0,0,1,91.43,60h17.14a2.86,2.86,0,0,1,2.86,2.86V74.29" style="fill:none;stroke:#00b5e2;stroke-linecap:round;stroke-linejoin:round;stroke-width:4px"/></g></g></svg>