<svg xmlns="http://www.w3.org/2000/svg" viewBox="0 0 200 200"><title>Spray Paint</title><g id="faaf2fda-43de-4766-9f0c-3f7e41d0316a" data-name="Sky"><rect x="25.04" y="25.04" width="149.93" height="149.93" rx="14.17" ry="14.17" transform="translate(100 -41.42) rotate(45)" style="fill:#fff"/></g><g id="e6c8b0bd-8032-4c37-92b9-d489073ccfa4" data-name="Icon"><g id="b44b4ae8-3055-4ca4-83e4-4756f1de97f9" data-name="&lt;Group&gt;"><path id="9c13236b-85ac-43db-88ee-120f13dc59eb" data-name="&lt;Path&gt;" d="M89.76,75.13V66.71a2.56,2.56,0,0,1,2.56-2.56h5.12A2.56,2.56,0,0,1,100,66.71v8.43" style="fill:none;stroke:#00b5e2;stroke-linecap:round;stroke-linejoin:round;stroke-width:4px"/><path id="ebfcfdf9-b762-45a7-84be-9d6e2a22b55e" data-name="&lt;Path&gt;" d="M94.88,74.39h0A17.93,17.93,0,0,0,76.95,92.32v41a2.56,2.56,0,0,0,2.56,2.56h30.73a2.56,2.56,0,0,0,2.56-2.56v-41A17.93,17.93,0,0,0,94.88,74.39Z" style="fill:none;stroke:#00b5e2;stroke-linecap:round;stroke-linejoin:round;stroke-width:4px"/><line id="e84684cb-739e-4d2d-a4dc-612f53a40f58" data-name="&lt;Path&gt;" x1="112.81" y1="92.32" x2="76.95" y2="92.32" style="fill:none;stroke:#00b5e2;stroke-linecap:round;stroke-linejoin:round;stroke-width:4px"/><line id="8aff67b6-1d61-420d-a329-66383812a58c" data-name="&lt;Path&gt;" x1="107.68" y1="69.27" x2="112.81" y2="69.27" style="fill:none;stroke:#00b5e2;stroke-linecap:round;stroke-linejoin:round;stroke-width:4px"/><line id="3791fc9c-8373-4b96-a48b-88698de7af73" data-name="&lt;Path&gt;" x1="117.93" y1="64.14" x2="123.05" y2="64.14" style="fill:none;stroke:#00b5e2;stroke-linecap:round;stroke-linejoin:round;stroke-width:4px"/><line id="476e7403-3d46-467c-bd85-0b89377b64ec" data-name="&lt;Path&gt;" x1="117.93" y1="74.39" x2="123.05" y2="74.39" style="fill:none;stroke:#00b5e2;stroke-linecap:round;stroke-linejoin:round;stroke-width:4px"/></g></g></svg>