<svg xmlns="http://www.w3.org/2000/svg" viewBox="0 0 200 200"><title>Sunset</title><g id="45ee9ca3-93a2-4a75-9ad1-be8cdce7af82" data-name="Sky"><rect x="25.04" y="25.04" width="149.93" height="149.93" rx="14.17" ry="14.17" transform="translate(100 -41.42) rotate(45)" style="fill:#fff"/></g><g id="9e95b981-855d-4772-8bba-1ac88e3b15c9" data-name="Icon"><g id="5ebd97a3-b553-4723-870b-699a8078fc02" data-name="&lt;Group&gt;"><line id="1651f8c3-c7ff-42f0-a005-a675c7ec4a02" data-name="&lt;Path&gt;" x1="138.94" y1="101.5" x2="132.07" y2="101.5" style="fill:none;stroke:#00b5e2;stroke-linecap:round;stroke-linejoin:round;stroke-width:4px"/><g id="1cbc7edc-2713-421c-93d5-1745dfbc27dc" data-name="&lt;Group&gt;"><line id="f193e00b-65c9-4bc0-99db-8b3cea135981" data-name="&lt;Path&gt;" x1="100" y1="62.56" x2="100" y2="69.42" style="fill:none;stroke:#00b5e2;stroke-linecap:round;stroke-linejoin:round;stroke-width:4px"/><path id="d31fe9cc-5e92-49cc-b483-b2a3963b4b99" data-name="&lt;Path&gt;" d="M117.19,113.48a20.64,20.64,0,0,0,3.77-12,21,21,0,1,0-41.94,0,20.64,20.64,0,0,0,3.77,12" style="fill:none;stroke:#00b5e2;stroke-linecap:round;stroke-linejoin:round;stroke-width:4px"/><line id="bab08b69-e5c7-4ba0-bbff-9020fd2970f3" data-name="&lt;Path&gt;" x1="67.93" y1="101.5" x2="61.06" y2="101.5" style="fill:none;stroke:#00b5e2;stroke-linecap:round;stroke-linejoin:round;stroke-width:4px"/><line id="0f2f4604-e52e-4714-bce7-5b339bb0bd07" data-name="&lt;Path&gt;" x1="127.54" y1="73.96" x2="124.18" y2="77.32" style="fill:none;stroke:#00b5e2;stroke-linecap:round;stroke-linejoin:round;stroke-width:4px"/><line id="f3b84544-df42-4cd9-8602-5ede6b7b2c35" data-name="&lt;Path&gt;" x1="75.82" y1="77.32" x2="72.46" y2="73.96" style="fill:none;stroke:#00b5e2;stroke-linecap:round;stroke-linejoin:round;stroke-width:4px"/><line id="1300d7ac-383f-4af0-8c9f-f6bd434c76cf" data-name="&lt;Path&gt;" x1="55.07" y1="113.48" x2="144.93" y2="113.48" style="fill:none;stroke:#00b5e2;stroke-linecap:round;stroke-linejoin:round;stroke-width:4px"/><line id="83554aaf-647f-4e0f-b909-f3b4a02bf2b4" data-name="&lt;Path&gt;" x1="61.06" y1="125.46" x2="138.94" y2="125.46" style="fill:none;stroke:#00b5e2;stroke-linecap:round;stroke-linejoin:round;stroke-width:4px"/><line id="9e5627af-a052-414f-bd2a-ce73182806fd" data-name="&lt;Path&gt;" x1="73.04" y1="137.44" x2="126.96" y2="137.44" style="fill:none;stroke:#00b5e2;stroke-linecap:round;stroke-linejoin:round;stroke-width:4px"/></g></g></g></svg>