<svg xmlns="http://www.w3.org/2000/svg" viewBox="0 0 200 200"><title>Web Love</title><g id="7bca3e48-f95a-4c74-ac95-13030b93ef8c" data-name="Sky"><rect x="25.04" y="25.04" width="149.93" height="149.93" rx="14.17" ry="14.17" transform="translate(100 -41.42) rotate(45)" style="fill:#fff"/></g><g id="dd6aed23-da3d-482a-8a9f-7d6a9e4511ab" data-name="Icon"><g id="9489cdc5-9ce4-4dd3-82b0-682d6e5a284a" data-name="&lt;Group&gt;"><polyline id="151dba4e-cda4-4da7-a0b6-b71d86df2999" data-name="&lt;Path&gt;" points="112.19 124.33 135.86 124.33 135.86 67.99 64.14 67.99 64.14 124.33 87.81 124.33" style="fill:none;stroke:#00b5e2;stroke-linecap:round;stroke-linejoin:round;stroke-width:4px"/><line id="7f055050-bc54-4de7-8438-37d4c9f8f7b5" data-name="&lt;Path&gt;" x1="92.32" y1="78.23" x2="97.44" y2="78.23" style="fill:none;stroke:#00b5e2;stroke-linecap:round;stroke-linejoin:round;stroke-width:4px"/><line id="a6d674bf-e678-4314-836c-fe893b1feae5" data-name="&lt;Path&gt;" x1="82.07" y1="78.23" x2="87.19" y2="78.23" style="fill:none;stroke:#00b5e2;stroke-linecap:round;stroke-linejoin:round;stroke-width:4px"/><line id="b7870e29-72c8-4ba2-8080-25420354a003" data-name="&lt;Path&gt;" x1="71.83" y1="78.23" x2="76.95" y2="78.23" style="fill:none;stroke:#00b5e2;stroke-linecap:round;stroke-linejoin:round;stroke-width:4px"/><path id="6bb26385-afde-4f58-91f9-d589ad500cbe" data-name="&lt;Path&gt;" d="M89.76,96.16c-5.67,0-10.24,5.33-10.24,11.93,0,13.22,10.2,17.76,20.49,23.93,10.29-6.17,20.49-10.71,20.49-23.93,0-6.6-4.58-11.93-10.24-11.93A13.63,13.63,0,0,0,100,101.68,13.63,13.63,0,0,0,89.76,96.16Z" style="fill:none;stroke:#00b5e2;stroke-linecap:round;stroke-linejoin:round;stroke-width:4px"/></g></g></svg>