<svg xmlns="http://www.w3.org/2000/svg" viewBox="0 0 200 200"><title>Bell</title><g id="2b0d8f5b-d941-40e2-a6f6-1d4ec45a01f4" data-name="Rose"><rect x="25.04" y="25.04" width="149.93" height="149.93" rx="14.17" ry="14.17" transform="translate(100 -41.42) rotate(45)" style="fill:#f8485e"/></g><g id="f0cd28b1-0215-43a4-a7e4-33a477725e42" data-name="Icon"><g id="54ba84d7-a21f-492d-a3b5-016de5e4e5b2" data-name="&lt;Group&gt;"><path id="8597f232-839d-4521-9f70-abd33479f4fa" data-name="&lt;Path&gt;" d="M104.17,72.24a5,5,0,0,0,.95-3,5.12,5.12,0,1,0-10.24,0,5,5,0,0,0,.95,3" style="fill:none;stroke:#fff;stroke-linecap:round;stroke-linejoin:round;stroke-width:4px"/><path id="854002a2-cb66-432d-afe4-9c85d9ce0113" data-name="&lt;Path&gt;" d="M75.41,115.37l1.18-2.92a41.3,41.3,0,0,0,2.92-15.21V92.32a20.49,20.49,0,1,1,41,0v4.92a41.3,41.3,0,0,0,2.92,15.21l1.18,2.92" style="fill:none;stroke:#fff;stroke-linecap:round;stroke-linejoin:round;stroke-width:4px"/><path id="2e4d3ecd-64d5-47c1-a62c-75da611ba6b9" data-name="&lt;Path&gt;" d="M110.24,125.61a10.24,10.24,0,0,1-20.49,0" style="fill:none;stroke:#fff;stroke-linecap:round;stroke-linejoin:round;stroke-width:4px"/><path id="eeedaa0e-e88e-4a97-872d-2d8cb2f622c9" data-name="&lt;Path&gt;" d="M125.61,125.61H74.39a5.12,5.12,0,0,1-5.12-5.12h0a5.12,5.12,0,0,1,5.12-5.12h51.22a5.12,5.12,0,0,1,5.12,5.12h0A5.12,5.12,0,0,1,125.61,125.61Z" style="fill:none;stroke:#fff;stroke-linecap:round;stroke-linejoin:round;stroke-width:4px"/></g></g></svg>