<svg xmlns="http://www.w3.org/2000/svg" viewBox="0 0 200 200"><title>Bus</title><g id="2e7c6b56-b572-4883-9479-f83fd6f6ceb2" data-name="Rose"><rect x="25.04" y="25.04" width="149.93" height="149.93" rx="14.17" ry="14.17" transform="translate(100 -41.42) rotate(45)" style="fill:#f8485e"/></g><g id="639a644a-7bd1-4a20-a746-fa34d44f88a6" data-name="Icon"><g id="37d5e379-0d5f-46a7-b1f4-418be0cc38fb" data-name="&lt;Group&gt;"><path id="b5c8f68e-f4b5-4245-b7b8-8bcfb23f20a9" data-name="&lt;Path&gt;" d="M88.85,122.31V129a2.24,2.24,0,0,1-2.23,2.23H79.92A2.24,2.24,0,0,1,77.69,129v-6.69" style="fill:none;stroke:#fff;stroke-linecap:round;stroke-linejoin:round;stroke-width:4px"/><path id="9d0657e7-337b-4a47-8ef6-a14920dd9980" data-name="&lt;Path&gt;" d="M122.31,122.31V129a2.24,2.24,0,0,1-2.23,2.23h-6.69a2.24,2.24,0,0,1-2.23-2.23v-6.69" style="fill:none;stroke:#fff;stroke-linecap:round;stroke-linejoin:round;stroke-width:4px"/><rect id="7a67247c-2bc8-4943-93cf-6f1d93214ddf" data-name="&lt;Rectangle&gt;" x="71" y="68.77" width="58" height="53.54" rx="2" ry="2" style="fill:none;stroke:#fff;stroke-linecap:round;stroke-linejoin:round;stroke-width:4px"/><line id="c71fe91a-0a14-402f-9d54-076953a98901" data-name="&lt;Path&gt;" x1="71" y1="77.69" x2="129" y2="77.69" style="fill:none;stroke:#fff;stroke-linecap:round;stroke-linejoin:round;stroke-width:4px"/><line id="531c56fd-3a0a-47d4-8ad6-dc76af956f28" data-name="&lt;Path&gt;" x1="71" y1="102.23" x2="129" y2="102.23" style="fill:none;stroke:#fff;stroke-linecap:round;stroke-linejoin:round;stroke-width:4px"/><circle id="279a7dc8-5712-4260-8b90-4a1ef66e1fa2" data-name="&lt;Path&gt;" cx="83.27" cy="112.27" r="3.35" style="fill:none;stroke:#fff;stroke-linecap:round;stroke-linejoin:round;stroke-width:4px"/><circle id="a9d2e5b2-5f48-4015-8cf8-192a4b925c3c" data-name="&lt;Path&gt;" cx="116.73" cy="112.27" r="3.35" style="fill:none;stroke:#fff;stroke-linecap:round;stroke-linejoin:round;stroke-width:4px"/></g></g></svg>