<svg xmlns="http://www.w3.org/2000/svg" viewBox="0 0 200 200"><title>Cocktail</title><g id="3184c874-2ebc-4294-97ec-e450156220d4" data-name="Rose"><rect x="25.04" y="25.04" width="149.93" height="149.93" rx="14.17" ry="14.17" transform="translate(100 -41.42) rotate(45)" style="fill:#f8485e"/></g><g id="50cc2cd3-e6d3-41ee-932e-5014cb20e04e" data-name="Icon"><g id="76b2cb82-4e67-445b-a4b6-fda8ca9f6164" data-name="&lt;Group&gt;"><polyline id="9d60d0dd-79cb-4188-a2be-41187efe3e48" data-name="&lt;Path&gt;" points="67.89 76 82.63 81.9 82.63 99.59" style="fill:none;stroke:#fff;stroke-linecap:round;stroke-linejoin:round;stroke-width:4px"/><path id="7301dc5c-3ea9-4f98-9370-23f79b2f4cde" data-name="&lt;Path&gt;" d="M132.11,84.75c-12,1-25.68-7-30.67-17.88l25.14-7.75Z" style="fill:none;stroke:#fff;stroke-linecap:round;stroke-linejoin:round;stroke-width:4px"/><line id="feeb30f8-1651-4180-851c-a4e57801cb86" data-name="&lt;Path&gt;" x1="113.56" y1="79.89" x2="101.24" y2="99.59" style="fill:none;stroke:#fff;stroke-linecap:round;stroke-linejoin:round;stroke-width:4px"/><path id="850e274d-e49f-4924-8308-4bd86cfa69d9" data-name="&lt;Path&gt;" d="M122.64,99.59l-4.51,7.25-6.28-7.25H72a34.8,34.8,0,0,0-1.12,8.85c0,17.93,13.21,32.44,29.49,32.44s29.49-14.51,29.49-32.44a34.8,34.8,0,0,0-1.12-8.85Z" style="fill:none;stroke:#fff;stroke-linecap:round;stroke-linejoin:round;stroke-width:4px"/></g></g></svg>