<svg xmlns="http://www.w3.org/2000/svg" viewBox="0 0 200 200"><title>Cutlery</title><g id="0915af3b-f5c5-487f-924e-15ec54745fbe" data-name="Rose"><rect x="25.04" y="25.04" width="149.93" height="149.93" rx="14.17" ry="14.17" transform="translate(100 -41.42) rotate(45)" style="fill:#f8485e"/></g><g id="a9bf5082-1106-4a22-94da-18fb2f073b4b" data-name="Icon"><g id="81399638-6820-4487-a40a-d17807c1da7f" data-name="&lt;Group&gt;"><g id="38cea397-4f8a-43e5-804a-0b6c7b52026e" data-name="&lt;Group&gt;"><line id="32c961e7-39f1-4b78-93f8-b14dca2a1588" data-name="&lt;Path&gt;" x1="84.28" y1="62" x2="84.28" y2="80.34" style="fill:none;stroke:#fff;stroke-linecap:round;stroke-linejoin:round;stroke-width:4px"/><path id="c2b5dad6-a5c9-4902-b647-b620967dcea1" data-name="&lt;Path&gt;" d="M71.17,62V80.34A13.16,13.16,0,0,0,75,89.62a13.45,13.45,0,0,0,4,2.75v40.38A5.24,5.24,0,0,0,84.28,138h0a5.24,5.24,0,0,0,5.24-5.24V92.37a13.18,13.18,0,0,0,7.86-12V62" style="fill:none;stroke:#fff;stroke-linecap:round;stroke-linejoin:round;stroke-width:4px"/></g><path id="46303632-24d5-4bc5-bf37-eef6371bf543" data-name="&lt;Path&gt;" d="M118.34,103.93l-2.1,27.29a6.3,6.3,0,0,0,6.28,6.78h0a6.3,6.3,0,0,0,6.3-6.3V64.62A15.74,15.74,0,0,0,113.1,80.34v23.59Z" style="fill:none;stroke:#fff;stroke-linecap:round;stroke-linejoin:round;stroke-width:4px"/></g></g></svg>