<svg xmlns="http://www.w3.org/2000/svg" viewBox="0 0 200 200"><title>Design</title><g id="5e02fbb8-f609-4598-9b40-6f4cb6e1168e" data-name="Rose"><rect x="25.04" y="25.04" width="149.93" height="149.93" rx="14.17" ry="14.17" transform="translate(100 -41.42) rotate(45)" style="fill:#f8485e"/></g><g id="e362a236-cc63-43b2-8137-4ed73e76bc81" data-name="Icon"><g id="64138c06-45f7-422f-a33b-821f6f383cfa" data-name="&lt;Group&gt;"><polyline id="6a1fe787-9201-456d-baae-19f462f4634a" data-name="&lt;Path&gt;" points="113.91 103.15 131.79 121.03 135.37 135.37 121.03 131.79 103.13 113.89" style="fill:none;stroke:#fff;stroke-linecap:round;stroke-linejoin:round;stroke-width:4px"/><path id="4501c939-c2c9-410d-91f5-238f97a18794" data-name="&lt;Path&gt;" d="M87.07,97.83,65.38,76.13a2.52,2.52,0,0,1,0-3.59L69,69l3.59-3.59a2.52,2.52,0,0,1,3.59,0L97.85,87.1" style="fill:none;stroke:#fff;stroke-linecap:round;stroke-linejoin:round;stroke-width:4px"/><line id="2b7bd383-bb1e-4e3f-a97d-865ca16b6534" data-name="&lt;Path&gt;" x1="131.78" y1="121.03" x2="121.03" y2="131.78" style="fill:none;stroke:#fff;stroke-linecap:round;stroke-linejoin:round;stroke-width:4px"/><line id="83a28872-669f-4f64-925f-068675a318a8" data-name="&lt;Path&gt;" x1="85.35" y1="74.6" x2="74.55" y2="85.3" style="fill:none;stroke:#fff;stroke-linecap:round;stroke-linejoin:round;stroke-width:4px"/><g id="19ae11e3-b6ab-4c03-a4c9-e36c16772652" data-name="&lt;Group&gt;"><rect id="24ebafb5-f0d6-4830-a2ad-56686b11de19" data-name="&lt;Path&gt;" x="62.64" y="89.13" width="75.7" height="22.71" transform="translate(-41.62 100.48) rotate(-45)" style="fill:none;stroke:#fff;stroke-linecap:round;stroke-linejoin:round;stroke-width:4px"/><line id="22ad30b0-61d6-4e8a-95b7-1dcf4a70a6f0" data-name="&lt;Path&gt;" x1="74.61" y1="110.3" x2="79.97" y2="115.66" style="fill:none;stroke:#fff;stroke-linecap:round;stroke-linejoin:round;stroke-width:4px"/><line id="b898781c-6266-4186-8897-71881edcd079" data-name="&lt;Path&gt;" x1="83.54" y1="101.38" x2="90.68" y2="108.52" style="fill:none;stroke:#fff;stroke-linecap:round;stroke-linejoin:round;stroke-width:4px"/><line id="c62f2875-ae39-4010-91c1-ad1b4318559f" data-name="&lt;Path&gt;" x1="92.46" y1="92.46" x2="97.81" y2="97.81" style="fill:none;stroke:#fff;stroke-linecap:round;stroke-linejoin:round;stroke-width:4px"/><line id="9548fe5e-409e-4294-be7c-fd01f0a163ad" data-name="&lt;Path&gt;" x1="101.38" y1="83.54" x2="108.52" y2="90.68" style="fill:none;stroke:#fff;stroke-linecap:round;stroke-linejoin:round;stroke-width:4px"/><line id="999fdbb0-0130-4c32-a867-ccf685749799" data-name="&lt;Path&gt;" x1="110.3" y1="74.62" x2="115.66" y2="79.97" style="fill:none;stroke:#fff;stroke-linecap:round;stroke-linejoin:round;stroke-width:4px"/></g></g></g></svg>