<svg xmlns="http://www.w3.org/2000/svg" viewBox="0 0 200 200"><title>Diamond</title><g id="9924b511-82ab-4ef0-8f15-586d19bc8002" data-name="Rose"><rect x="25.04" y="25.04" width="149.93" height="149.93" rx="14.17" ry="14.17" transform="translate(100 -41.42) rotate(45)" style="fill:#f8485e"/></g><g id="f8f7ad75-26c2-4992-897e-32aa9711cd2c" data-name="Icon"><g id="8ac95bf4-8ab4-4067-82e1-cc09d3e73f6e" data-name="&lt;Group&gt;"><polygon id="ea280964-ee9a-4cce-962e-5c46f654edc4" data-name="&lt;Path&gt;" points="101 144.31 62 98.04 75.96 77.69 101 77.69 126.04 77.69 140 98.04 101 144.31" style="fill:none;stroke:#fff;stroke-linecap:round;stroke-linejoin:round;stroke-width:4px"/><polyline id="c7cc52d8-3817-4dd4-bbb6-934bdfbaf63c" data-name="&lt;Path&gt;" points="62 98.04 71.75 98.04 81.5 98.04 91.25 98.04 101 98.04 110.75 98.04 120.5 98.04 130.25 98.04 140 98.04" style="fill:none;stroke:#fff;stroke-linecap:round;stroke-linejoin:round;stroke-width:4px"/><line id="6fb13746-e665-44d8-b0ab-630155587ca8" data-name="&lt;Path&gt;" x1="113.58" y1="98.04" x2="101" y2="77.69" style="fill:none;stroke:#fff;stroke-linecap:round;stroke-linejoin:round;stroke-width:4px"/><line id="e366d108-6069-4b06-bddf-e91d33983bda" data-name="&lt;Path&gt;" x1="101" y1="77.69" x2="88.42" y2="98.04" style="fill:none;stroke:#fff;stroke-linecap:round;stroke-linejoin:round;stroke-width:4px"/><polyline id="c220b0f1-05fa-407a-873a-b32261fc7563" data-name="&lt;Path&gt;" points="101 144.31 88.42 98.04 75.96 77.69" style="fill:none;stroke:#fff;stroke-linecap:round;stroke-linejoin:round;stroke-width:4px"/><polyline id="63f3bcbf-1bae-4975-9e83-d6216c55d292" data-name="&lt;Path&gt;" points="101 144.31 113.58 98.04 126.04 77.69" style="fill:none;stroke:#fff;stroke-linecap:round;stroke-linejoin:round;stroke-width:4px"/></g></g></svg>