<svg xmlns="http://www.w3.org/2000/svg" viewBox="0 0 200 200"><title>Direction</title><g id="ae0423e9-57c0-45e7-8269-318a3fed74ca" data-name="Rose"><rect x="25.04" y="25.04" width="149.93" height="149.93" rx="14.17" ry="14.17" transform="translate(100 -41.42) rotate(45)" style="fill:#f8485e"/></g><g id="7d0f88c7-2cd8-44d9-a844-3081dd174d60" data-name="Icon"><g id="e49527b4-6b23-4199-b469-9313f5ab1ae2" data-name="&lt;Group&gt;"><path id="8b14d9e0-b56e-40bd-bc17-13e637313d34" data-name="&lt;Path&gt;" d="M93.84,73.2V67A6.16,6.16,0,0,1,100,60.88h0A6.16,6.16,0,0,1,106.16,67V73.2" style="fill:none;stroke:#fff;stroke-linecap:round;stroke-linejoin:round;stroke-width:4px"/><line id="63aa3c25-89d8-41d2-ae29-d868aa205411" data-name="&lt;Path&gt;" x1="106.16" y1="104" x2="106.16" y2="91.68" style="fill:none;stroke:#fff;stroke-linecap:round;stroke-linejoin:round;stroke-width:4px"/><line id="75981374-1cdd-4a6a-9237-70b41e967ee3" data-name="&lt;Path&gt;" x1="106.16" y1="147.12" x2="106.16" y2="122.48" style="fill:none;stroke:#fff;stroke-linecap:round;stroke-linejoin:round;stroke-width:4px"/><line id="ac59b185-03dd-4526-b8bb-3e136cdc1606" data-name="&lt;Path&gt;" x1="93.84" y1="104" x2="93.84" y2="91.68" style="fill:none;stroke:#fff;stroke-linecap:round;stroke-linejoin:round;stroke-width:4px"/><line id="702395c0-1393-4159-8f97-c23512cb42ad" data-name="&lt;Path&gt;" x1="93.84" y1="147.12" x2="93.84" y2="122.48" style="fill:none;stroke:#fff;stroke-linecap:round;stroke-linejoin:round;stroke-width:4px"/><polygon id="9f6357e9-ecdc-46fb-bfb9-693971d59d4a" data-name="&lt;Path&gt;" points="122.97 91.68 94.34 91.68 65.72 91.68 71.92 82.44 65.72 73.2 94.34 73.2 122.97 73.2 128.98 77.82 135 82.44 128.98 87.06 122.97 91.68" style="fill:none;stroke:#fff;stroke-linecap:round;stroke-linejoin:round;stroke-width:4px"/><polygon id="03c80c34-8b89-480a-afdf-535a8e905d11" data-name="&lt;Path&gt;" points="77.03 104 105.66 104 134.29 104 128.09 113.24 134.29 122.48 105.66 122.48 77.03 122.48 71.02 117.86 65 113.24 71.02 108.62 77.03 104" style="fill:none;stroke:#fff;stroke-linecap:round;stroke-linejoin:round;stroke-width:4px"/><line id="205ad2f2-b4c3-495c-8211-448f1f259584" data-name="&lt;Path&gt;" x1="84.6" y1="147.12" x2="115.4" y2="147.12" style="fill:none;stroke:#fff;stroke-linecap:round;stroke-linejoin:round;stroke-width:4px"/></g></g></svg>