<svg xmlns="http://www.w3.org/2000/svg" viewBox="0 0 200 200"><title>DoNotDisturb</title><g id="76171aec-839e-4b88-b3ff-af6f62288181" data-name="Rose"><rect x="25.04" y="25.04" width="149.93" height="149.93" rx="14.17" ry="14.17" transform="translate(100 -41.42) rotate(45)" style="fill:#f8485e"/></g><g id="b547a986-c12f-4068-9341-bfeffe9851f6" data-name="Icon"><g id="1ce88f8e-e962-4e24-91ce-61f1785cef86" data-name="&lt;Group&gt;"><path id="68c61700-bd63-47b8-915d-51f7e5be44c6" data-name="&lt;Path&gt;" d="M120,80v60H80V105l24.07-16.18a10.17,10.17,0,0,0,4.5-8.44h0a8.83,8.83,0,0,0-6.84-8.78A8.59,8.59,0,0,0,91.43,80v2.86H80v-2C80,69.47,89.3,59.65,100.65,60A20,20,0,0,1,120,80Z" style="fill:none;stroke:#fff;stroke-linecap:round;stroke-linejoin:round;stroke-width:4px"/><path id="07bcb63a-f0fa-4644-ad2c-ce557b1e8874" data-name="&lt;Path&gt;" d="M111.43,120a11.43,11.43,0,1,1-3.35-8.08A11.39,11.39,0,0,1,111.43,120Z" style="fill:none;stroke:#fff;stroke-linecap:round;stroke-linejoin:round;stroke-width:4px"/><line id="8b557bf1-1999-4837-86d3-e20598bbc46c" data-name="&lt;Path&gt;" x1="108.08" y1="111.92" x2="91.92" y2="128.08" style="fill:none;stroke:#fff;stroke-linecap:round;stroke-linejoin:round;stroke-width:4px"/></g></g></svg>