<svg xmlns="http://www.w3.org/2000/svg" viewBox="0 0 200 200"><title>Gift</title><g id="d331bb62-c4aa-4ff6-afbc-a4511c857f7f" data-name="Rose"><rect x="25.04" y="25.04" width="149.93" height="149.93" rx="14.17" ry="14.17" transform="translate(100 -41.42) rotate(45)" style="fill:#f8485e"/></g><g id="25137c47-2987-4c1b-859d-78b8f2e2771e" data-name="Icon"><g id="5825703d-a390-40db-838d-42adc8a8b687" data-name="&lt;Group&gt;"><line id="194a5a3f-2814-4403-abf1-f5484d9f42df" data-name="&lt;Path&gt;" x1="94.29" y1="98.62" x2="94.29" y2="140" style="fill:none;stroke:#fff;stroke-linecap:round;stroke-linejoin:round;stroke-width:4px"/><line id="9a4cbfe9-ebac-4031-9026-3a95648c679a" data-name="&lt;Path&gt;" x1="105.71" y1="98.62" x2="105.71" y2="140" style="fill:none;stroke:#fff;stroke-linecap:round;stroke-linejoin:round;stroke-width:4px"/><path id="94b85bbe-496c-4cec-9a40-25d8ec478975" data-name="&lt;Path&gt;" d="M108.63,80c3.34-1,9.54-3.89,12.54-8.17a8.25,8.25,0,0,0,1.37-7.14A6.52,6.52,0,0,0,115.66,60c-8.29.71-14.17,10.69-15.4,20" style="fill:none;stroke:#fff;stroke-linecap:round;stroke-linejoin:round;stroke-width:4px"/><path id="334f8276-960d-4a63-ae15-75b58ad4de45" data-name="&lt;Path&gt;" d="M91.6,80c-2.51-1.06-5.74-2.91-7.49-5.4a6.21,6.21,0,0,1-1-5.37,4.92,4.92,0,0,1,5.17-3.49c6,.49,10.31,7.49,11.46,14.26" style="fill:none;stroke:#fff;stroke-linecap:round;stroke-linejoin:round;stroke-width:4px"/><rect id="915c1943-2f26-418f-ab44-099802d136f1" data-name="&lt;Rectangle&gt;" x="60" y="80" width="80" height="17.14" style="fill:none;stroke:#fff;stroke-linecap:round;stroke-linejoin:round;stroke-width:4px"/><polyline id="2e448374-2425-4683-99cb-e5cf8d5517a2" data-name="&lt;Path&gt;" points="134.29 97.14 134.29 140 65.71 140 65.71 97.14" style="fill:none;stroke:#fff;stroke-linecap:round;stroke-linejoin:round;stroke-width:4px"/></g></g></svg>