<svg xmlns="http://www.w3.org/2000/svg" viewBox="0 0 200 200"><title>Glasses</title><g id="327327a8-49b4-44e4-9776-b2de0a65bc31" data-name="Rose"><rect x="25.04" y="25.04" width="149.93" height="149.93" rx="14.17" ry="14.17" transform="translate(100 -41.42) rotate(45)" style="fill:#f8485e"/></g><g id="c64c2583-fea4-46d7-91d4-e71356158088" data-name="Icon"><g id="5f85d0ca-b3eb-4ba4-8395-7bc4f963cf56" data-name="&lt;Group&gt;"><path id="e7dca257-ea70-40d7-86db-4bdc6c92e53e" data-name="&lt;Path&gt;" d="M87.19,71.83h-2.3a7.68,7.68,0,0,0-7.22,5.06L69.27,100" style="fill:none;stroke:#fff;stroke-linecap:round;stroke-linejoin:round;stroke-width:4px"/><path id="af49f0a4-03ea-4dab-b88b-eaf69712cb7b" data-name="&lt;Path&gt;" d="M112.81,71.83h2.3a7.68,7.68,0,0,1,7.22,5.06L130.73,100" style="fill:none;stroke:#fff;stroke-linecap:round;stroke-linejoin:round;stroke-width:4px"/><path id="e6ae2a35-9f98-467a-b6cb-1b2ec22841bd" data-name="&lt;Rectangle&gt;" d="M66.14,100H92.88a2,2,0,0,1,2,2v18.17a8,8,0,0,1-8,8H66.14a2,2,0,0,1-2-2V102A2,2,0,0,1,66.14,100Z" style="fill:none;stroke:#fff;stroke-linecap:round;stroke-linejoin:round;stroke-width:4px"/><path id="1b57ce04-b8a1-4eed-8c7d-555919563dc1" data-name="&lt;Rectangle&gt;" d="M107.12,100h26.73a2,2,0,0,1,2,2v24.17a2,2,0,0,1-2,2H113.12a8,8,0,0,1-8-8V102A2,2,0,0,1,107.12,100Z" style="fill:none;stroke:#fff;stroke-linecap:round;stroke-linejoin:round;stroke-width:4px"/><line id="b5fddc53-5728-4646-8b4b-3e49291a26d0" data-name="&lt;Path&gt;" x1="105.28" y1="110.24" x2="94.72" y2="110.24" style="fill:none;stroke:#fff;stroke-linecap:round;stroke-linejoin:round;stroke-width:4px"/></g></g></svg>