<svg xmlns="http://www.w3.org/2000/svg" viewBox="0 0 200 200"><title>Global</title><g id="6efeefb0-e748-484b-8dc1-ee451db3f1e6" data-name="Rose"><rect x="25.04" y="25.04" width="149.93" height="149.93" rx="14.17" ry="14.17" transform="translate(100 -41.42) rotate(45)" style="fill:#f8485e"/></g><g id="f9c7cd21-e52d-4413-8cfa-eac1f0ded221" data-name="Icon"><g id="8fdd2c31-1366-4521-bbeb-ee6ec0b562ad" data-name="&lt;Group&gt;"><line id="fb4c5b80-52d3-4e93-ba69-3fcc86d509e3" data-name="&lt;Path&gt;" x1="100" y1="60" x2="100" y2="140" style="fill:none;stroke:#fff;stroke-linecap:round;stroke-linejoin:round;stroke-width:4px"/><line id="b353baca-e874-4f69-9f7a-3ae38e7ae51b" data-name="&lt;Path&gt;" x1="60" y1="100" x2="140" y2="100" style="fill:none;stroke:#fff;stroke-linecap:round;stroke-linejoin:round;stroke-width:4px"/><path id="958901d1-e808-4baa-abcb-edc49d1b309a" data-name="&lt;Path&gt;" d="M109.2,138.94l0,0a62.3,62.3,0,0,0,0-77.83l0,0" style="fill:none;stroke:#fff;stroke-linecap:round;stroke-linejoin:round;stroke-width:4px"/><path id="3216c9e6-3361-4206-851a-54281f38debb" data-name="&lt;Path&gt;" d="M90.8,138.94l0,0a62.3,62.3,0,0,1,0-77.83l0,0" style="fill:none;stroke:#fff;stroke-linecap:round;stroke-linejoin:round;stroke-width:4px"/><path id="855b2273-dd47-4d52-9a96-395e08fea1f6" data-name="&lt;Path&gt;" d="M129.23,72.71a62.32,62.32,0,0,1-58.46,0" style="fill:none;stroke:#fff;stroke-linecap:round;stroke-linejoin:round;stroke-width:4px"/><path id="73154f45-a421-42fb-a3d2-7ef84bbeb7ae" data-name="&lt;Path&gt;" d="M70.77,127.29a62.32,62.32,0,0,1,58.46,0" style="fill:none;stroke:#fff;stroke-linecap:round;stroke-linejoin:round;stroke-width:4px"/><circle id="5a77f072-334c-49dd-b319-2546b60de7af" data-name="&lt;Path&gt;" cx="100" cy="100" r="40" style="fill:none;stroke:#fff;stroke-linecap:round;stroke-linejoin:round;stroke-width:4px"/></g></g></svg>