<svg xmlns="http://www.w3.org/2000/svg" viewBox="0 0 200 200"><title>Lightbulb</title><g id="ac7c4e47-8832-4001-b8b0-5f86bcd464d1" data-name="Rose"><rect x="25.04" y="25.04" width="149.93" height="149.93" rx="14.17" ry="14.17" transform="translate(100 -41.42) rotate(45)" style="fill:#f8485e"/></g><g id="f3a73e8b-02cc-4d5f-a650-c073c9d9387b" data-name="Icon"><g id="046fb617-573e-4431-951c-9d69b977dccc" data-name="&lt;Group&gt;"><line id="9317528b-58e7-47c7-a830-a2d0d111d6f0" data-name="&lt;Path&gt;" x1="100" y1="127" x2="100" y2="103" style="fill:none;stroke:#fff;stroke-linecap:round;stroke-linejoin:round;stroke-width:4px"/><path id="2877f269-a1c5-48ca-9f75-992ee534cf9a" data-name="&lt;Path&gt;" d="M88,136.35V139a3,3,0,0,0,3,3h18a3,3,0,0,0,3-3v-2.65a30,30,0,0,1,2.57-12.16l1.44-3.24a141.64,141.64,0,0,1,9.49-17.15,30,30,0,1,0-51,0A141.64,141.64,0,0,1,84,120.95l1.44,3.24A30,30,0,0,1,88,136.35Z" style="fill:none;stroke:#fff;stroke-linecap:round;stroke-linejoin:round;stroke-width:4px"/><line id="4e0f0219-e3d1-49b2-a0ab-c0635021c6d8" data-name="&lt;Path&gt;" x1="87.31" y1="127" x2="112.69" y2="127" style="fill:none;stroke:#fff;stroke-linecap:round;stroke-linejoin:round;stroke-width:4px"/><polyline id="24acb428-36ed-4588-a974-9cb020fce1a7" data-name="&lt;Path&gt;" points="84.06 91.92 89.36 96.38 94.68 91.92 99.98 96.38 105.3 91.92 110.62 96.38 115.94 91.92" style="fill:none;stroke:#fff;stroke-linecap:round;stroke-linejoin:round;stroke-width:4px"/></g></g></svg>