<svg xmlns="http://www.w3.org/2000/svg" viewBox="0 0 200 200"><title>Luggage</title><g id="719c396c-30b3-45b9-9307-5be65a339ef5" data-name="Rose"><rect x="25.04" y="25.04" width="149.93" height="149.93" rx="14.17" ry="14.17" transform="translate(100 -41.42) rotate(45)" style="fill:#f8485e"/></g><g id="9b2e7e10-2582-4e5b-b65c-37074e21032d" data-name="Icon"><g id="636617d9-d6e9-46e7-8b01-47fa148e6f18" data-name="&lt;Group&gt;"><path id="e9be31e7-3945-4089-8d9c-41e74acd998e" data-name="&lt;Path&gt;" d="M62,71.19l5.95,5.95v36.32a5.19,5.19,0,0,0,5.19,5.19H138" style="fill:none;stroke:#fff;stroke-linecap:round;stroke-linejoin:round;stroke-width:4px"/><circle id="20ed6862-22ca-4b6b-8c41-1635e77b8888" data-name="&lt;Path&gt;" cx="125.03" cy="131.62" r="5.19" style="fill:none;stroke:#fff;stroke-linecap:round;stroke-linejoin:round;stroke-width:4px"/><circle id="420f5b0e-a3c8-4008-88e0-d811279d3229" data-name="&lt;Path&gt;" cx="78.33" cy="131.62" r="5.19" style="fill:none;stroke:#fff;stroke-linecap:round;stroke-linejoin:round;stroke-width:4px"/><rect id="66c56757-447f-4be2-ae71-3759fc6b01d4" data-name="&lt;Rectangle&gt;" x="80.92" y="79.73" width="46.7" height="31.13" rx="1" ry="1" style="fill:none;stroke:#fff;stroke-linecap:round;stroke-linejoin:round;stroke-width:4px"/><path id="1a45cabd-e7e7-482f-88a9-d843463acfa6" data-name="&lt;Path&gt;" d="M112.06,79.73V74.54a2.59,2.59,0,0,0-2.59-2.59H99.08a2.59,2.59,0,0,0-2.59,2.59v5.19" style="fill:none;stroke:#fff;stroke-linecap:round;stroke-linejoin:round;stroke-width:4px"/><line id="d37eb950-1db8-48da-b9e9-14fcbfa45fdb" data-name="&lt;Path&gt;" x1="91.3" y1="79.73" x2="91.3" y2="110.87" style="fill:none;stroke:#fff;stroke-linecap:round;stroke-linejoin:round;stroke-width:4px"/><line id="480636d2-3645-42d7-82e3-58078d59e786" data-name="&lt;Path&gt;" x1="117.24" y1="79.73" x2="117.24" y2="110.87" style="fill:none;stroke:#fff;stroke-linecap:round;stroke-linejoin:round;stroke-width:4px"/></g></g></svg>