<svg xmlns="http://www.w3.org/2000/svg" viewBox="0 0 200 200"><title>Meeting</title><g id="51b2d6a8-29c6-4509-a4f5-0826404a50c8" data-name="Rose"><rect x="25.04" y="25.04" width="149.93" height="149.93" rx="14.17" ry="14.17" transform="translate(100 -41.42) rotate(45)" style="fill:#f8485e"/></g><g id="06ebe8ce-80a9-412c-99ba-496dfd8fb04a" data-name="Icon"><g id="0324d166-3400-49a8-9daf-d22a97c64682" data-name="&lt;Group&gt;"><circle id="066a875d-f243-4bff-9333-b15b99a76dde" data-name="&lt;Path&gt;" cx="64.64" cy="88.75" r="9.64" style="fill:none;stroke:#fff;stroke-linecap:round;stroke-linejoin:round;stroke-width:4px"/><circle id="bf609481-2487-49cd-afa9-cb9136d9e2e8" data-name="&lt;Path&gt;" cx="100" cy="69.46" r="9.64" style="fill:none;stroke:#fff;stroke-linecap:round;stroke-linejoin:round;stroke-width:4px"/><circle id="3d5da7a9-f5dc-456c-befc-a4dc976eeb17" data-name="&lt;Path&gt;" cx="135.36" cy="88.75" r="9.64" style="fill:none;stroke:#fff;stroke-linecap:round;stroke-linejoin:round;stroke-width:4px"/><path id="e60fc12d-cf0c-465d-9c96-03f9deafb7a8" data-name="&lt;Path&gt;" d="M87.14,98.39V88.75a6.43,6.43,0,0,1,6.43-6.43h12.86a6.43,6.43,0,0,1,6.43,6.43v9.64" style="fill:none;stroke:#fff;stroke-linecap:round;stroke-linejoin:round;stroke-width:4px"/><path id="2039e878-39de-477e-bf4c-0b74808e3bd6" data-name="&lt;Path&gt;" d="M80.71,140.18V124.11a3.21,3.21,0,0,0-3.21-3.21H67.86a3.21,3.21,0,0,1-3.21-3.21V98.39" style="fill:none;stroke:#fff;stroke-linecap:round;stroke-linejoin:round;stroke-width:4px"/><path id="c414474c-c74d-4db7-9aed-52cd5742ed6a" data-name="&lt;Path&gt;" d="M119.29,140.18V124.11a3.21,3.21,0,0,1,3.21-3.21h9.64a3.21,3.21,0,0,0,3.21-3.21V98.39" style="fill:none;stroke:#fff;stroke-linecap:round;stroke-linejoin:round;stroke-width:4px"/><line id="0c51670d-2fd0-4491-86f4-54920bd784f5" data-name="&lt;Path&gt;" x1="74.29" y1="108.04" x2="125.71" y2="108.04" style="fill:none;stroke:#fff;stroke-linecap:round;stroke-linejoin:round;stroke-width:4px"/><line id="6f443462-dc6a-4bbb-8788-6588752f1d89" data-name="&lt;Path&gt;" x1="100" y1="108.04" x2="100" y2="140.18" style="fill:none;stroke:#fff;stroke-linecap:round;stroke-linejoin:round;stroke-width:4px"/></g></g></svg>