<svg xmlns="http://www.w3.org/2000/svg" viewBox="0 0 200 200"><title>Megaphone</title><g id="d4aac991-46c3-4bc6-91dd-7896c8f21b88" data-name="Rose"><rect x="25.04" y="25.04" width="149.93" height="149.93" rx="14.17" ry="14.17" transform="translate(100 -41.42) rotate(45)" style="fill:#f8485e"/></g><g id="45b1067e-bb42-4cfa-b26a-098df40b241e" data-name="Icon"><g id="916e7d54-fa63-4e9f-a532-a831e4f3de33" data-name="&lt;Group&gt;"><path id="3612b7f9-a6f0-4705-a677-361e820ed3c0" data-name="&lt;Path&gt;" d="M85.12,102l5.71,22.85a6.34,6.34,0,0,1-12.09,3.76L68.75,102" style="fill:none;stroke:#fff;stroke-linecap:round;stroke-linejoin:round;stroke-width:4px"/><path id="c592be7b-ffb9-47ab-bd8e-ab5c8769a59b" data-name="&lt;Path&gt;" d="M91,102H65.42a2.56,2.56,0,0,1-2.56-2.56V84a2.56,2.56,0,0,1,2.56-2.56H91" style="fill:none;stroke:#fff;stroke-linecap:round;stroke-linejoin:round;stroke-width:4px"/><polygon id="4f1f6346-ec0a-47db-8062-a73e31ce6da6" data-name="&lt;Path&gt;" points="121.77 116.14 91.04 101.89 91.04 81.55 121.77 67.31 121.77 116.14" style="fill:none;stroke:#fff;stroke-linecap:round;stroke-linejoin:round;stroke-width:4px"/><line id="8c81cf15-5ddf-4dd5-9baa-aef8ab1d7a6d" data-name="&lt;Path&gt;" x1="129.45" y1="91.71" x2="137.14" y2="91.71" style="fill:none;stroke:#fff;stroke-linecap:round;stroke-linejoin:round;stroke-width:4px"/><line id="ed6b99f6-25cd-42b1-82db-51675391b011" data-name="&lt;Path&gt;" x1="129.45" y1="81.47" x2="137.14" y2="81.47" style="fill:none;stroke:#fff;stroke-linecap:round;stroke-linejoin:round;stroke-width:4px"/><line id="1463afe6-b686-47c6-8276-17565c5aa19b" data-name="&lt;Path&gt;" x1="129.45" y1="101.96" x2="137.14" y2="101.96" style="fill:none;stroke:#fff;stroke-linecap:round;stroke-linejoin:round;stroke-width:4px"/></g></g></svg>