<svg xmlns="http://www.w3.org/2000/svg" viewBox="0 0 200 200"><title>Money</title><g id="30896c72-740d-495d-a97e-aae4c4894e97" data-name="Rose"><rect x="25.04" y="25.04" width="149.93" height="149.93" rx="14.17" ry="14.17" transform="translate(100 -41.42) rotate(45)" style="fill:#f8485e"/></g><g id="098c3148-94c6-401e-9d0f-e64c03f51fc9" data-name="Icon"><g id="ff4691b3-c057-4cfb-a730-f2f9b3fdc15c" data-name="&lt;Group&gt;"><rect id="88ea5096-ad01-4ff6-8d37-5a3cbeeb1b4b" data-name="&lt;Rectangle&gt;" x="59.75" y="77" width="80.5" height="46" style="fill:none;stroke:#fff;stroke-linecap:round;stroke-linejoin:round;stroke-width:4px"/><ellipse id="3e4301de-04f1-4fad-ad1b-6963de14232a" data-name="&lt;Path&gt;" cx="100" cy="100" rx="8.63" ry="11.5" style="fill:none;stroke:#fff;stroke-linecap:round;stroke-linejoin:round;stroke-width:4px"/><path id="f7df9375-7f4b-4fa4-9697-7fea1d53dfea" data-name="&lt;Path&gt;" d="M74.13,77A14.37,14.37,0,0,1,59.75,91.38" style="fill:none;stroke:#fff;stroke-linecap:round;stroke-linejoin:round;stroke-width:4px"/><path id="54db26aa-7089-4a53-bb36-c4665082d3f8" data-name="&lt;Path&gt;" d="M140.25,91.38A14.37,14.37,0,0,1,125.88,77" style="fill:none;stroke:#fff;stroke-linecap:round;stroke-linejoin:round;stroke-width:4px"/><path id="adcab469-4705-4fab-bc05-1deffd141d8c" data-name="&lt;Path&gt;" d="M125.88,123a14.37,14.37,0,0,1,14.38-14.37" style="fill:none;stroke:#fff;stroke-linecap:round;stroke-linejoin:round;stroke-width:4px"/><path id="7458de79-7213-4360-8b04-f69eb919541f" data-name="&lt;Path&gt;" d="M59.75,108.63A14.37,14.37,0,0,1,74.13,123" style="fill:none;stroke:#fff;stroke-linecap:round;stroke-linejoin:round;stroke-width:4px"/><line id="06590729-517c-473c-b70e-888433678c31" data-name="&lt;Path&gt;" x1="77" y1="100" x2="82.75" y2="100" style="fill:none;stroke:#fff;stroke-linecap:round;stroke-linejoin:round;stroke-width:4px"/><line id="0ded1d78-e4b1-424d-adce-23dd4519d33f" data-name="&lt;Path&gt;" x1="117.25" y1="100" x2="123" y2="100" style="fill:none;stroke:#fff;stroke-linecap:round;stroke-linejoin:round;stroke-width:4px"/></g></g></svg>