<svg xmlns="http://www.w3.org/2000/svg" viewBox="0 0 200 200"><title>Pestle</title><g id="ec0d4c97-c11e-4bc2-915f-a4f04e6c2003" data-name="Rose"><rect x="25.04" y="25.04" width="149.93" height="149.93" rx="14.17" ry="14.17" transform="translate(100 -41.42) rotate(45)" style="fill:#f8485e"/></g><g id="90277b68-ca19-4213-88e5-00b56fc0320e" data-name="Icon"><g id="03296dcf-66eb-4f91-83d3-1cebf626432c" data-name="&lt;Group&gt;"><path id="f3e82334-41b3-473b-89a3-7017546cb473" data-name="&lt;Path&gt;" d="M109.27,92.32,116.9,70a8.35,8.35,0,0,1,10.83-5.35,9,9,0,0,1,5.56,8.43,9.91,9.91,0,0,1-.51,3.07l-5.53,16.14" style="fill:none;stroke:#fff;stroke-linecap:round;stroke-linejoin:round;stroke-width:4px"/><g id="f76554be-fb6d-4f2a-aa74-0fa022a46224" data-name="&lt;Group&gt;"><path id="c7f141a7-8f30-4a5d-9661-eefec7088ee5" data-name="&lt;Path&gt;" d="M100,128.17h0A35.86,35.86,0,0,1,64.14,92.32h71.71A35.86,35.86,0,0,1,100,128.17Z" style="fill:none;stroke:#fff;stroke-linecap:round;stroke-linejoin:round;stroke-width:4px"/><polyline id="e91beaf4-2c51-4e9d-88b3-76e7fcbfab8b" data-name="&lt;Path&gt;" points="115.37 124.72 115.37 135.86 84.63 135.86 84.63 124.72" style="fill:none;stroke:#fff;stroke-linecap:round;stroke-linejoin:round;stroke-width:4px"/></g><line id="42959694-2776-4655-9435-66ec9fdcbf61" data-name="&lt;Path&gt;" x1="134.37" y1="102.56" x2="65.63" y2="102.56" style="fill:none;stroke:#fff;stroke-linecap:round;stroke-linejoin:round;stroke-width:4px"/></g></g></svg>