<svg xmlns="http://www.w3.org/2000/svg" viewBox="0 0 200 200"><title>Plan</title><g id="4b90f793-389b-4884-a452-d51b75839e2a" data-name="Rose"><rect x="25.04" y="25.04" width="149.93" height="149.93" rx="14.17" ry="14.17" transform="translate(100 -41.42) rotate(45)" style="fill:#f8485e"/></g><g id="2de4987e-8a97-42d5-a295-dc539a4366e4" data-name="Icon"><g id="7ee0d261-cb21-4515-afc8-82b6d80d9b8a" data-name="&lt;Group&gt;"><g id="9dc1f758-ef9e-4589-8594-3ed69723b88a" data-name="&lt;Group&gt;"><polyline id="4b90787a-fc19-48b3-91bf-4c9ef57900b7" data-name="&lt;Path&gt;" points="120.49 82.48 89.75 82.48 89.75 128.58 128.17 128.58" style="fill:none;stroke:#fff;stroke-linecap:round;stroke-linejoin:round;stroke-width:4px"/><path id="43006e33-44c3-45e5-8849-83ad931b7fe3" data-name="&lt;Path&gt;" d="M135.86,120.9a7.68,7.68,0,0,1-7.68,7.68" style="fill:none;stroke:#fff;stroke-linecap:round;stroke-linejoin:round;stroke-width:4px"/><path id="80e3db34-2f01-45e5-a6a8-e547e3526c4f" data-name="&lt;Path&gt;" d="M120.49,120.9a7.68,7.68,0,0,1,15.37,0" style="fill:none;stroke:#fff;stroke-linecap:round;stroke-linejoin:round;stroke-width:4px"/><path id="89e2d4e0-447c-4d27-ad6a-e26cd3fe7776" data-name="&lt;Path&gt;" d="M135.86,120.9V82.48a7.68,7.68,0,0,0-15.37,0V120.9" style="fill:none;stroke:#fff;stroke-linecap:round;stroke-linejoin:round;stroke-width:4px"/></g><g id="33204aa7-673a-463a-8470-68e05e771650" data-name="&lt;Group&gt;"><path id="566edc96-4a6f-4d9b-9ba6-bcb1a6fd337b" data-name="&lt;Path&gt;" d="M79,81.61a2.56,2.56,0,0,1,.47,1.48V126a2.56,2.56,0,0,1-2.56,2.56H66.71A2.56,2.56,0,0,1,64.14,126V83.09a2.56,2.56,0,0,1,.47-1.48l7.21-10.19Z" style="fill:none;stroke:#fff;stroke-linecap:round;stroke-linejoin:round;stroke-width:4px"/><line id="c84b4450-fc61-4a29-ac94-cc39dfa1baeb" data-name="&lt;Path&gt;" x1="64.14" y1="115.77" x2="79.51" y2="115.77" style="fill:none;stroke:#fff;stroke-linecap:round;stroke-linejoin:round;stroke-width:4px"/><line id="1ee6720e-675c-4dd9-ab8b-d0c4b503be85" data-name="&lt;Path&gt;" x1="64.14" y1="85.04" x2="79.51" y2="85.04" style="fill:none;stroke:#fff;stroke-linecap:round;stroke-linejoin:round;stroke-width:4px"/></g></g></g></svg>