<svg xmlns="http://www.w3.org/2000/svg" viewBox="0 0 200 200"><title>Rocket</title><g id="7bea5600-64ee-4207-873a-4b8f08ae937f" data-name="Rose"><rect x="25.04" y="25.04" width="149.93" height="149.93" rx="14.17" ry="14.17" transform="translate(100 -41.42) rotate(45)" style="fill:#f8485e"/></g><g id="a3288cf0-1be1-41a3-bfdc-43155c573844" data-name="Icon"><g id="da454d7e-3c51-4399-b940-35da375bf17a" data-name="&lt;Group&gt;"><polyline id="9964d6a9-d390-4b42-8ffa-27a8cc4d66c4" data-name="&lt;Path&gt;" points="110.18 127.22 113.57 140.79 86.43 140.79 89.82 127.22" style="fill:none;stroke:#fff;stroke-linecap:round;stroke-linejoin:round;stroke-width:4px"/><circle id="e7eb710e-7b49-4878-8732-2deb44f279ec" data-name="&lt;Path&gt;" cx="100" cy="89.89" r="10.18" style="fill:none;stroke:#fff;stroke-linecap:round;stroke-linejoin:round;stroke-width:4px"/><path id="e9ceb6d5-7dac-4d02-8d01-448b4e76e66f" data-name="&lt;Path&gt;" d="M123.38,102.48l2.21.92a13.54,13.54,0,0,1,8.35,12.52V134l-12.76-17.78" style="fill:none;stroke:#fff;stroke-linecap:round;stroke-linejoin:round;stroke-width:4px"/><path id="24b2b6cb-fdd9-4285-a8a8-0e47fb03dd44" data-name="&lt;Path&gt;" d="M76.62,102.48l-2.21.92a13.54,13.54,0,0,0-8.35,12.52V134l12.76-17.78" style="fill:none;stroke:#fff;stroke-linecap:round;stroke-linejoin:round;stroke-width:4px"/><path id="ef91afc0-f15f-4d8d-8072-1664f3ef72af" data-name="&lt;Path&gt;" d="M82.8,127.22H117.2a66.77,66.77,0,0,0,6.28-27.14c0-29.18-23.48-52.86-23.48-52.86S76.52,70.89,76.52,100.07A66.77,66.77,0,0,0,82.8,127.22Z" style="fill:none;stroke:#fff;stroke-linecap:round;stroke-linejoin:round;stroke-width:4px"/></g></g></svg>