<svg xmlns="http://www.w3.org/2000/svg" viewBox="0 0 200 200"><title>Snowman</title><g id="2c82825f-0ca2-4f47-8878-d4d48cc3cfd6" data-name="Rose"><rect x="25.04" y="25.04" width="149.93" height="149.93" rx="14.17" ry="14.17" transform="translate(100 -41.42) rotate(45)" style="fill:#f8485e"/></g><g id="ef9101ce-dbfa-4304-9977-a88a51c2ba89" data-name="Icon"><g id="8e1f377d-8eab-4a39-b7d9-ef850389f3ff" data-name="&lt;Group&gt;"><path id="ba7398a0-6359-4f86-bcbc-80320e7b29f3" data-name="&lt;Path&gt;" d="M80.86,140a25.69,25.69,0,0,1,6.71-39.66" style="fill:none;stroke:#fff;stroke-linecap:round;stroke-linejoin:round;stroke-width:4px"/><path id="73178009-e475-402a-bf72-2c05b02faf34" data-name="&lt;Path&gt;" d="M112.43,100.34A25.69,25.69,0,0,1,119.14,140" style="fill:none;stroke:#fff;stroke-linecap:round;stroke-linejoin:round;stroke-width:4px"/><path id="c74330e7-6cd0-42f2-b13d-a0d550d0fe22" data-name="&lt;Path&gt;" d="M109.46,74.29a17.14,17.14,0,1,1-18.91,0" style="fill:none;stroke:#fff;stroke-linecap:round;stroke-linejoin:round;stroke-width:4px"/><path id="485473ad-22f3-4e9a-a444-938aef94ab92" data-name="&lt;Path&gt;" d="M106.06,91.78a8.58,8.58,0,0,1-12.12,0" style="fill:none;stroke:#fff;stroke-linecap:round;stroke-linejoin:round;stroke-width:4px"/><polyline id="1b3f028f-4146-4f67-9e04-6d67602877ad" data-name="&lt;Path&gt;" points="134.29 140 119.14 140 80.86 140 65.71 140" style="fill:none;stroke:#fff;stroke-linecap:round;stroke-linejoin:round;stroke-width:4px"/><line id="1d257add-a313-4ee3-aa39-70ae75333dcf" data-name="&lt;Path&gt;" x1="120" y1="74.29" x2="80" y2="74.29" style="fill:none;stroke:#fff;stroke-linecap:round;stroke-linejoin:round;stroke-width:4px"/><path id="24678bf9-6dce-42c1-8fb3-175263ed35d9" data-name="&lt;Path&gt;" d="M88.57,74.29V62.86A2.86,2.86,0,0,1,91.43,60h17.14a2.86,2.86,0,0,1,2.86,2.86V74.29" style="fill:none;stroke:#fff;stroke-linecap:round;stroke-linejoin:round;stroke-width:4px"/></g></g></svg>