<svg xmlns="http://www.w3.org/2000/svg" viewBox="0 0 200 200"><title>SprayPaint</title><g id="aa97c09e-74fb-42f1-85e6-633e9888c9e0" data-name="Rose"><rect x="25.04" y="25.04" width="149.93" height="149.93" rx="14.17" ry="14.17" transform="translate(100 -41.42) rotate(45)" style="fill:#f8485e"/></g><g id="4c10456b-71b0-4a2c-9775-059cfc525cc7" data-name="Icon"><g id="212225e2-4897-4e14-821d-c43ffd3af61c" data-name="&lt;Group&gt;"><path id="d104d9e9-7a33-483c-9ffc-07fc3349dddd" data-name="&lt;Path&gt;" d="M89.76,75.13V66.71a2.56,2.56,0,0,1,2.56-2.56h5.12A2.56,2.56,0,0,1,100,66.71v8.43" style="fill:none;stroke:#fff;stroke-linecap:round;stroke-linejoin:round;stroke-width:4px"/><path id="e3d343fb-8220-49c9-a9d9-23eefcf051a8" data-name="&lt;Path&gt;" d="M94.88,74.39h0A17.93,17.93,0,0,0,76.95,92.32v41a2.56,2.56,0,0,0,2.56,2.56h30.73a2.56,2.56,0,0,0,2.56-2.56v-41A17.93,17.93,0,0,0,94.88,74.39Z" style="fill:none;stroke:#fff;stroke-linecap:round;stroke-linejoin:round;stroke-width:4px"/><line id="5c1ce844-19c6-4c1e-b35f-27deecff17e6" data-name="&lt;Path&gt;" x1="112.81" y1="92.32" x2="76.95" y2="92.32" style="fill:none;stroke:#fff;stroke-linecap:round;stroke-linejoin:round;stroke-width:4px"/><line id="b74a269f-03e6-4d2c-adf5-f8f15f18a460" data-name="&lt;Path&gt;" x1="107.68" y1="69.27" x2="112.81" y2="69.27" style="fill:none;stroke:#fff;stroke-linecap:round;stroke-linejoin:round;stroke-width:4px"/><line id="02681ec8-0871-48c1-b319-15b371ee8d8c" data-name="&lt;Path&gt;" x1="117.93" y1="64.14" x2="123.05" y2="64.14" style="fill:none;stroke:#fff;stroke-linecap:round;stroke-linejoin:round;stroke-width:4px"/><line id="b42fb7c0-1576-4b2b-a763-63e2fcfbb4c0" data-name="&lt;Path&gt;" x1="117.93" y1="74.39" x2="123.05" y2="74.39" style="fill:none;stroke:#fff;stroke-linecap:round;stroke-linejoin:round;stroke-width:4px"/></g></g></svg>