<svg xmlns="http://www.w3.org/2000/svg" viewBox="0 0 200 200"><title>Sunset</title><g id="921031a1-17ba-47ee-b27f-ec4b70f8e7e2" data-name="Rose"><rect x="25.04" y="25.04" width="149.93" height="149.93" rx="14.17" ry="14.17" transform="translate(100 -41.42) rotate(45)" style="fill:#f8485e"/></g><g id="fbd3f2a7-dd49-4b7b-ac73-859b70635e1d" data-name="Icon"><g id="a0423e8d-dab4-44d6-a9fe-1dda862d9762" data-name="&lt;Group&gt;"><line id="019d4f27-8377-4614-a320-63566ff6a752" data-name="&lt;Path&gt;" x1="138.94" y1="101.5" x2="132.07" y2="101.5" style="fill:none;stroke:#fff;stroke-linecap:round;stroke-linejoin:round;stroke-width:4px"/><g id="2f8c0cfe-8a9d-45d9-abe5-71cb6600e10c" data-name="&lt;Group&gt;"><line id="8a9d97fd-88b0-4cb3-b036-9f8582b4adcd" data-name="&lt;Path&gt;" x1="100" y1="62.56" x2="100" y2="69.42" style="fill:none;stroke:#fff;stroke-linecap:round;stroke-linejoin:round;stroke-width:4px"/><path id="5247c262-be37-4efe-ae0e-291e62fccf18" data-name="&lt;Path&gt;" d="M117.19,113.48a20.64,20.64,0,0,0,3.77-12,21,21,0,1,0-41.94,0,20.64,20.64,0,0,0,3.77,12" style="fill:none;stroke:#fff;stroke-linecap:round;stroke-linejoin:round;stroke-width:4px"/><line id="94df6b1a-67ad-40cf-8146-5d020987bfbe" data-name="&lt;Path&gt;" x1="67.93" y1="101.5" x2="61.06" y2="101.5" style="fill:none;stroke:#fff;stroke-linecap:round;stroke-linejoin:round;stroke-width:4px"/><line id="4e0c7236-b9d1-4ef8-88ab-8939996a4a25" data-name="&lt;Path&gt;" x1="127.54" y1="73.96" x2="124.18" y2="77.32" style="fill:none;stroke:#fff;stroke-linecap:round;stroke-linejoin:round;stroke-width:4px"/><line id="3c64403c-74bd-46ac-aea0-64ab8a3d3d29" data-name="&lt;Path&gt;" x1="75.82" y1="77.32" x2="72.46" y2="73.96" style="fill:none;stroke:#fff;stroke-linecap:round;stroke-linejoin:round;stroke-width:4px"/><line id="97a99186-ff57-4a18-9b1d-d851d8042368" data-name="&lt;Path&gt;" x1="55.07" y1="113.48" x2="144.93" y2="113.48" style="fill:none;stroke:#fff;stroke-linecap:round;stroke-linejoin:round;stroke-width:4px"/><line id="d351ada7-8a11-4f33-9b46-1b398563bb69" data-name="&lt;Path&gt;" x1="61.06" y1="125.46" x2="138.94" y2="125.46" style="fill:none;stroke:#fff;stroke-linecap:round;stroke-linejoin:round;stroke-width:4px"/><line id="4c369fdc-75df-4a8f-96b0-bc47cacea9b1" data-name="&lt;Path&gt;" x1="73.04" y1="137.44" x2="126.96" y2="137.44" style="fill:none;stroke:#fff;stroke-linecap:round;stroke-linejoin:round;stroke-width:4px"/></g></g></g></svg>