<svg xmlns="http://www.w3.org/2000/svg" viewBox="0 0 200 200"><title>WebLove</title><g id="955e2899-d9aa-4eee-aa47-69b32f80420d" data-name="Rose"><rect x="25.04" y="25.04" width="149.93" height="149.93" rx="14.17" ry="14.17" transform="translate(100 -41.42) rotate(45)" style="fill:#f8485e"/></g><g id="74132b3f-1d3d-4a5a-a401-3e0dc0b0b3f0" data-name="Icon"><g id="ff1b9942-0364-4c61-93b9-bea12f81903e" data-name="&lt;Group&gt;"><polyline id="af0b4568-d1bd-4b6f-b135-02ebb28d7ef9" data-name="&lt;Path&gt;" points="112.19 124.33 135.86 124.33 135.86 67.99 64.14 67.99 64.14 124.33 87.81 124.33" style="fill:none;stroke:#fff;stroke-linecap:round;stroke-linejoin:round;stroke-width:4px"/><line id="1774e39e-47de-424c-a96d-f76ed823702d" data-name="&lt;Path&gt;" x1="92.32" y1="78.23" x2="97.44" y2="78.23" style="fill:none;stroke:#fff;stroke-linecap:round;stroke-linejoin:round;stroke-width:4px"/><line id="5546eb95-b76b-421a-8b30-308c497d9148" data-name="&lt;Path&gt;" x1="82.07" y1="78.23" x2="87.19" y2="78.23" style="fill:none;stroke:#fff;stroke-linecap:round;stroke-linejoin:round;stroke-width:4px"/><line id="3a3ee85e-c51c-4602-8ec0-60e600a290b0" data-name="&lt;Path&gt;" x1="71.83" y1="78.23" x2="76.95" y2="78.23" style="fill:none;stroke:#fff;stroke-linecap:round;stroke-linejoin:round;stroke-width:4px"/><path id="83c00742-f400-4f6d-a32c-598bc2451c7c" data-name="&lt;Path&gt;" d="M89.76,96.16c-5.67,0-10.24,5.33-10.24,11.93,0,13.22,10.2,17.76,20.49,23.93,10.29-6.17,20.49-10.71,20.49-23.93,0-6.6-4.58-11.93-10.24-11.93A13.63,13.63,0,0,0,100,101.68,13.63,13.63,0,0,0,89.76,96.16Z" style="fill:none;stroke:#fff;stroke-linecap:round;stroke-linejoin:round;stroke-width:4px"/></g></g></svg>