<svg xmlns="http://www.w3.org/2000/svg" viewBox="0 0 200 200"><title>Bell</title><g id="ea0a286d-5f07-44e3-82a6-4a9dfdbff720" data-name="Sky"><rect x="25.04" y="25.04" width="149.93" height="149.93" rx="14.17" ry="14.17" transform="translate(100 -41.42) rotate(45)" style="fill:#00b5e2"/></g><g id="f8d643d2-f6de-4263-a311-dab04d0037d9" data-name="Icon"><g id="5e90c5fe-4964-4c17-b6a7-aeeda620efd6" data-name="&lt;Group&gt;"><path id="73eddbed-d363-4ef6-9b97-258c8ede0c9d" data-name="&lt;Path&gt;" d="M104.17,72.24a5,5,0,0,0,.95-3,5.12,5.12,0,1,0-10.24,0,5,5,0,0,0,.95,3" style="fill:none;stroke:#fff;stroke-linecap:round;stroke-linejoin:round;stroke-width:4px"/><path id="5848642b-385a-46bb-a4a7-60dd28d9eb36" data-name="&lt;Path&gt;" d="M75.41,115.37l1.18-2.92a41.3,41.3,0,0,0,2.92-15.21V92.32a20.49,20.49,0,1,1,41,0v4.92a41.3,41.3,0,0,0,2.92,15.21l1.18,2.92" style="fill:none;stroke:#fff;stroke-linecap:round;stroke-linejoin:round;stroke-width:4px"/><path id="01b332ba-0fba-4217-8ba0-351f6b381f1a" data-name="&lt;Path&gt;" d="M110.24,125.61a10.24,10.24,0,0,1-20.49,0" style="fill:none;stroke:#fff;stroke-linecap:round;stroke-linejoin:round;stroke-width:4px"/><path id="4c3f4faf-c8eb-4b0b-af92-e87771672d03" data-name="&lt;Path&gt;" d="M125.61,125.61H74.39a5.12,5.12,0,0,1-5.12-5.12h0a5.12,5.12,0,0,1,5.12-5.12h51.22a5.12,5.12,0,0,1,5.12,5.12h0A5.12,5.12,0,0,1,125.61,125.61Z" style="fill:none;stroke:#fff;stroke-linecap:round;stroke-linejoin:round;stroke-width:4px"/></g></g></svg>