<svg xmlns="http://www.w3.org/2000/svg" viewBox="0 0 200 200"><title>Bus</title><g id="418d35d8-c92b-410e-b30b-9b8bb329d270" data-name="Sky"><rect x="25.04" y="25.04" width="149.93" height="149.93" rx="14.17" ry="14.17" transform="translate(100 -41.42) rotate(45)" style="fill:#00b5e2"/></g><g id="a689cf9f-3fba-4afc-b965-9d0207c8c7d4" data-name="Icon"><g id="1f5381c8-c409-4600-ae4e-82554c38d62b" data-name="&lt;Group&gt;"><path id="f2b6feae-49d7-40af-89ad-102c56878105" data-name="&lt;Path&gt;" d="M88.85,122.31V129a2.24,2.24,0,0,1-2.23,2.23H79.92A2.24,2.24,0,0,1,77.69,129v-6.69" style="fill:none;stroke:#fff;stroke-linecap:round;stroke-linejoin:round;stroke-width:4px"/><path id="8cf89a81-e0ec-48cd-b9f7-4e3f17f7169e" data-name="&lt;Path&gt;" d="M122.31,122.31V129a2.24,2.24,0,0,1-2.23,2.23h-6.69a2.24,2.24,0,0,1-2.23-2.23v-6.69" style="fill:none;stroke:#fff;stroke-linecap:round;stroke-linejoin:round;stroke-width:4px"/><rect id="8f9c60e4-a605-4b3b-8317-14c4716823a2" data-name="&lt;Rectangle&gt;" x="71" y="68.77" width="58" height="53.54" rx="2" ry="2" style="fill:none;stroke:#fff;stroke-linecap:round;stroke-linejoin:round;stroke-width:4px"/><line id="94d7ff35-d42c-40aa-afbd-05ef6681941d" data-name="&lt;Path&gt;" x1="71" y1="77.69" x2="129" y2="77.69" style="fill:none;stroke:#fff;stroke-linecap:round;stroke-linejoin:round;stroke-width:4px"/><line id="d1f6ff85-d637-43fc-8079-4a95dbbce3d0" data-name="&lt;Path&gt;" x1="71" y1="102.23" x2="129" y2="102.23" style="fill:none;stroke:#fff;stroke-linecap:round;stroke-linejoin:round;stroke-width:4px"/><circle id="d21b779f-f144-4829-99b9-5e640affa122" data-name="&lt;Path&gt;" cx="83.27" cy="112.27" r="3.35" style="fill:none;stroke:#fff;stroke-linecap:round;stroke-linejoin:round;stroke-width:4px"/><circle id="484d1d9a-65c8-49aa-ad88-24a3079f70b4" data-name="&lt;Path&gt;" cx="116.73" cy="112.27" r="3.35" style="fill:none;stroke:#fff;stroke-linecap:round;stroke-linejoin:round;stroke-width:4px"/></g></g></svg>