<svg xmlns="http://www.w3.org/2000/svg" viewBox="0 0 200 200"><title>Cocktail</title><g id="3aaf637a-a795-469e-97e9-e685a9d44ae9" data-name="Sky"><rect x="25.04" y="25.04" width="149.93" height="149.93" rx="14.17" ry="14.17" transform="translate(100 -41.42) rotate(45)" style="fill:#00b5e2"/></g><g id="c72e4e80-f8e4-42d5-bcec-10b800677a48" data-name="Icon"><g id="8d800e09-3dab-4d04-bd63-fa7d3cd3230e" data-name="&lt;Group&gt;"><polyline id="d37ebfa3-bc17-4f21-b3d1-98a366184908" data-name="&lt;Path&gt;" points="67.89 76 82.63 81.9 82.63 99.59" style="fill:none;stroke:#fff;stroke-linecap:round;stroke-linejoin:round;stroke-width:4px"/><path id="0f26ef4c-d46c-43cd-9ab2-3f0ad6c1d2e1" data-name="&lt;Path&gt;" d="M132.11,84.75c-12,1-25.68-7-30.67-17.88l25.14-7.75Z" style="fill:none;stroke:#fff;stroke-linecap:round;stroke-linejoin:round;stroke-width:4px"/><line id="e1662769-36f6-4a4a-acc7-a2d98383f4f4" data-name="&lt;Path&gt;" x1="113.56" y1="79.89" x2="101.24" y2="99.59" style="fill:none;stroke:#fff;stroke-linecap:round;stroke-linejoin:round;stroke-width:4px"/><path id="83737a2a-b723-44fe-b8fb-80df624334de" data-name="&lt;Path&gt;" d="M122.64,99.59l-4.51,7.25-6.28-7.25H72a34.8,34.8,0,0,0-1.12,8.85c0,17.93,13.21,32.44,29.49,32.44s29.49-14.51,29.49-32.44a34.8,34.8,0,0,0-1.12-8.85Z" style="fill:none;stroke:#fff;stroke-linecap:round;stroke-linejoin:round;stroke-width:4px"/></g></g></svg>