<svg xmlns="http://www.w3.org/2000/svg" viewBox="0 0 200 200"><title>Cutlery</title><g id="4296de6c-78bd-4b37-984e-95ad2b9a32e7" data-name="Sky"><rect x="25.04" y="25.04" width="149.93" height="149.93" rx="14.17" ry="14.17" transform="translate(100 -41.42) rotate(45)" style="fill:#00b5e2"/></g><g id="1af28d01-dec4-4d90-809f-034698bbe5c5" data-name="Icon"><g id="8b8a16fc-091c-4b88-82f0-e3038c20d268" data-name="&lt;Group&gt;"><g id="1328d3e3-d9af-4f02-8dfa-b622252569a2" data-name="&lt;Group&gt;"><line id="f007d6f2-fcfc-4296-85b3-c9caa735242b" data-name="&lt;Path&gt;" x1="84.28" y1="62" x2="84.28" y2="80.34" style="fill:none;stroke:#fff;stroke-linecap:round;stroke-linejoin:round;stroke-width:4px"/><path id="ebb10c0a-011f-4dca-9cce-4e547084f5c1" data-name="&lt;Path&gt;" d="M71.17,62V80.34A13.16,13.16,0,0,0,75,89.62a13.45,13.45,0,0,0,4,2.75v40.38A5.24,5.24,0,0,0,84.28,138h0a5.24,5.24,0,0,0,5.24-5.24V92.37a13.18,13.18,0,0,0,7.86-12V62" style="fill:none;stroke:#fff;stroke-linecap:round;stroke-linejoin:round;stroke-width:4px"/></g><path id="b7522bc4-bce1-41a4-ab1f-fffa9d9e39cb" data-name="&lt;Path&gt;" d="M118.34,103.93l-2.1,27.29a6.3,6.3,0,0,0,6.28,6.78h0a6.3,6.3,0,0,0,6.3-6.3V64.62A15.74,15.74,0,0,0,113.1,80.34v23.59Z" style="fill:none;stroke:#fff;stroke-linecap:round;stroke-linejoin:round;stroke-width:4px"/></g></g></svg>