<svg xmlns="http://www.w3.org/2000/svg" viewBox="0 0 200 200"><title>Design</title><g id="19cdafad-dca9-4026-a71c-61ebe3442bc1" data-name="Sky"><rect x="25.04" y="25.04" width="149.93" height="149.93" rx="14.17" ry="14.17" transform="translate(100 -41.42) rotate(45)" style="fill:#00b5e2"/></g><g id="71cc852f-07f0-4617-b7ab-76125d3ef940" data-name="Icon"><g id="4b1bdc6c-6907-4253-a9a7-5d3f55e5bb35" data-name="&lt;Group&gt;"><polyline id="4fb40f7c-549b-4dc3-a3f1-43f215b4683a" data-name="&lt;Path&gt;" points="113.91 103.15 131.79 121.03 135.37 135.37 121.03 131.79 103.13 113.89" style="fill:none;stroke:#fff;stroke-linecap:round;stroke-linejoin:round;stroke-width:4px"/><path id="9d56b3ae-cdc6-4396-af16-7b82094c6892" data-name="&lt;Path&gt;" d="M87.07,97.83,65.38,76.13a2.52,2.52,0,0,1,0-3.59L69,69l3.59-3.59a2.52,2.52,0,0,1,3.59,0L97.85,87.1" style="fill:none;stroke:#fff;stroke-linecap:round;stroke-linejoin:round;stroke-width:4px"/><line id="2171facc-3ba2-4f93-a626-79b06b5bf90e" data-name="&lt;Path&gt;" x1="131.78" y1="121.03" x2="121.03" y2="131.78" style="fill:none;stroke:#fff;stroke-linecap:round;stroke-linejoin:round;stroke-width:4px"/><line id="f7bc8a56-520c-481e-8001-9fede50cb644" data-name="&lt;Path&gt;" x1="85.35" y1="74.6" x2="74.55" y2="85.3" style="fill:none;stroke:#fff;stroke-linecap:round;stroke-linejoin:round;stroke-width:4px"/><g id="cbb15607-470f-4608-80cc-7f992b5a762f" data-name="&lt;Group&gt;"><rect id="068933ca-f6d7-46ea-ae51-3ab92edd4172" data-name="&lt;Path&gt;" x="62.64" y="89.13" width="75.7" height="22.71" transform="translate(-41.62 100.48) rotate(-45)" style="fill:none;stroke:#fff;stroke-linecap:round;stroke-linejoin:round;stroke-width:4px"/><line id="fa582578-69fc-4d0b-82e6-e542ec2b7730" data-name="&lt;Path&gt;" x1="74.61" y1="110.3" x2="79.97" y2="115.66" style="fill:none;stroke:#fff;stroke-linecap:round;stroke-linejoin:round;stroke-width:4px"/><line id="f297f6ab-aa66-4f9e-b6c5-8c99adf90ccd" data-name="&lt;Path&gt;" x1="83.54" y1="101.38" x2="90.68" y2="108.52" style="fill:none;stroke:#fff;stroke-linecap:round;stroke-linejoin:round;stroke-width:4px"/><line id="4584742c-0314-476d-bb48-da79291eda35" data-name="&lt;Path&gt;" x1="92.46" y1="92.46" x2="97.81" y2="97.81" style="fill:none;stroke:#fff;stroke-linecap:round;stroke-linejoin:round;stroke-width:4px"/><line id="e19f3e5f-8ccb-4117-9f39-955780178a2c" data-name="&lt;Path&gt;" x1="101.38" y1="83.54" x2="108.52" y2="90.68" style="fill:none;stroke:#fff;stroke-linecap:round;stroke-linejoin:round;stroke-width:4px"/><line id="1df18469-3045-457b-8d2d-449bf31099eb" data-name="&lt;Path&gt;" x1="110.3" y1="74.62" x2="115.66" y2="79.97" style="fill:none;stroke:#fff;stroke-linecap:round;stroke-linejoin:round;stroke-width:4px"/></g></g></g></svg>