<svg xmlns="http://www.w3.org/2000/svg" viewBox="0 0 200 200"><title>Diamond</title><g id="0b180d69-c4ab-4189-90c6-d56ed0cc6dea" data-name="Sky"><rect x="25.04" y="25.04" width="149.93" height="149.93" rx="14.17" ry="14.17" transform="translate(100 -41.42) rotate(45)" style="fill:#00b5e2"/></g><g id="5aa42131-d092-4a25-be7e-6154f4352147" data-name="Icon"><g id="d004e5bb-8d03-419f-b08d-61cf95ed2ad8" data-name="&lt;Group&gt;"><polygon id="36097aac-f63f-44ff-ab8d-3602171a31d2" data-name="&lt;Path&gt;" points="101 144.31 62 98.04 75.96 77.69 101 77.69 126.04 77.69 140 98.04 101 144.31" style="fill:none;stroke:#fff;stroke-linecap:round;stroke-linejoin:round;stroke-width:4px"/><polyline id="bfa067d9-e9fe-4438-a8bf-b866850a383f" data-name="&lt;Path&gt;" points="62 98.04 71.75 98.04 81.5 98.04 91.25 98.04 101 98.04 110.75 98.04 120.5 98.04 130.25 98.04 140 98.04" style="fill:none;stroke:#fff;stroke-linecap:round;stroke-linejoin:round;stroke-width:4px"/><line id="6bf99b29-2209-40a2-8459-5f6631730859" data-name="&lt;Path&gt;" x1="113.58" y1="98.04" x2="101" y2="77.69" style="fill:none;stroke:#fff;stroke-linecap:round;stroke-linejoin:round;stroke-width:4px"/><line id="72a4c566-5940-46f8-98a4-6a090ca32570" data-name="&lt;Path&gt;" x1="101" y1="77.69" x2="88.42" y2="98.04" style="fill:none;stroke:#fff;stroke-linecap:round;stroke-linejoin:round;stroke-width:4px"/><polyline id="daf79be0-dd44-4f1d-97c4-13245807532e" data-name="&lt;Path&gt;" points="101 144.31 88.42 98.04 75.96 77.69" style="fill:none;stroke:#fff;stroke-linecap:round;stroke-linejoin:round;stroke-width:4px"/><polyline id="22d7f194-2549-43f9-bcb1-69386819eae9" data-name="&lt;Path&gt;" points="101 144.31 113.58 98.04 126.04 77.69" style="fill:none;stroke:#fff;stroke-linecap:round;stroke-linejoin:round;stroke-width:4px"/></g></g></svg>