<svg xmlns="http://www.w3.org/2000/svg" viewBox="0 0 200 200"><title>Direction</title><g id="9ac41175-e77d-47ff-8c0f-096868bb2236" data-name="Sky"><rect x="25.04" y="25.04" width="149.93" height="149.93" rx="14.17" ry="14.17" transform="translate(100 -41.42) rotate(45)" style="fill:#00b5e2"/></g><g id="7f8660fa-c793-41a1-87c1-9dbbc474c06e" data-name="Icon"><g id="ad23431b-6d01-430f-a4db-82f9b7740758" data-name="&lt;Group&gt;"><path id="3e290a2e-36f2-4cef-a8f4-a421d5376584" data-name="&lt;Path&gt;" d="M93.84,73.2V67A6.16,6.16,0,0,1,100,60.88h0A6.16,6.16,0,0,1,106.16,67V73.2" style="fill:none;stroke:#fff;stroke-linecap:round;stroke-linejoin:round;stroke-width:4px"/><line id="c61e9eff-4541-48a8-a4a3-e0f20b175c55" data-name="&lt;Path&gt;" x1="106.16" y1="104" x2="106.16" y2="91.68" style="fill:none;stroke:#fff;stroke-linecap:round;stroke-linejoin:round;stroke-width:4px"/><line id="ebe28e57-57ce-42db-be56-401a0adf6c4c" data-name="&lt;Path&gt;" x1="106.16" y1="147.12" x2="106.16" y2="122.48" style="fill:none;stroke:#fff;stroke-linecap:round;stroke-linejoin:round;stroke-width:4px"/><line id="d06f90c0-bf5d-44c5-b119-6f378e176d79" data-name="&lt;Path&gt;" x1="93.84" y1="104" x2="93.84" y2="91.68" style="fill:none;stroke:#fff;stroke-linecap:round;stroke-linejoin:round;stroke-width:4px"/><line id="c17bb182-85e8-4460-8ec6-279a7cff613c" data-name="&lt;Path&gt;" x1="93.84" y1="147.12" x2="93.84" y2="122.48" style="fill:none;stroke:#fff;stroke-linecap:round;stroke-linejoin:round;stroke-width:4px"/><polygon id="192b38fd-0864-41cb-8e58-3606ef5e94c4" data-name="&lt;Path&gt;" points="122.97 91.68 94.34 91.68 65.72 91.68 71.92 82.44 65.72 73.2 94.34 73.2 122.97 73.2 128.98 77.82 135 82.44 128.98 87.06 122.97 91.68" style="fill:none;stroke:#fff;stroke-linecap:round;stroke-linejoin:round;stroke-width:4px"/><polygon id="3b1e0140-e3df-43ae-a8a1-e44e137293f0" data-name="&lt;Path&gt;" points="77.03 104 105.66 104 134.29 104 128.09 113.24 134.29 122.48 105.66 122.48 77.03 122.48 71.02 117.86 65 113.24 71.02 108.62 77.03 104" style="fill:none;stroke:#fff;stroke-linecap:round;stroke-linejoin:round;stroke-width:4px"/><line id="9bfbbf8f-41bf-4b03-9b1c-a43d5974a0e1" data-name="&lt;Path&gt;" x1="84.6" y1="147.12" x2="115.4" y2="147.12" style="fill:none;stroke:#fff;stroke-linecap:round;stroke-linejoin:round;stroke-width:4px"/></g></g></svg>