<svg xmlns="http://www.w3.org/2000/svg" viewBox="0 0 200 200"><title>DoNotDisturb</title><g id="b1a9ee22-6233-4c25-b1e0-6dd2e56a4a8a" data-name="Sky"><rect x="25.04" y="25.04" width="149.93" height="149.93" rx="14.17" ry="14.17" transform="translate(100 -41.42) rotate(45)" style="fill:#00b5e2"/></g><g id="56b567a5-3e8a-4c7f-a9a0-d935c1f1fea9" data-name="Icon"><g id="5bdc8063-6eac-45d6-a0d0-b0258114aa5f" data-name="&lt;Group&gt;"><path id="994c63e4-2f1b-4b7f-bd81-90fd2b1cc828" data-name="&lt;Path&gt;" d="M120,80v60H80V105l24.07-16.18a10.17,10.17,0,0,0,4.5-8.44h0a8.83,8.83,0,0,0-6.84-8.78A8.59,8.59,0,0,0,91.43,80v2.86H80v-2C80,69.47,89.3,59.65,100.65,60A20,20,0,0,1,120,80Z" style="fill:none;stroke:#fff;stroke-linecap:round;stroke-linejoin:round;stroke-width:4px"/><path id="a7eaf43f-9116-413b-b25e-eac31bd40848" data-name="&lt;Path&gt;" d="M111.43,120a11.43,11.43,0,1,1-3.35-8.08A11.39,11.39,0,0,1,111.43,120Z" style="fill:none;stroke:#fff;stroke-linecap:round;stroke-linejoin:round;stroke-width:4px"/><line id="1d3a0362-2dc6-4191-aa5d-6bbb079b217d" data-name="&lt;Path&gt;" x1="108.08" y1="111.92" x2="91.92" y2="128.08" style="fill:none;stroke:#fff;stroke-linecap:round;stroke-linejoin:round;stroke-width:4px"/></g></g></svg>