<svg xmlns="http://www.w3.org/2000/svg" viewBox="0 0 200 200"><title>Gift</title><g id="fef7d1fe-c56d-480d-8645-bb8741a3fa05" data-name="Sky"><rect x="25.04" y="25.04" width="149.93" height="149.93" rx="14.17" ry="14.17" transform="translate(100 -41.42) rotate(45)" style="fill:#00b5e2"/></g><g id="bcae2b0a-2c3b-4faa-af59-9d18bbc72dae" data-name="Icon"><g id="685c7a73-e2e1-40e2-b9b4-26e1b0347595" data-name="&lt;Group&gt;"><line id="58e82d5d-3303-46fe-b92c-9af84aa437cd" data-name="&lt;Path&gt;" x1="94.29" y1="98.62" x2="94.29" y2="140" style="fill:none;stroke:#fff;stroke-linecap:round;stroke-linejoin:round;stroke-width:4px"/><line id="91dfdfc9-23c4-4e65-8e0f-d21c28c037b5" data-name="&lt;Path&gt;" x1="105.71" y1="98.62" x2="105.71" y2="140" style="fill:none;stroke:#fff;stroke-linecap:round;stroke-linejoin:round;stroke-width:4px"/><path id="47433b37-2118-4499-b0ed-de0f3a19c1f9" data-name="&lt;Path&gt;" d="M108.63,80c3.34-1,9.54-3.89,12.54-8.17a8.25,8.25,0,0,0,1.37-7.14A6.52,6.52,0,0,0,115.66,60c-8.29.71-14.17,10.69-15.4,20" style="fill:none;stroke:#fff;stroke-linecap:round;stroke-linejoin:round;stroke-width:4px"/><path id="bbd2a2b7-58f2-4b08-848c-154497f7c2a7" data-name="&lt;Path&gt;" d="M91.6,80c-2.51-1.06-5.74-2.91-7.49-5.4a6.21,6.21,0,0,1-1-5.37,4.92,4.92,0,0,1,5.17-3.49c6,.49,10.31,7.49,11.46,14.26" style="fill:none;stroke:#fff;stroke-linecap:round;stroke-linejoin:round;stroke-width:4px"/><rect id="b1ec1e57-a45a-40d1-880b-9968d79a58e2" data-name="&lt;Rectangle&gt;" x="60" y="80" width="80" height="17.14" style="fill:none;stroke:#fff;stroke-linecap:round;stroke-linejoin:round;stroke-width:4px"/><polyline id="664008a9-d349-4d62-bcaa-8ea34bb0ff48" data-name="&lt;Path&gt;" points="134.29 97.14 134.29 140 65.71 140 65.71 97.14" style="fill:none;stroke:#fff;stroke-linecap:round;stroke-linejoin:round;stroke-width:4px"/></g></g></svg>