<svg xmlns="http://www.w3.org/2000/svg" viewBox="0 0 200 200"><title>Glasses</title><g id="f31f28d5-02fe-4dc5-a554-b91e6d8b21b8" data-name="Sky"><rect x="25.04" y="25.04" width="149.93" height="149.93" rx="14.17" ry="14.17" transform="translate(100 -41.42) rotate(45)" style="fill:#00b5e2"/></g><g id="287b09fd-1ccd-4de4-b26f-3eb8abb338d4" data-name="Icon"><g id="b24935d2-0d7b-48aa-bfe5-7c7221fab67e" data-name="&lt;Group&gt;"><path id="e9815f00-d733-41cd-b063-b629510d6e78" data-name="&lt;Path&gt;" d="M87.19,71.83h-2.3a7.68,7.68,0,0,0-7.22,5.06L69.27,100" style="fill:none;stroke:#fff;stroke-linecap:round;stroke-linejoin:round;stroke-width:4px"/><path id="594fe6ee-b4ab-44d6-b0b9-4e0e69ac54c7" data-name="&lt;Path&gt;" d="M112.81,71.83h2.3a7.68,7.68,0,0,1,7.22,5.06L130.73,100" style="fill:none;stroke:#fff;stroke-linecap:round;stroke-linejoin:round;stroke-width:4px"/><path id="8b43d8ad-7727-47db-b571-e2f6fd17b964" data-name="&lt;Rectangle&gt;" d="M66.14,100H92.88a2,2,0,0,1,2,2v18.17a8,8,0,0,1-8,8H66.14a2,2,0,0,1-2-2V102A2,2,0,0,1,66.14,100Z" style="fill:none;stroke:#fff;stroke-linecap:round;stroke-linejoin:round;stroke-width:4px"/><path id="c2d19900-7599-491c-8852-e3156f7f22f4" data-name="&lt;Rectangle&gt;" d="M107.12,100h26.73a2,2,0,0,1,2,2v24.17a2,2,0,0,1-2,2H113.12a8,8,0,0,1-8-8V102A2,2,0,0,1,107.12,100Z" style="fill:none;stroke:#fff;stroke-linecap:round;stroke-linejoin:round;stroke-width:4px"/><line id="c480206a-a3f8-4c00-95aa-a2c72034ca72" data-name="&lt;Path&gt;" x1="105.28" y1="110.24" x2="94.72" y2="110.24" style="fill:none;stroke:#fff;stroke-linecap:round;stroke-linejoin:round;stroke-width:4px"/></g></g></svg>