<svg xmlns="http://www.w3.org/2000/svg" viewBox="0 0 200 200"><title>Global</title><g id="1878fd8b-b2c0-43fd-8470-dd554531abda" data-name="Sky"><rect x="25.04" y="25.04" width="149.93" height="149.93" rx="14.17" ry="14.17" transform="translate(100 -41.42) rotate(45)" style="fill:#00b5e2"/></g><g id="240c05ad-6967-46b1-b3c1-9b856a32ebc9" data-name="Icon"><g id="e990c983-025e-487d-b322-50750a88ac36" data-name="&lt;Group&gt;"><line id="1be0e565-beb0-4bb4-8793-6c671035f1c7" data-name="&lt;Path&gt;" x1="100" y1="60" x2="100" y2="140" style="fill:none;stroke:#fff;stroke-linecap:round;stroke-linejoin:round;stroke-width:4px"/><line id="b915c268-ef96-4b4b-b9b9-0f0ddb840866" data-name="&lt;Path&gt;" x1="60" y1="100" x2="140" y2="100" style="fill:none;stroke:#fff;stroke-linecap:round;stroke-linejoin:round;stroke-width:4px"/><path id="d963b0c7-eebe-43d5-b9be-2b48a17ae819" data-name="&lt;Path&gt;" d="M109.2,138.94l0,0a62.3,62.3,0,0,0,0-77.83l0,0" style="fill:none;stroke:#fff;stroke-linecap:round;stroke-linejoin:round;stroke-width:4px"/><path id="b060725c-80fa-4787-9a82-74cc0bfee6b0" data-name="&lt;Path&gt;" d="M90.8,138.94l0,0a62.3,62.3,0,0,1,0-77.83l0,0" style="fill:none;stroke:#fff;stroke-linecap:round;stroke-linejoin:round;stroke-width:4px"/><path id="81cdad0a-2929-49f9-93c5-d7fcec78bf51" data-name="&lt;Path&gt;" d="M129.23,72.71a62.32,62.32,0,0,1-58.46,0" style="fill:none;stroke:#fff;stroke-linecap:round;stroke-linejoin:round;stroke-width:4px"/><path id="9b0fc21d-29e5-4d67-8fac-4a97e2770404" data-name="&lt;Path&gt;" d="M70.77,127.29a62.32,62.32,0,0,1,58.46,0" style="fill:none;stroke:#fff;stroke-linecap:round;stroke-linejoin:round;stroke-width:4px"/><circle id="5e680504-09e1-473e-a4b8-7afa06b90864" data-name="&lt;Path&gt;" cx="100" cy="100" r="40" style="fill:none;stroke:#fff;stroke-linecap:round;stroke-linejoin:round;stroke-width:4px"/></g></g></svg>