<svg xmlns="http://www.w3.org/2000/svg" viewBox="0 0 200 200"><title>Lightbulb</title><g id="e0922f2f-653f-4c6a-8a61-f3736d16d500" data-name="Sky"><rect x="25.04" y="25.04" width="149.93" height="149.93" rx="14.17" ry="14.17" transform="translate(100 -41.42) rotate(45)" style="fill:#00b5e2"/></g><g id="e2ea4f61-6f1e-4878-a2c0-6dde554f8ab3" data-name="Icon"><g id="dc23a6f3-d847-439d-8181-5cf9e50b7434" data-name="&lt;Group&gt;"><line id="a9de0296-fcc3-48e1-bde8-79293ecfacb1" data-name="&lt;Path&gt;" x1="100" y1="127" x2="100" y2="103" style="fill:none;stroke:#fff;stroke-linecap:round;stroke-linejoin:round;stroke-width:4px"/><path id="70a8568a-5353-42b2-b66c-310a1630c052" data-name="&lt;Path&gt;" d="M88,136.35V139a3,3,0,0,0,3,3h18a3,3,0,0,0,3-3v-2.65a30,30,0,0,1,2.57-12.16l1.44-3.24a141.64,141.64,0,0,1,9.49-17.15,30,30,0,1,0-51,0A141.64,141.64,0,0,1,84,120.95l1.44,3.24A30,30,0,0,1,88,136.35Z" style="fill:none;stroke:#fff;stroke-linecap:round;stroke-linejoin:round;stroke-width:4px"/><line id="29e3745d-cede-4c73-b006-fa712dae3f53" data-name="&lt;Path&gt;" x1="87.31" y1="127" x2="112.69" y2="127" style="fill:none;stroke:#fff;stroke-linecap:round;stroke-linejoin:round;stroke-width:4px"/><polyline id="881a2b17-cb08-45de-a0e5-0891751d2a23" data-name="&lt;Path&gt;" points="84.06 91.92 89.36 96.38 94.68 91.92 99.98 96.38 105.3 91.92 110.62 96.38 115.94 91.92" style="fill:none;stroke:#fff;stroke-linecap:round;stroke-linejoin:round;stroke-width:4px"/></g></g></svg>