<svg xmlns="http://www.w3.org/2000/svg" viewBox="0 0 200 200"><title>Luggage</title><g id="45d5f1cf-0343-4c86-b023-61200481c69b" data-name="Sky"><rect x="25.04" y="25.04" width="149.93" height="149.93" rx="14.17" ry="14.17" transform="translate(100 -41.42) rotate(45)" style="fill:#00b5e2"/></g><g id="8e9bf331-3042-475e-95bd-aa8a019675c5" data-name="Icon"><g id="3f58019b-4454-4b79-b638-7fbe5654f4c6" data-name="&lt;Group&gt;"><path id="066676be-e381-423f-9321-bf462799495a" data-name="&lt;Path&gt;" d="M62,71.19l5.95,5.95v36.32a5.19,5.19,0,0,0,5.19,5.19H138" style="fill:none;stroke:#fff;stroke-linecap:round;stroke-linejoin:round;stroke-width:4px"/><circle id="828f9b0d-0bb6-49c9-858a-20080076cff3" data-name="&lt;Path&gt;" cx="125.03" cy="131.62" r="5.19" style="fill:none;stroke:#fff;stroke-linecap:round;stroke-linejoin:round;stroke-width:4px"/><circle id="1a300be5-3aea-44e6-8c64-339c71808593" data-name="&lt;Path&gt;" cx="78.33" cy="131.62" r="5.19" style="fill:none;stroke:#fff;stroke-linecap:round;stroke-linejoin:round;stroke-width:4px"/><rect id="1cbdde18-0946-4953-a8a0-25ecdd1360c7" data-name="&lt;Rectangle&gt;" x="80.92" y="79.73" width="46.7" height="31.13" rx="1" ry="1" style="fill:none;stroke:#fff;stroke-linecap:round;stroke-linejoin:round;stroke-width:4px"/><path id="2dfd72ed-9118-4aee-abca-a922f5c6f4cf" data-name="&lt;Path&gt;" d="M112.06,79.73V74.54a2.59,2.59,0,0,0-2.59-2.59H99.08a2.59,2.59,0,0,0-2.59,2.59v5.19" style="fill:none;stroke:#fff;stroke-linecap:round;stroke-linejoin:round;stroke-width:4px"/><line id="aaf92ac1-c518-4a98-9efa-998712edbc05" data-name="&lt;Path&gt;" x1="91.3" y1="79.73" x2="91.3" y2="110.87" style="fill:none;stroke:#fff;stroke-linecap:round;stroke-linejoin:round;stroke-width:4px"/><line id="cd21bf3e-1749-47c7-adf7-9aa18b3dda03" data-name="&lt;Path&gt;" x1="117.24" y1="79.73" x2="117.24" y2="110.87" style="fill:none;stroke:#fff;stroke-linecap:round;stroke-linejoin:round;stroke-width:4px"/></g></g></svg>