<svg xmlns="http://www.w3.org/2000/svg" viewBox="0 0 200 200"><title>Meeting</title><g id="8c2b6d8b-c79b-41eb-b4ef-5963c1000463" data-name="Sky"><rect x="25.04" y="25.04" width="149.93" height="149.93" rx="14.17" ry="14.17" transform="translate(100 -41.42) rotate(45)" style="fill:#00b5e2"/></g><g id="a9174fe9-6342-4e28-b7f6-1eb79ab26fac" data-name="Icon"><g id="d034acbd-bb4c-4908-bd7c-017737f706d4" data-name="&lt;Group&gt;"><circle id="688d542b-37e7-4b55-96df-7c466806784b" data-name="&lt;Path&gt;" cx="64.64" cy="88.75" r="9.64" style="fill:none;stroke:#fff;stroke-linecap:round;stroke-linejoin:round;stroke-width:4px"/><circle id="3e1603b9-162c-4307-8633-0a1911ae3c72" data-name="&lt;Path&gt;" cx="100" cy="69.46" r="9.64" style="fill:none;stroke:#fff;stroke-linecap:round;stroke-linejoin:round;stroke-width:4px"/><circle id="63d0bba6-31cf-4d2f-9de6-cf571d967e6b" data-name="&lt;Path&gt;" cx="135.36" cy="88.75" r="9.64" style="fill:none;stroke:#fff;stroke-linecap:round;stroke-linejoin:round;stroke-width:4px"/><path id="d2135f01-6375-47a0-8cc3-87753e57ede2" data-name="&lt;Path&gt;" d="M87.14,98.39V88.75a6.43,6.43,0,0,1,6.43-6.43h12.86a6.43,6.43,0,0,1,6.43,6.43v9.64" style="fill:none;stroke:#fff;stroke-linecap:round;stroke-linejoin:round;stroke-width:4px"/><path id="5e7505b9-8531-4e42-bf05-65d5cc6399d3" data-name="&lt;Path&gt;" d="M80.71,140.18V124.11a3.21,3.21,0,0,0-3.21-3.21H67.86a3.21,3.21,0,0,1-3.21-3.21V98.39" style="fill:none;stroke:#fff;stroke-linecap:round;stroke-linejoin:round;stroke-width:4px"/><path id="1e23ff60-dc24-444d-9b75-56e42b74bc6c" data-name="&lt;Path&gt;" d="M119.29,140.18V124.11a3.21,3.21,0,0,1,3.21-3.21h9.64a3.21,3.21,0,0,0,3.21-3.21V98.39" style="fill:none;stroke:#fff;stroke-linecap:round;stroke-linejoin:round;stroke-width:4px"/><line id="ec9a10a6-4f9f-4abf-8ade-bcbd94af3910" data-name="&lt;Path&gt;" x1="74.29" y1="108.04" x2="125.71" y2="108.04" style="fill:none;stroke:#fff;stroke-linecap:round;stroke-linejoin:round;stroke-width:4px"/><line id="56af644c-cfd9-4c1c-b2f0-6c2019ca46b5" data-name="&lt;Path&gt;" x1="100" y1="108.04" x2="100" y2="140.18" style="fill:none;stroke:#fff;stroke-linecap:round;stroke-linejoin:round;stroke-width:4px"/></g></g></svg>