<svg xmlns="http://www.w3.org/2000/svg" viewBox="0 0 200 200"><title>Megaphone</title><g id="39818f53-5b9c-44c2-a1ec-bb55763cce08" data-name="Sky"><rect x="25.04" y="25.04" width="149.93" height="149.93" rx="14.17" ry="14.17" transform="translate(100 -41.42) rotate(45)" style="fill:#00b5e2"/></g><g id="75d2b988-83fe-4f2e-8e8c-8ea87e7f9684" data-name="Icon"><g id="968e39d4-163b-48bb-a726-a89aae65a9d0" data-name="&lt;Group&gt;"><path id="d6c348f3-3016-447a-bfb3-a3753776985b" data-name="&lt;Path&gt;" d="M85.12,102l5.71,22.85a6.34,6.34,0,0,1-12.09,3.76L68.75,102" style="fill:none;stroke:#fff;stroke-linecap:round;stroke-linejoin:round;stroke-width:4px"/><path id="10959d6b-afc7-4d98-b1db-70f874045da1" data-name="&lt;Path&gt;" d="M91,102H65.42a2.56,2.56,0,0,1-2.56-2.56V84a2.56,2.56,0,0,1,2.56-2.56H91" style="fill:none;stroke:#fff;stroke-linecap:round;stroke-linejoin:round;stroke-width:4px"/><polygon id="813aa078-4825-45d1-a8e6-e26acfeeb27c" data-name="&lt;Path&gt;" points="121.77 116.14 91.04 101.89 91.04 81.55 121.77 67.31 121.77 116.14" style="fill:none;stroke:#fff;stroke-linecap:round;stroke-linejoin:round;stroke-width:4px"/><line id="2baac7c4-0a14-4ae6-a125-885e6180c684" data-name="&lt;Path&gt;" x1="129.45" y1="91.71" x2="137.14" y2="91.71" style="fill:none;stroke:#fff;stroke-linecap:round;stroke-linejoin:round;stroke-width:4px"/><line id="6a59a680-d0de-4703-87a1-20927c8e1efe" data-name="&lt;Path&gt;" x1="129.45" y1="81.47" x2="137.14" y2="81.47" style="fill:none;stroke:#fff;stroke-linecap:round;stroke-linejoin:round;stroke-width:4px"/><line id="e7cf5268-fa84-4080-b572-333d6dbd3ca5" data-name="&lt;Path&gt;" x1="129.45" y1="101.96" x2="137.14" y2="101.96" style="fill:none;stroke:#fff;stroke-linecap:round;stroke-linejoin:round;stroke-width:4px"/></g></g></svg>