<svg xmlns="http://www.w3.org/2000/svg" viewBox="0 0 200 200"><title>Money</title><g id="e42b8b72-075a-4edc-9244-883f58f95b10" data-name="Sky"><rect x="25.04" y="25.04" width="149.93" height="149.93" rx="14.17" ry="14.17" transform="translate(100 -41.42) rotate(45)" style="fill:#00b5e2"/></g><g id="4a4995bc-8f0b-4bc4-9040-a5f84ec1418d" data-name="Icon"><g id="e79589f2-3f1f-4cdc-9642-0ac6b5ae44c7" data-name="&lt;Group&gt;"><rect id="07c5fddf-9d26-4788-9a27-75a1b9c864fb" data-name="&lt;Rectangle&gt;" x="59.75" y="77" width="80.5" height="46" style="fill:none;stroke:#fff;stroke-linecap:round;stroke-linejoin:round;stroke-width:4px"/><ellipse id="b8fb854b-68bf-450c-aa02-20b3fbd9f6df" data-name="&lt;Path&gt;" cx="100" cy="100" rx="8.63" ry="11.5" style="fill:none;stroke:#fff;stroke-linecap:round;stroke-linejoin:round;stroke-width:4px"/><path id="aa4aa092-352e-4026-a8aa-7820744f3a74" data-name="&lt;Path&gt;" d="M74.13,77A14.37,14.37,0,0,1,59.75,91.38" style="fill:none;stroke:#fff;stroke-linecap:round;stroke-linejoin:round;stroke-width:4px"/><path id="173f436c-6ee2-4e8b-8cab-143753ce8c16" data-name="&lt;Path&gt;" d="M140.25,91.38A14.37,14.37,0,0,1,125.88,77" style="fill:none;stroke:#fff;stroke-linecap:round;stroke-linejoin:round;stroke-width:4px"/><path id="722a2a7e-3b51-4682-8091-7fbbe11b6bf7" data-name="&lt;Path&gt;" d="M125.88,123a14.37,14.37,0,0,1,14.38-14.37" style="fill:none;stroke:#fff;stroke-linecap:round;stroke-linejoin:round;stroke-width:4px"/><path id="f4742f2b-cf41-459a-bd39-e3dde49a6c42" data-name="&lt;Path&gt;" d="M59.75,108.63A14.37,14.37,0,0,1,74.13,123" style="fill:none;stroke:#fff;stroke-linecap:round;stroke-linejoin:round;stroke-width:4px"/><line id="a86068ab-8b6d-452e-86e1-248d3433b4a5" data-name="&lt;Path&gt;" x1="77" y1="100" x2="82.75" y2="100" style="fill:none;stroke:#fff;stroke-linecap:round;stroke-linejoin:round;stroke-width:4px"/><line id="a02e8a3a-7594-49c2-8932-db07ab322536" data-name="&lt;Path&gt;" x1="117.25" y1="100" x2="123" y2="100" style="fill:none;stroke:#fff;stroke-linecap:round;stroke-linejoin:round;stroke-width:4px"/></g></g></svg>