<svg xmlns="http://www.w3.org/2000/svg" viewBox="0 0 200 200"><title>Pestle</title><g id="d280687e-1515-42aa-bf52-1d3e10ad8b6c" data-name="Sky"><rect x="25.04" y="25.04" width="149.93" height="149.93" rx="14.17" ry="14.17" transform="translate(100 -41.42) rotate(45)" style="fill:#00b5e2"/></g><g id="f3c72744-ad0f-4130-aad8-e61a5db7512c" data-name="Icon"><g id="3769820a-738e-49bc-8dec-747f81997876" data-name="&lt;Group&gt;"><path id="253d2e6d-045e-4f7e-9a42-74b89747d9d7" data-name="&lt;Path&gt;" d="M109.27,92.32,116.9,70a8.35,8.35,0,0,1,10.83-5.35,9,9,0,0,1,5.56,8.43,9.91,9.91,0,0,1-.51,3.07l-5.53,16.14" style="fill:none;stroke:#fff;stroke-linecap:round;stroke-linejoin:round;stroke-width:4px"/><g id="dce72ae6-2183-4733-b31f-ad1abb6b0342" data-name="&lt;Group&gt;"><path id="181c4d36-2c8b-40ce-9341-dedf36687f55" data-name="&lt;Path&gt;" d="M100,128.17h0A35.86,35.86,0,0,1,64.14,92.32h71.71A35.86,35.86,0,0,1,100,128.17Z" style="fill:none;stroke:#fff;stroke-linecap:round;stroke-linejoin:round;stroke-width:4px"/><polyline id="a43e84dc-fdd0-431b-8f7c-855ad2b3c450" data-name="&lt;Path&gt;" points="115.37 124.72 115.37 135.86 84.63 135.86 84.63 124.72" style="fill:none;stroke:#fff;stroke-linecap:round;stroke-linejoin:round;stroke-width:4px"/></g><line id="6fab6b50-e6f9-4088-8f61-a0445848fc3e" data-name="&lt;Path&gt;" x1="134.37" y1="102.56" x2="65.63" y2="102.56" style="fill:none;stroke:#fff;stroke-linecap:round;stroke-linejoin:round;stroke-width:4px"/></g></g></svg>