<svg xmlns="http://www.w3.org/2000/svg" viewBox="0 0 200 200"><title>Plan</title><g id="957cbbde-69eb-45ff-812d-2f0aeb294bd8" data-name="Sky"><rect x="25.04" y="25.04" width="149.93" height="149.93" rx="14.17" ry="14.17" transform="translate(100 -41.42) rotate(45)" style="fill:#00b5e2"/></g><g id="c176f753-0a2a-40a1-a0ca-e7ca070e82ef" data-name="Icon"><g id="d9e32f73-cacb-422e-91e7-4312b45ecb41" data-name="&lt;Group&gt;"><g id="f15fae2c-f1c9-43af-836c-55dbfd94c5e7" data-name="&lt;Group&gt;"><polyline id="a92681a5-8a53-46bd-8e35-0d65f9d297c3" data-name="&lt;Path&gt;" points="120.49 82.48 89.75 82.48 89.75 128.58 128.17 128.58" style="fill:none;stroke:#fff;stroke-linecap:round;stroke-linejoin:round;stroke-width:4px"/><path id="3607d7e7-d55b-46f0-a02d-eb13a584c97b" data-name="&lt;Path&gt;" d="M135.86,120.9a7.68,7.68,0,0,1-7.68,7.68" style="fill:none;stroke:#fff;stroke-linecap:round;stroke-linejoin:round;stroke-width:4px"/><path id="4b429565-656d-45d2-a508-51cca9e05b57" data-name="&lt;Path&gt;" d="M120.49,120.9a7.68,7.68,0,0,1,15.37,0" style="fill:none;stroke:#fff;stroke-linecap:round;stroke-linejoin:round;stroke-width:4px"/><path id="3a04307d-e762-4101-a9e6-784f17f82d0d" data-name="&lt;Path&gt;" d="M135.86,120.9V82.48a7.68,7.68,0,0,0-15.37,0V120.9" style="fill:none;stroke:#fff;stroke-linecap:round;stroke-linejoin:round;stroke-width:4px"/></g><g id="024ee973-6199-488f-8eda-08711ef83adb" data-name="&lt;Group&gt;"><path id="82b05a79-c135-4b99-9bbd-5917e8845037" data-name="&lt;Path&gt;" d="M79,81.61a2.56,2.56,0,0,1,.47,1.48V126a2.56,2.56,0,0,1-2.56,2.56H66.71A2.56,2.56,0,0,1,64.14,126V83.09a2.56,2.56,0,0,1,.47-1.48l7.21-10.19Z" style="fill:none;stroke:#fff;stroke-linecap:round;stroke-linejoin:round;stroke-width:4px"/><line id="25708117-83ce-42dc-ada5-8c0bb9cfe069" data-name="&lt;Path&gt;" x1="64.14" y1="115.77" x2="79.51" y2="115.77" style="fill:none;stroke:#fff;stroke-linecap:round;stroke-linejoin:round;stroke-width:4px"/><line id="da7ff63e-4596-4c69-8765-c16cbc043c63" data-name="&lt;Path&gt;" x1="64.14" y1="85.04" x2="79.51" y2="85.04" style="fill:none;stroke:#fff;stroke-linecap:round;stroke-linejoin:round;stroke-width:4px"/></g></g></g></svg>