<svg xmlns="http://www.w3.org/2000/svg" viewBox="0 0 200 200"><title>Rocket</title><g id="72de0d0a-33be-4eae-ad9a-5f24f99eddf5" data-name="Sky"><rect x="25.04" y="25.04" width="149.93" height="149.93" rx="14.17" ry="14.17" transform="translate(100 -41.42) rotate(45)" style="fill:#00b5e2"/></g><g id="736755a7-c22f-4450-a682-e6451c838ac6" data-name="Icon"><g id="b3c041b2-8ddc-4358-b0ea-236694254664" data-name="&lt;Group&gt;"><polyline id="9386d38e-ef77-4af6-a42e-577fd87b6a5c" data-name="&lt;Path&gt;" points="110.18 127.22 113.57 140.79 86.43 140.79 89.82 127.22" style="fill:none;stroke:#fff;stroke-linecap:round;stroke-linejoin:round;stroke-width:4px"/><circle id="fbb24f49-bbe1-48c8-bc00-c0ce6a072771" data-name="&lt;Path&gt;" cx="100" cy="89.89" r="10.18" style="fill:none;stroke:#fff;stroke-linecap:round;stroke-linejoin:round;stroke-width:4px"/><path id="54e36e72-8563-49ac-b3f5-95ae948a0440" data-name="&lt;Path&gt;" d="M123.38,102.48l2.21.92a13.54,13.54,0,0,1,8.35,12.52V134l-12.76-17.78" style="fill:none;stroke:#fff;stroke-linecap:round;stroke-linejoin:round;stroke-width:4px"/><path id="7fd5b4cd-a441-480c-855a-9856bfe79563" data-name="&lt;Path&gt;" d="M76.62,102.48l-2.21.92a13.54,13.54,0,0,0-8.35,12.52V134l12.76-17.78" style="fill:none;stroke:#fff;stroke-linecap:round;stroke-linejoin:round;stroke-width:4px"/><path id="3504f872-2bd9-4943-ae4d-9a5f6b95e94d" data-name="&lt;Path&gt;" d="M82.8,127.22H117.2a66.77,66.77,0,0,0,6.28-27.14c0-29.18-23.48-52.86-23.48-52.86S76.52,70.89,76.52,100.07A66.77,66.77,0,0,0,82.8,127.22Z" style="fill:none;stroke:#fff;stroke-linecap:round;stroke-linejoin:round;stroke-width:4px"/></g></g></svg>