<svg xmlns="http://www.w3.org/2000/svg" viewBox="0 0 200 200"><title>Snowman</title><g id="b26f1494-7759-498e-a6af-834212a6918b" data-name="Sky"><rect x="25.04" y="25.04" width="149.93" height="149.93" rx="14.17" ry="14.17" transform="translate(100 -41.42) rotate(45)" style="fill:#00b5e2"/></g><g id="23726935-b02b-442e-95ca-b670b2f791cd" data-name="Icon"><g id="6c4bf855-ea59-4380-926b-0b09397c8c41" data-name="&lt;Group&gt;"><path id="85902dc8-dd71-49db-8815-a2f6c637e06d" data-name="&lt;Path&gt;" d="M80.86,140a25.69,25.69,0,0,1,6.71-39.66" style="fill:none;stroke:#fff;stroke-linecap:round;stroke-linejoin:round;stroke-width:4px"/><path id="d444b500-8e1c-41b6-b140-f65329e4bbdb" data-name="&lt;Path&gt;" d="M112.43,100.34A25.69,25.69,0,0,1,119.14,140" style="fill:none;stroke:#fff;stroke-linecap:round;stroke-linejoin:round;stroke-width:4px"/><path id="3acf4fef-f8c4-4c74-86b3-baed8075d5a6" data-name="&lt;Path&gt;" d="M109.46,74.29a17.14,17.14,0,1,1-18.91,0" style="fill:none;stroke:#fff;stroke-linecap:round;stroke-linejoin:round;stroke-width:4px"/><path id="a5de6d22-a656-4b4f-bf08-9f86b16f9a40" data-name="&lt;Path&gt;" d="M106.06,91.78a8.58,8.58,0,0,1-12.12,0" style="fill:none;stroke:#fff;stroke-linecap:round;stroke-linejoin:round;stroke-width:4px"/><polyline id="35b5bc98-b4ce-4529-94a4-7703131921f0" data-name="&lt;Path&gt;" points="134.29 140 119.14 140 80.86 140 65.71 140" style="fill:none;stroke:#fff;stroke-linecap:round;stroke-linejoin:round;stroke-width:4px"/><line id="d325f5e7-a4ed-4c3e-92f8-e5dbcf095850" data-name="&lt;Path&gt;" x1="120" y1="74.29" x2="80" y2="74.29" style="fill:none;stroke:#fff;stroke-linecap:round;stroke-linejoin:round;stroke-width:4px"/><path id="e60afdc2-884b-4c64-94cc-b4208ce05ec0" data-name="&lt;Path&gt;" d="M88.57,74.29V62.86A2.86,2.86,0,0,1,91.43,60h17.14a2.86,2.86,0,0,1,2.86,2.86V74.29" style="fill:none;stroke:#fff;stroke-linecap:round;stroke-linejoin:round;stroke-width:4px"/></g></g></svg>