<svg xmlns="http://www.w3.org/2000/svg" viewBox="0 0 200 200"><title>SprayPaint</title><g id="3be2cb8e-306f-4a81-ac08-471a832aea91" data-name="Sky"><rect x="25.04" y="25.04" width="149.93" height="149.93" rx="14.17" ry="14.17" transform="translate(100 -41.42) rotate(45)" style="fill:#00b5e2"/></g><g id="bc14d159-a9ba-4038-a8fa-6407b1430304" data-name="Icon"><g id="9f37293a-32c8-4dbc-abfa-e81591803225" data-name="&lt;Group&gt;"><path id="cf2019c4-5456-4cb4-8559-4c1d5ee73706" data-name="&lt;Path&gt;" d="M89.76,75.13V66.71a2.56,2.56,0,0,1,2.56-2.56h5.12A2.56,2.56,0,0,1,100,66.71v8.43" style="fill:none;stroke:#fff;stroke-linecap:round;stroke-linejoin:round;stroke-width:4px"/><path id="01cc3a0c-5ce7-4fbd-96c4-95cc82f312d5" data-name="&lt;Path&gt;" d="M94.88,74.39h0A17.93,17.93,0,0,0,76.95,92.32v41a2.56,2.56,0,0,0,2.56,2.56h30.73a2.56,2.56,0,0,0,2.56-2.56v-41A17.93,17.93,0,0,0,94.88,74.39Z" style="fill:none;stroke:#fff;stroke-linecap:round;stroke-linejoin:round;stroke-width:4px"/><line id="e1d02f0b-e975-482e-bfb8-18c216262ea1" data-name="&lt;Path&gt;" x1="112.81" y1="92.32" x2="76.95" y2="92.32" style="fill:none;stroke:#fff;stroke-linecap:round;stroke-linejoin:round;stroke-width:4px"/><line id="c8497b59-cd05-4a90-a530-37f8a860ee6f" data-name="&lt;Path&gt;" x1="107.68" y1="69.27" x2="112.81" y2="69.27" style="fill:none;stroke:#fff;stroke-linecap:round;stroke-linejoin:round;stroke-width:4px"/><line id="b4a77226-fd81-4eb2-a8dd-d003c719e66f" data-name="&lt;Path&gt;" x1="117.93" y1="64.14" x2="123.05" y2="64.14" style="fill:none;stroke:#fff;stroke-linecap:round;stroke-linejoin:round;stroke-width:4px"/><line id="6ca980e1-7a13-4233-a27c-1b4970adbb8f" data-name="&lt;Path&gt;" x1="117.93" y1="74.39" x2="123.05" y2="74.39" style="fill:none;stroke:#fff;stroke-linecap:round;stroke-linejoin:round;stroke-width:4px"/></g></g></svg>