<svg xmlns="http://www.w3.org/2000/svg" viewBox="0 0 200 200"><title>Sunset</title><g id="8729c1df-8c65-44d4-907f-a99dc30a2ec3" data-name="Sky"><rect x="25.04" y="25.04" width="149.93" height="149.93" rx="14.17" ry="14.17" transform="translate(100 -41.42) rotate(45)" style="fill:#00b5e2"/></g><g id="8b3bae99-de63-4aaa-8319-dfe5caba69dc" data-name="Icon"><g id="6859be6f-55d8-4ddf-8f25-100a638abee4" data-name="&lt;Group&gt;"><line id="a51839c0-5fd9-4b6d-a33f-a97912c10983" data-name="&lt;Path&gt;" x1="138.94" y1="101.5" x2="132.07" y2="101.5" style="fill:none;stroke:#fff;stroke-linecap:round;stroke-linejoin:round;stroke-width:4px"/><g id="179afc90-2a95-42d0-b841-8ac952ca1f7e" data-name="&lt;Group&gt;"><line id="9094c673-4786-40ba-a343-c12515b0279c" data-name="&lt;Path&gt;" x1="100" y1="62.56" x2="100" y2="69.42" style="fill:none;stroke:#fff;stroke-linecap:round;stroke-linejoin:round;stroke-width:4px"/><path id="9d6e595e-270e-442a-95bd-a6395b9f5bd1" data-name="&lt;Path&gt;" d="M117.19,113.48a20.64,20.64,0,0,0,3.77-12,21,21,0,1,0-41.94,0,20.64,20.64,0,0,0,3.77,12" style="fill:none;stroke:#fff;stroke-linecap:round;stroke-linejoin:round;stroke-width:4px"/><line id="ffe93fcf-8294-4749-9da0-82bfa82def5b" data-name="&lt;Path&gt;" x1="67.93" y1="101.5" x2="61.06" y2="101.5" style="fill:none;stroke:#fff;stroke-linecap:round;stroke-linejoin:round;stroke-width:4px"/><line id="38c81327-15a3-4d99-a94c-63fbd06ff52b" data-name="&lt;Path&gt;" x1="127.54" y1="73.96" x2="124.18" y2="77.32" style="fill:none;stroke:#fff;stroke-linecap:round;stroke-linejoin:round;stroke-width:4px"/><line id="2f3e3206-dd2a-4b13-8772-ce74bbfe6400" data-name="&lt;Path&gt;" x1="75.82" y1="77.32" x2="72.46" y2="73.96" style="fill:none;stroke:#fff;stroke-linecap:round;stroke-linejoin:round;stroke-width:4px"/><line id="6304cb9d-38f0-4550-976b-b718e35badc7" data-name="&lt;Path&gt;" x1="55.07" y1="113.48" x2="144.93" y2="113.48" style="fill:none;stroke:#fff;stroke-linecap:round;stroke-linejoin:round;stroke-width:4px"/><line id="2144928f-f8a1-4d97-9b68-c3154d50483c" data-name="&lt;Path&gt;" x1="61.06" y1="125.46" x2="138.94" y2="125.46" style="fill:none;stroke:#fff;stroke-linecap:round;stroke-linejoin:round;stroke-width:4px"/><line id="21fa5b43-9de6-4a9e-826c-7172aa6d9ae3" data-name="&lt;Path&gt;" x1="73.04" y1="137.44" x2="126.96" y2="137.44" style="fill:none;stroke:#fff;stroke-linecap:round;stroke-linejoin:round;stroke-width:4px"/></g></g></g></svg>