<svg xmlns="http://www.w3.org/2000/svg" viewBox="0 0 200 200"><title>Web Love</title><g id="eca0b45e-f9d0-4e8d-8266-e2fe16b0a3f4" data-name="Sky"><rect x="25.04" y="25.04" width="149.93" height="149.93" rx="14.17" ry="14.17" transform="translate(100 -41.42) rotate(45)" style="fill:#00b5e2"/></g><g id="ad24a7df-a9d4-4c01-9235-46e7f3427414" data-name="Icon"><g id="00ed3514-64f8-42a7-a2b5-64ec58ff2f13" data-name="&lt;Group&gt;"><polyline id="6b56dcad-b7f0-46ef-8b62-1bdfdbb772ac" data-name="&lt;Path&gt;" points="112.19 124.33 135.86 124.33 135.86 67.99 64.14 67.99 64.14 124.33 87.81 124.33" style="fill:none;stroke:#fff;stroke-linecap:round;stroke-linejoin:round;stroke-width:4px"/><line id="f1ccbfa5-6583-400d-9a89-e7ba188f5f1b" data-name="&lt;Path&gt;" x1="92.32" y1="78.23" x2="97.44" y2="78.23" style="fill:none;stroke:#fff;stroke-linecap:round;stroke-linejoin:round;stroke-width:4px"/><line id="9336f6f5-ef12-4833-ae96-491c44d9dad4" data-name="&lt;Path&gt;" x1="82.07" y1="78.23" x2="87.19" y2="78.23" style="fill:none;stroke:#fff;stroke-linecap:round;stroke-linejoin:round;stroke-width:4px"/><line id="126cb3b9-199e-4225-a264-d3288bf13120" data-name="&lt;Path&gt;" x1="71.83" y1="78.23" x2="76.95" y2="78.23" style="fill:none;stroke:#fff;stroke-linecap:round;stroke-linejoin:round;stroke-width:4px"/><path id="76bc9be9-7540-4c72-8077-17046ca1d059" data-name="&lt;Path&gt;" d="M89.76,96.16c-5.67,0-10.24,5.33-10.24,11.93,0,13.22,10.2,17.76,20.49,23.93,10.29-6.17,20.49-10.71,20.49-23.93,0-6.6-4.58-11.93-10.24-11.93A13.63,13.63,0,0,0,100,101.68,13.63,13.63,0,0,0,89.76,96.16Z" style="fill:none;stroke:#fff;stroke-linecap:round;stroke-linejoin:round;stroke-width:4px"/></g></g></svg>