<svg xmlns="http://www.w3.org/2000/svg" viewBox="0 0 200 200"><defs><style>.cls-1{fill:#00b5e2;}.cls-2{fill:none;stroke:#fff;stroke-linecap:round;stroke-linejoin:round;stroke-width:4px;}</style></defs><title>Web Love</title><g id="Sky"><rect class="cls-1" x="25.04" y="25.04" width="149.93" height="149.93" rx="14.17" ry="14.17" transform="translate(100 -41.42) rotate(45)"/></g><g id="Icon"><g id="_Group_" data-name="&lt;Group&gt;"><polyline id="_Path_" data-name="&lt;Path&gt;" class="cls-2" points="112.19 124.33 135.86 124.33 135.86 67.99 64.14 67.99 64.14 124.33 87.81 124.33"/><line id="_Path_2" data-name="&lt;Path&gt;" class="cls-2" x1="92.32" y1="78.23" x2="97.44" y2="78.23"/><line id="_Path_3" data-name="&lt;Path&gt;" class="cls-2" x1="82.07" y1="78.23" x2="87.19" y2="78.23"/><line id="_Path_4" data-name="&lt;Path&gt;" class="cls-2" x1="71.83" y1="78.23" x2="76.95" y2="78.23"/><path id="_Path_5" data-name="&lt;Path&gt;" class="cls-2" d="M89.76,96.16c-5.67,0-10.24,5.33-10.24,11.93,0,13.22,10.2,17.76,20.49,23.93,10.29-6.17,20.49-10.71,20.49-23.93,0-6.6-4.58-11.93-10.24-11.93A13.63,13.63,0,0,0,100,101.68,13.63,13.63,0,0,0,89.76,96.16Z"/></g></g></svg>