<svg xmlns="http://www.w3.org/2000/svg" viewBox="0 0 200 200"><title>Bell</title><g id="6be080a8-0fa5-4b18-8e78-5932e258a418" data-name="Black"><rect x="25.04" y="25.04" width="149.93" height="149.93" rx="14.17" ry="14.17" transform="translate(-41.42 100) rotate(-45)" style="fill:#22292f"/></g><g id="6eb16de4-7148-48f8-b988-4b9401141e57" data-name="Icon"><g id="752d0552-0b12-4e80-ab6e-d3d34b49a8cc" data-name="&lt;Group&gt;"><path id="33ba97a6-34ee-45de-a6c2-24b4915ad774" data-name="&lt;Path&gt;" d="M104.17,72.24a5,5,0,0,0,.95-3,5.12,5.12,0,1,0-10.24,0,5,5,0,0,0,.95,3" style="fill:none;stroke:#fff;stroke-linecap:round;stroke-linejoin:round;stroke-width:4px"/><path id="f62d1c68-7aa0-4669-a8ad-e84dfe428bfe" data-name="&lt;Path&gt;" d="M75.41,115.37l1.18-2.92a41.3,41.3,0,0,0,2.92-15.21V92.32a20.49,20.49,0,1,1,41,0v4.92a41.3,41.3,0,0,0,2.92,15.21l1.18,2.92" style="fill:none;stroke:#fff;stroke-linecap:round;stroke-linejoin:round;stroke-width:4px"/><path id="f6d308f3-1902-44bc-a034-45d53e284dae" data-name="&lt;Path&gt;" d="M110.24,125.61a10.24,10.24,0,0,1-20.49,0" style="fill:none;stroke:#fff;stroke-linecap:round;stroke-linejoin:round;stroke-width:4px"/><path id="e65d76e6-cbc1-4f2d-bcbf-db738995446c" data-name="&lt;Path&gt;" d="M125.61,125.61H74.39a5.12,5.12,0,0,1-5.12-5.12h0a5.12,5.12,0,0,1,5.12-5.12h51.22a5.12,5.12,0,0,1,5.12,5.12h0A5.12,5.12,0,0,1,125.61,125.61Z" style="fill:none;stroke:#fff;stroke-linecap:round;stroke-linejoin:round;stroke-width:4px"/></g></g></svg>