<svg xmlns="http://www.w3.org/2000/svg" viewBox="0 0 200 200"><title>Bus</title><g id="7b075b0b-ef0d-4fa3-bbc2-380ec0c05854" data-name="Black"><rect x="25.04" y="25.04" width="149.93" height="149.93" rx="14.17" ry="14.17" transform="translate(-41.42 100) rotate(-45)" style="fill:#22292f"/></g><g id="d8a6fb50-ec2f-4e52-8942-6eab462cc37d" data-name="Icon"><g id="d870dcce-fc0b-423c-87e1-5972b490f445" data-name="&lt;Group&gt;"><path id="2b89167b-2b16-4f65-8470-42e796ac391a" data-name="&lt;Path&gt;" d="M88.85,122.31V129a2.24,2.24,0,0,1-2.23,2.23H79.92A2.24,2.24,0,0,1,77.69,129v-6.69" style="fill:none;stroke:#fff;stroke-linecap:round;stroke-linejoin:round;stroke-width:4px"/><path id="3172914e-d72e-452b-b612-d7f73a8e47ff" data-name="&lt;Path&gt;" d="M122.31,122.31V129a2.24,2.24,0,0,1-2.23,2.23h-6.69a2.24,2.24,0,0,1-2.23-2.23v-6.69" style="fill:none;stroke:#fff;stroke-linecap:round;stroke-linejoin:round;stroke-width:4px"/><rect id="74340425-8ef9-46a0-914b-fba3859acae4" data-name="&lt;Rectangle&gt;" x="71" y="68.77" width="58" height="53.54" rx="2" ry="2" style="fill:none;stroke:#fff;stroke-linecap:round;stroke-linejoin:round;stroke-width:4px"/><line id="32db8a97-691d-4d84-b771-622f8d21ce7d" data-name="&lt;Path&gt;" x1="71" y1="77.69" x2="129" y2="77.69" style="fill:none;stroke:#fff;stroke-linecap:round;stroke-linejoin:round;stroke-width:4px"/><line id="a849fbdb-74f3-4877-a211-a60c3db6fec8" data-name="&lt;Path&gt;" x1="71" y1="102.23" x2="129" y2="102.23" style="fill:none;stroke:#fff;stroke-linecap:round;stroke-linejoin:round;stroke-width:4px"/><circle id="cb66fc68-e9d8-48ef-8b05-893fa0277582" data-name="&lt;Path&gt;" cx="83.27" cy="112.27" r="3.35" style="fill:none;stroke:#fff;stroke-linecap:round;stroke-linejoin:round;stroke-width:4px"/><circle id="7b976be5-ec76-41a3-8f59-58206aeef48e" data-name="&lt;Path&gt;" cx="116.73" cy="112.27" r="3.35" style="fill:none;stroke:#fff;stroke-linecap:round;stroke-linejoin:round;stroke-width:4px"/></g></g></svg>