<svg xmlns="http://www.w3.org/2000/svg" viewBox="0 0 200 200"><title>Cocktail</title><g id="49390f9d-0453-4e98-907d-b6592adbcc61" data-name="Black"><rect x="25.04" y="25.04" width="149.93" height="149.93" rx="14.17" ry="14.17" transform="translate(-41.42 100) rotate(-45)" style="fill:#22292f"/></g><g id="6ef2c8e4-3f56-4fdb-b643-c73b632eb4e6" data-name="Icon"><g id="fb989b03-2f9e-42a5-b4e0-48bea394416a" data-name="&lt;Group&gt;"><polyline id="2433b0c5-53b6-43d5-9dd2-65c61c93cca6" data-name="&lt;Path&gt;" points="67.89 76 82.63 81.9 82.63 99.59" style="fill:none;stroke:#fff;stroke-linecap:round;stroke-linejoin:round;stroke-width:4px"/><path id="f3992f6a-b749-4fba-963e-d0c49e35a615" data-name="&lt;Path&gt;" d="M132.11,84.75c-12,1-25.68-7-30.67-17.88l25.14-7.75Z" style="fill:none;stroke:#fff;stroke-linecap:round;stroke-linejoin:round;stroke-width:4px"/><line id="f4f0bcc6-bf26-4443-add9-9a78e4fbe812" data-name="&lt;Path&gt;" x1="113.56" y1="79.89" x2="101.24" y2="99.59" style="fill:none;stroke:#fff;stroke-linecap:round;stroke-linejoin:round;stroke-width:4px"/><path id="d9101cc9-fbd8-49af-8cae-572234cfafbd" data-name="&lt;Path&gt;" d="M122.64,99.59l-4.51,7.25-6.28-7.25H72a34.8,34.8,0,0,0-1.12,8.85c0,17.93,13.21,32.44,29.49,32.44s29.49-14.51,29.49-32.44a34.8,34.8,0,0,0-1.12-8.85Z" style="fill:none;stroke:#fff;stroke-linecap:round;stroke-linejoin:round;stroke-width:4px"/></g></g></svg>