<svg xmlns="http://www.w3.org/2000/svg" viewBox="0 0 200 200"><title>Cutlery</title><g id="895a8aad-e46c-4a33-bc69-0cabf8ec1ccb" data-name="Black"><rect x="25.04" y="25.04" width="149.93" height="149.93" rx="14.17" ry="14.17" transform="translate(-41.42 100) rotate(-45)" style="fill:#22292f"/></g><g id="6148294d-4c7f-4e50-839c-025d5ffbf777" data-name="Icon"><g id="74174e31-341b-4a95-8787-f0f29e68ab83" data-name="&lt;Group&gt;"><g id="f5262d42-1181-4134-aab3-5528d98dce9a" data-name="&lt;Group&gt;"><line id="20f102a8-1a56-474f-84ec-965ff38ad0c3" data-name="&lt;Path&gt;" x1="84.28" y1="62" x2="84.28" y2="80.34" style="fill:none;stroke:#fff;stroke-linecap:round;stroke-linejoin:round;stroke-width:4px"/><path id="58e5c214-d8a6-46e5-8d32-23de5e8f4123" data-name="&lt;Path&gt;" d="M71.17,62V80.34A13.16,13.16,0,0,0,75,89.62a13.45,13.45,0,0,0,4,2.75v40.38A5.24,5.24,0,0,0,84.28,138h0a5.24,5.24,0,0,0,5.24-5.24V92.37a13.18,13.18,0,0,0,7.86-12V62" style="fill:none;stroke:#fff;stroke-linecap:round;stroke-linejoin:round;stroke-width:4px"/></g><path id="a3ab50ef-7b19-46fb-9f7b-5fbc6911bfac" data-name="&lt;Path&gt;" d="M118.34,103.93l-2.1,27.29a6.3,6.3,0,0,0,6.28,6.78h0a6.3,6.3,0,0,0,6.3-6.3V64.62A15.74,15.74,0,0,0,113.1,80.34v23.59Z" style="fill:none;stroke:#fff;stroke-linecap:round;stroke-linejoin:round;stroke-width:4px"/></g></g></svg>