<svg xmlns="http://www.w3.org/2000/svg" viewBox="0 0 200 200"><title>Design</title><g id="e8bc1939-df8e-49f9-b29e-360341aae2ed" data-name="Black"><rect x="25.04" y="25.04" width="149.93" height="149.93" rx="14.17" ry="14.17" transform="translate(-41.42 100) rotate(-45)" style="fill:#22292f"/></g><g id="18bd0880-1e1d-4559-b49b-cfd4e7541001" data-name="Icon"><g id="d38c9dff-2659-4709-8f15-b0545cd1884c" data-name="&lt;Group&gt;"><polyline id="e1db65ed-50c0-4430-a3f9-ccc693613662" data-name="&lt;Path&gt;" points="113.91 103.15 131.79 121.03 135.37 135.37 121.03 131.79 103.13 113.89" style="fill:none;stroke:#fff;stroke-linecap:round;stroke-linejoin:round;stroke-width:4px"/><path id="e5652b9d-b95b-413a-8656-213fcf4e95ce" data-name="&lt;Path&gt;" d="M87.07,97.83,65.38,76.13a2.52,2.52,0,0,1,0-3.59L69,69l3.59-3.59a2.52,2.52,0,0,1,3.59,0L97.85,87.1" style="fill:none;stroke:#fff;stroke-linecap:round;stroke-linejoin:round;stroke-width:4px"/><line id="b4479b9d-cd1c-4930-bdc0-bd0cd60e0bda" data-name="&lt;Path&gt;" x1="131.78" y1="121.03" x2="121.03" y2="131.78" style="fill:none;stroke:#fff;stroke-linecap:round;stroke-linejoin:round;stroke-width:4px"/><line id="bcfe2f43-2126-4ed0-9583-efa9eaf7a576" data-name="&lt;Path&gt;" x1="85.35" y1="74.6" x2="74.55" y2="85.3" style="fill:none;stroke:#fff;stroke-linecap:round;stroke-linejoin:round;stroke-width:4px"/><g id="d1382cdc-da73-4ac7-98a5-32eb5be92a55" data-name="&lt;Group&gt;"><rect id="ee08687d-197c-43fd-9b71-e3b287d5da46" data-name="&lt;Path&gt;" x="62.64" y="89.13" width="75.7" height="22.71" transform="translate(-41.62 100.48) rotate(-45)" style="fill:none;stroke:#fff;stroke-linecap:round;stroke-linejoin:round;stroke-width:4px"/><line id="9c2302b6-7e77-45a8-986f-65029d35a88a" data-name="&lt;Path&gt;" x1="74.61" y1="110.3" x2="79.97" y2="115.66" style="fill:none;stroke:#fff;stroke-linecap:round;stroke-linejoin:round;stroke-width:4px"/><line id="a6bb9620-a290-4295-bc59-0b0ad10fcfeb" data-name="&lt;Path&gt;" x1="83.54" y1="101.38" x2="90.68" y2="108.52" style="fill:none;stroke:#fff;stroke-linecap:round;stroke-linejoin:round;stroke-width:4px"/><line id="b0d6939f-d9fd-48ec-b18c-634cdbe9f317" data-name="&lt;Path&gt;" x1="92.46" y1="92.46" x2="97.81" y2="97.81" style="fill:none;stroke:#fff;stroke-linecap:round;stroke-linejoin:round;stroke-width:4px"/><line id="96e4f132-091f-4da5-9c86-e13174ffb4b1" data-name="&lt;Path&gt;" x1="101.38" y1="83.54" x2="108.52" y2="90.68" style="fill:none;stroke:#fff;stroke-linecap:round;stroke-linejoin:round;stroke-width:4px"/><line id="c9af6f78-a38e-4c1f-873e-b23a3b4769bc" data-name="&lt;Path&gt;" x1="110.3" y1="74.62" x2="115.66" y2="79.97" style="fill:none;stroke:#fff;stroke-linecap:round;stroke-linejoin:round;stroke-width:4px"/></g></g></g></svg>