<svg xmlns="http://www.w3.org/2000/svg" viewBox="0 0 200 200"><title>Diamond</title><g id="13ccbcfc-d874-42e3-8050-571442987fd9" data-name="Black"><rect x="25.04" y="25.04" width="149.93" height="149.93" rx="14.17" ry="14.17" transform="translate(-41.42 100) rotate(-45)" style="fill:#22292f"/></g><g id="02d33868-3967-4df6-84b5-9134365887ab" data-name="Icon"><g id="95c21e1e-d678-4038-9bf0-c58ffcfe882d" data-name="&lt;Group&gt;"><polygon id="6d239e64-93c2-4d5f-94e0-f2f9546af9f3" data-name="&lt;Path&gt;" points="101 144.31 62 98.04 75.96 77.69 101 77.69 126.04 77.69 140 98.04 101 144.31" style="fill:none;stroke:#fff;stroke-linecap:round;stroke-linejoin:round;stroke-width:4px"/><polyline id="68221ca2-5acc-4463-82ed-01df24b663d9" data-name="&lt;Path&gt;" points="62 98.04 71.75 98.04 81.5 98.04 91.25 98.04 101 98.04 110.75 98.04 120.5 98.04 130.25 98.04 140 98.04" style="fill:none;stroke:#fff;stroke-linecap:round;stroke-linejoin:round;stroke-width:4px"/><line id="70c66319-debf-462d-95f6-5c0c04c4f15a" data-name="&lt;Path&gt;" x1="113.58" y1="98.04" x2="101" y2="77.69" style="fill:none;stroke:#fff;stroke-linecap:round;stroke-linejoin:round;stroke-width:4px"/><line id="4526eb9c-77be-46e5-941a-d9d6767865cd" data-name="&lt;Path&gt;" x1="101" y1="77.69" x2="88.42" y2="98.04" style="fill:none;stroke:#fff;stroke-linecap:round;stroke-linejoin:round;stroke-width:4px"/><polyline id="82140a62-0168-43fb-85e5-f1d690cfc31d" data-name="&lt;Path&gt;" points="101 144.31 88.42 98.04 75.96 77.69" style="fill:none;stroke:#fff;stroke-linecap:round;stroke-linejoin:round;stroke-width:4px"/><polyline id="8512956e-af39-42c4-9445-f24d1e194949" data-name="&lt;Path&gt;" points="101 144.31 113.58 98.04 126.04 77.69" style="fill:none;stroke:#fff;stroke-linecap:round;stroke-linejoin:round;stroke-width:4px"/></g></g></svg>