<svg xmlns="http://www.w3.org/2000/svg" viewBox="0 0 200 200"><title>Direction</title><g id="fe35959e-e7d9-414f-960a-7bafa3f47bec" data-name="Black"><rect x="25.04" y="25.04" width="149.93" height="149.93" rx="14.17" ry="14.17" transform="translate(-41.42 100) rotate(-45)" style="fill:#22292f"/></g><g id="730513d7-b76f-4552-811f-a093d35cc52c" data-name="Icon"><g id="b1ad358e-b974-4ba1-a175-3d500fc2a867" data-name="&lt;Group&gt;"><path id="d6fffb66-e6b0-40de-ae26-5591293a740b" data-name="&lt;Path&gt;" d="M93.84,73.2V67A6.16,6.16,0,0,1,100,60.88h0A6.16,6.16,0,0,1,106.16,67V73.2" style="fill:none;stroke:#fff;stroke-linecap:round;stroke-linejoin:round;stroke-width:4px"/><line id="6ec8b002-6f22-43c6-963d-c264a2f41ce3" data-name="&lt;Path&gt;" x1="106.16" y1="104" x2="106.16" y2="91.68" style="fill:none;stroke:#fff;stroke-linecap:round;stroke-linejoin:round;stroke-width:4px"/><line id="b2ea2b5c-9d86-4491-ae44-5a8133169e11" data-name="&lt;Path&gt;" x1="106.16" y1="147.12" x2="106.16" y2="122.48" style="fill:none;stroke:#fff;stroke-linecap:round;stroke-linejoin:round;stroke-width:4px"/><line id="6c649b61-b98d-46b1-be9e-5112489d2106" data-name="&lt;Path&gt;" x1="93.84" y1="104" x2="93.84" y2="91.68" style="fill:none;stroke:#fff;stroke-linecap:round;stroke-linejoin:round;stroke-width:4px"/><line id="f3c1772b-f2f0-463a-bcca-4ba2e546e54d" data-name="&lt;Path&gt;" x1="93.84" y1="147.12" x2="93.84" y2="122.48" style="fill:none;stroke:#fff;stroke-linecap:round;stroke-linejoin:round;stroke-width:4px"/><polygon id="3f66345e-1112-42ee-a9ac-dff6b18d09cb" data-name="&lt;Path&gt;" points="122.97 91.68 94.34 91.68 65.72 91.68 71.92 82.44 65.72 73.2 94.34 73.2 122.97 73.2 128.98 77.82 135 82.44 128.98 87.06 122.97 91.68" style="fill:none;stroke:#fff;stroke-linecap:round;stroke-linejoin:round;stroke-width:4px"/><polygon id="debf9709-6b5a-4c59-9588-c999f4dad943" data-name="&lt;Path&gt;" points="77.03 104 105.66 104 134.29 104 128.09 113.24 134.29 122.48 105.66 122.48 77.03 122.48 71.02 117.86 65 113.24 71.02 108.62 77.03 104" style="fill:none;stroke:#fff;stroke-linecap:round;stroke-linejoin:round;stroke-width:4px"/><line id="2a69b60f-b257-4d38-9a68-e415d6349575" data-name="&lt;Path&gt;" x1="84.6" y1="147.12" x2="115.4" y2="147.12" style="fill:none;stroke:#fff;stroke-linecap:round;stroke-linejoin:round;stroke-width:4px"/></g></g></svg>