<svg xmlns="http://www.w3.org/2000/svg" viewBox="0 0 200 200"><title>DoNotDisturb</title><g id="2d64c6fe-3801-43aa-a861-df722dca567e" data-name="Black"><rect x="25.04" y="25.04" width="149.93" height="149.93" rx="14.17" ry="14.17" transform="translate(-41.42 100) rotate(-45)" style="fill:#22292f"/></g><g id="dc253da0-f432-4304-ac4f-2d75ab4e26f0" data-name="Icon"><g id="f510ff58-c5f6-42ef-aa5d-fff0ac480361" data-name="&lt;Group&gt;"><path id="b6f329ff-8138-409f-bcb2-004c759d0c0e" data-name="&lt;Path&gt;" d="M120,80v60H80V105l24.07-16.18a10.17,10.17,0,0,0,4.5-8.44h0a8.83,8.83,0,0,0-6.84-8.78A8.59,8.59,0,0,0,91.43,80v2.86H80v-2C80,69.47,89.3,59.65,100.65,60A20,20,0,0,1,120,80Z" style="fill:none;stroke:#fff;stroke-linecap:round;stroke-linejoin:round;stroke-width:4px"/><path id="9b8eb8fb-94dc-4e34-9272-80a5780c742e" data-name="&lt;Path&gt;" d="M111.43,120a11.43,11.43,0,1,1-3.35-8.08A11.39,11.39,0,0,1,111.43,120Z" style="fill:none;stroke:#fff;stroke-linecap:round;stroke-linejoin:round;stroke-width:4px"/><line id="3511bc67-9482-42c2-8b80-d9ab9c6bba81" data-name="&lt;Path&gt;" x1="108.08" y1="111.92" x2="91.92" y2="128.08" style="fill:none;stroke:#fff;stroke-linecap:round;stroke-linejoin:round;stroke-width:4px"/></g></g></svg>