<svg xmlns="http://www.w3.org/2000/svg" viewBox="0 0 200 200"><title>Fire</title><g id="d997dc40-c692-49e0-a1c4-8529e29f7194" data-name="Black"><rect x="25.04" y="25.04" width="149.93" height="149.93" rx="14.17" ry="14.17" transform="translate(-41.42 100) rotate(-45)" style="fill:#22292f"/></g><g id="4a01db3b-f344-4274-a317-c64b83a23015" data-name="Icon"><g id="dbb88b91-325b-4648-beca-942d7ca70f21" data-name="&lt;Group&gt;"><path id="05c50460-8d06-4dd9-bf7a-31e0e0722910" data-name="&lt;Path&gt;" d="M95.54,64.14c0,6.22-.14,12.25-3.14,17.8C89.68,87,85.28,90.55,81.9,95a24.86,24.86,0,0,0-4.49,10.28C75.06,117.56,82,130,92.67,134.39c9.77,4,21.91-.47,27.27-10.15,4.18-7.55,4.08-18,.08-25.64a28.32,28.32,0,0,0-3.4-5.05s-2.43,8.31-9.34,8.1a36.76,36.76,0,0,0-.37-21.51A31.54,31.54,0,0,0,95.54,64.14Z" style="fill:none;stroke:#fff;stroke-linecap:round;stroke-linejoin:round;stroke-width:4px"/></g></g></svg>