<svg xmlns="http://www.w3.org/2000/svg" viewBox="0 0 200 200"><title>Gift</title><g id="ed78a410-f1d7-4180-a3b1-c2547d013cec" data-name="Black"><rect x="25.04" y="25.04" width="149.93" height="149.93" rx="14.17" ry="14.17" transform="translate(-41.42 100) rotate(-45)" style="fill:#22292f"/></g><g id="5d456a90-57da-45cc-8b7a-03df8b365139" data-name="Icon"><g id="7e103aba-a095-46d8-8426-d0ca2ca8cc09" data-name="&lt;Group&gt;"><line id="351c1f98-c249-4b70-8d88-5fbd708a77f3" data-name="&lt;Path&gt;" x1="94.29" y1="98.62" x2="94.29" y2="140" style="fill:none;stroke:#fff;stroke-linecap:round;stroke-linejoin:round;stroke-width:4px"/><line id="b0b2b249-eadf-4412-85ee-e7bce6bd666a" data-name="&lt;Path&gt;" x1="105.71" y1="98.62" x2="105.71" y2="140" style="fill:none;stroke:#fff;stroke-linecap:round;stroke-linejoin:round;stroke-width:4px"/><path id="ce31243d-0f30-433d-b1f7-80e8a4b92a0b" data-name="&lt;Path&gt;" d="M108.63,80c3.34-1,9.54-3.89,12.54-8.17a8.25,8.25,0,0,0,1.37-7.14A6.52,6.52,0,0,0,115.66,60c-8.29.71-14.17,10.69-15.4,20" style="fill:none;stroke:#fff;stroke-linecap:round;stroke-linejoin:round;stroke-width:4px"/><path id="a584baa3-fa5c-4c4e-839b-e15effb524be" data-name="&lt;Path&gt;" d="M91.6,80c-2.51-1.06-5.74-2.91-7.49-5.4a6.21,6.21,0,0,1-1-5.37,4.92,4.92,0,0,1,5.17-3.49c6,.49,10.31,7.49,11.46,14.26" style="fill:none;stroke:#fff;stroke-linecap:round;stroke-linejoin:round;stroke-width:4px"/><rect id="57f9a076-db3a-439f-baab-f464b20add5c" data-name="&lt;Rectangle&gt;" x="60" y="80" width="80" height="17.14" style="fill:none;stroke:#fff;stroke-linecap:round;stroke-linejoin:round;stroke-width:4px"/><polyline id="705011f5-3ce0-48cc-8061-b4b6bdb1fe3a" data-name="&lt;Path&gt;" points="134.29 97.14 134.29 140 65.71 140 65.71 97.14" style="fill:none;stroke:#fff;stroke-linecap:round;stroke-linejoin:round;stroke-width:4px"/></g></g></svg>