<svg xmlns="http://www.w3.org/2000/svg" viewBox="0 0 200 200"><title>Glasses</title><g id="76ff4f61-8a27-459a-98d6-a14312a0fe45" data-name="Black"><rect x="25.04" y="25.04" width="149.93" height="149.93" rx="14.17" ry="14.17" transform="translate(-41.42 100) rotate(-45)" style="fill:#22292f"/></g><g id="6e5b797d-7132-4337-baf1-3e8995d0ff88" data-name="Icon"><g id="e9df7872-dd28-4292-808d-f3db513aac35" data-name="&lt;Group&gt;"><path id="29439745-65da-4b38-b5c5-9e765f5b9ae7" data-name="&lt;Path&gt;" d="M87.19,71.83h-2.3a7.68,7.68,0,0,0-7.22,5.06L69.27,100" style="fill:none;stroke:#fff;stroke-linecap:round;stroke-linejoin:round;stroke-width:4px"/><path id="ce1d1c99-ccf8-4c7b-9d0f-356dc7e5d30d" data-name="&lt;Path&gt;" d="M112.81,71.83h2.3a7.68,7.68,0,0,1,7.22,5.06L130.73,100" style="fill:none;stroke:#fff;stroke-linecap:round;stroke-linejoin:round;stroke-width:4px"/><path id="5c28d164-b1c3-4719-a974-b6896866b754" data-name="&lt;Rectangle&gt;" d="M66.14,100H92.88a2,2,0,0,1,2,2v18.17a8,8,0,0,1-8,8H66.14a2,2,0,0,1-2-2V102A2,2,0,0,1,66.14,100Z" style="fill:none;stroke:#fff;stroke-linecap:round;stroke-linejoin:round;stroke-width:4px"/><path id="cf7c8254-d0d2-4ccd-b685-69da8ed4d66c" data-name="&lt;Rectangle&gt;" d="M107.12,100h26.73a2,2,0,0,1,2,2v24.17a2,2,0,0,1-2,2H113.12a8,8,0,0,1-8-8V102A2,2,0,0,1,107.12,100Z" style="fill:none;stroke:#fff;stroke-linecap:round;stroke-linejoin:round;stroke-width:4px"/><line id="78a616fc-538b-44ac-830e-ab8815a1b726" data-name="&lt;Path&gt;" x1="105.28" y1="110.24" x2="94.72" y2="110.24" style="fill:none;stroke:#fff;stroke-linecap:round;stroke-linejoin:round;stroke-width:4px"/></g></g></svg>