<svg xmlns="http://www.w3.org/2000/svg" viewBox="0 0 200 200"><title>Global</title><g id="cf44d192-e269-432b-b3de-04d1e879a333" data-name="Black"><rect x="25.04" y="25.04" width="149.93" height="149.93" rx="14.17" ry="14.17" transform="translate(-41.42 100) rotate(-45)" style="fill:#22292f"/></g><g id="90b4f77f-5326-4d88-9bb0-76751c865817" data-name="Icon"><g id="cc013f90-fc24-40c7-8a5b-9f413a3dd784" data-name="&lt;Group&gt;"><line id="26336f52-d7a9-49e9-95fd-822cad52504b" data-name="&lt;Path&gt;" x1="100" y1="60" x2="100" y2="140" style="fill:none;stroke:#fff;stroke-linecap:round;stroke-linejoin:round;stroke-width:4px"/><line id="6b555e96-9586-4415-9065-ce98fd8901b9" data-name="&lt;Path&gt;" x1="60" y1="100" x2="140" y2="100" style="fill:none;stroke:#fff;stroke-linecap:round;stroke-linejoin:round;stroke-width:4px"/><path id="5040741b-06d5-4068-a9b0-4d997e7bc1d6" data-name="&lt;Path&gt;" d="M109.2,138.94l0,0a62.3,62.3,0,0,0,0-77.83l0,0" style="fill:none;stroke:#fff;stroke-linecap:round;stroke-linejoin:round;stroke-width:4px"/><path id="42d5eb9a-c6aa-4075-b340-0581c7be8919" data-name="&lt;Path&gt;" d="M90.8,138.94l0,0a62.3,62.3,0,0,1,0-77.83l0,0" style="fill:none;stroke:#fff;stroke-linecap:round;stroke-linejoin:round;stroke-width:4px"/><path id="6554fcb5-22dc-48eb-9b65-dcb455d1741c" data-name="&lt;Path&gt;" d="M129.23,72.71a62.32,62.32,0,0,1-58.46,0" style="fill:none;stroke:#fff;stroke-linecap:round;stroke-linejoin:round;stroke-width:4px"/><path id="9503b480-bec2-4273-8d75-0d8e54f3d1a6" data-name="&lt;Path&gt;" d="M70.77,127.29a62.32,62.32,0,0,1,58.46,0" style="fill:none;stroke:#fff;stroke-linecap:round;stroke-linejoin:round;stroke-width:4px"/><circle id="68b1304d-e531-4813-bc6c-1e949956aa88" data-name="&lt;Path&gt;" cx="100" cy="100" r="40" style="fill:none;stroke:#fff;stroke-linecap:round;stroke-linejoin:round;stroke-width:4px"/></g></g></svg>