<svg xmlns="http://www.w3.org/2000/svg" viewBox="0 0 200 200"><title>Lightbulb</title><g id="e2b88c4d-1b8f-4545-b15a-5423cbeeed8e" data-name="Black"><rect x="25.04" y="25.04" width="149.93" height="149.93" rx="14.17" ry="14.17" transform="translate(-41.42 100) rotate(-45)" style="fill:#22292f"/></g><g id="45bdefb6-64f6-4641-9e77-b810937d1162" data-name="Icon"><g id="4ada7996-0189-4cf8-8d8e-c9713a1fd2fa" data-name="&lt;Group&gt;"><line id="04694299-d82a-4106-a2c4-79400ce684f2" data-name="&lt;Path&gt;" x1="100" y1="127" x2="100" y2="103" style="fill:none;stroke:#fff;stroke-linecap:round;stroke-linejoin:round;stroke-width:4px"/><path id="8fc0a9a0-13f6-4ab3-b1d8-b9938e83914b" data-name="&lt;Path&gt;" d="M88,136.35V139a3,3,0,0,0,3,3h18a3,3,0,0,0,3-3v-2.65a30,30,0,0,1,2.57-12.16l1.44-3.24a141.64,141.64,0,0,1,9.49-17.15,30,30,0,1,0-51,0A141.64,141.64,0,0,1,84,120.95l1.44,3.24A30,30,0,0,1,88,136.35Z" style="fill:none;stroke:#fff;stroke-linecap:round;stroke-linejoin:round;stroke-width:4px"/><line id="477bab08-b29d-45d0-98ee-5ded96dbdd0f" data-name="&lt;Path&gt;" x1="87.31" y1="127" x2="112.69" y2="127" style="fill:none;stroke:#fff;stroke-linecap:round;stroke-linejoin:round;stroke-width:4px"/><polyline id="7768dc75-1e19-4559-a063-41607c715398" data-name="&lt;Path&gt;" points="84.06 91.92 89.36 96.38 94.68 91.92 99.98 96.38 105.3 91.92 110.62 96.38 115.94 91.92" style="fill:none;stroke:#fff;stroke-linecap:round;stroke-linejoin:round;stroke-width:4px"/></g></g></svg>