<svg xmlns="http://www.w3.org/2000/svg" viewBox="0 0 200 200"><title>Luggage</title><g id="5d602ce7-90a8-41cf-9b5b-7a9bb9aa634f" data-name="Black"><rect x="25.04" y="25.04" width="149.93" height="149.93" rx="14.17" ry="14.17" transform="translate(-41.42 100) rotate(-45)" style="fill:#22292f"/></g><g id="315350ce-08e2-40a5-a312-94caabbdef89" data-name="Icon"><g id="db279ec7-7f55-4f14-8e32-ef9e807f17cc" data-name="&lt;Group&gt;"><path id="9e4a377e-f70a-43b2-b290-5861fdca5b8e" data-name="&lt;Path&gt;" d="M62,71.19l5.95,5.95v36.32a5.19,5.19,0,0,0,5.19,5.19H138" style="fill:none;stroke:#fff;stroke-linecap:round;stroke-linejoin:round;stroke-width:4px"/><circle id="1fe772c2-3534-4684-affc-3ee5c2e5cf31" data-name="&lt;Path&gt;" cx="125.03" cy="131.62" r="5.19" style="fill:none;stroke:#fff;stroke-linecap:round;stroke-linejoin:round;stroke-width:4px"/><circle id="cd5fc0e5-e8d0-4cba-9718-1f8f9682040d" data-name="&lt;Path&gt;" cx="78.33" cy="131.62" r="5.19" style="fill:none;stroke:#fff;stroke-linecap:round;stroke-linejoin:round;stroke-width:4px"/><rect id="651762d7-4470-4d6d-b72f-65211fe2e112" data-name="&lt;Rectangle&gt;" x="80.92" y="79.73" width="46.7" height="31.13" rx="1" ry="1" style="fill:none;stroke:#fff;stroke-linecap:round;stroke-linejoin:round;stroke-width:4px"/><path id="8774f308-5a28-4f3b-87d2-82598560989d" data-name="&lt;Path&gt;" d="M112.06,79.73V74.54a2.59,2.59,0,0,0-2.59-2.59H99.08a2.59,2.59,0,0,0-2.59,2.59v5.19" style="fill:none;stroke:#fff;stroke-linecap:round;stroke-linejoin:round;stroke-width:4px"/><line id="cb1824b8-70df-4381-9c8f-4537c6358b5b" data-name="&lt;Path&gt;" x1="91.3" y1="79.73" x2="91.3" y2="110.87" style="fill:none;stroke:#fff;stroke-linecap:round;stroke-linejoin:round;stroke-width:4px"/><line id="382f1cef-7aba-4da9-ba61-deb8ff95e3b9" data-name="&lt;Path&gt;" x1="117.24" y1="79.73" x2="117.24" y2="110.87" style="fill:none;stroke:#fff;stroke-linecap:round;stroke-linejoin:round;stroke-width:4px"/></g></g></svg>