<svg xmlns="http://www.w3.org/2000/svg" viewBox="0 0 200 200"><title>Meeting</title><g id="705bea53-169f-4d58-88c9-fc65d315a89a" data-name="Black"><rect x="25.04" y="25.04" width="149.93" height="149.93" rx="14.17" ry="14.17" transform="translate(-41.42 100) rotate(-45)" style="fill:#22292f"/></g><g id="977c3954-572b-4ae5-9d10-4aba6891e391" data-name="Icon"><g id="ff9077c2-ba7d-4647-8cf2-358d66d15139" data-name="&lt;Group&gt;"><circle id="b623054d-fcbe-4cbd-bcf2-119e665f5ace" data-name="&lt;Path&gt;" cx="64.64" cy="88.75" r="9.64" style="fill:none;stroke:#fff;stroke-linecap:round;stroke-linejoin:round;stroke-width:4px"/><circle id="8aba3447-4d3a-44e4-af41-28aa943ee6e0" data-name="&lt;Path&gt;" cx="100" cy="69.46" r="9.64" style="fill:none;stroke:#fff;stroke-linecap:round;stroke-linejoin:round;stroke-width:4px"/><circle id="be50465f-d41e-4622-826b-e0300ef32436" data-name="&lt;Path&gt;" cx="135.36" cy="88.75" r="9.64" style="fill:none;stroke:#fff;stroke-linecap:round;stroke-linejoin:round;stroke-width:4px"/><path id="c81266ee-9bf0-47cf-a622-01338bf88ea2" data-name="&lt;Path&gt;" d="M87.14,98.39V88.75a6.43,6.43,0,0,1,6.43-6.43h12.86a6.43,6.43,0,0,1,6.43,6.43v9.64" style="fill:none;stroke:#fff;stroke-linecap:round;stroke-linejoin:round;stroke-width:4px"/><path id="612e6479-bb5d-43c9-88ac-85620e8ede1f" data-name="&lt;Path&gt;" d="M80.71,140.18V124.11a3.21,3.21,0,0,0-3.21-3.21H67.86a3.21,3.21,0,0,1-3.21-3.21V98.39" style="fill:none;stroke:#fff;stroke-linecap:round;stroke-linejoin:round;stroke-width:4px"/><path id="69b384a2-6ac1-4609-bec2-0cab475f6de1" data-name="&lt;Path&gt;" d="M119.29,140.18V124.11a3.21,3.21,0,0,1,3.21-3.21h9.64a3.21,3.21,0,0,0,3.21-3.21V98.39" style="fill:none;stroke:#fff;stroke-linecap:round;stroke-linejoin:round;stroke-width:4px"/><line id="33e7dd82-6851-45e5-9ef7-83d8bc50d8ea" data-name="&lt;Path&gt;" x1="74.29" y1="108.04" x2="125.71" y2="108.04" style="fill:none;stroke:#fff;stroke-linecap:round;stroke-linejoin:round;stroke-width:4px"/><line id="4b3145ba-ad48-45c2-92bd-c1a15920fde8" data-name="&lt;Path&gt;" x1="100" y1="108.04" x2="100" y2="140.18" style="fill:none;stroke:#fff;stroke-linecap:round;stroke-linejoin:round;stroke-width:4px"/></g></g></svg>