<svg xmlns="http://www.w3.org/2000/svg" viewBox="0 0 200 200"><title>Megaphone</title><g id="723f4c4f-7729-4234-8be9-6a1bea0e16c7" data-name="Black"><rect x="25.04" y="25.04" width="149.93" height="149.93" rx="14.17" ry="14.17" transform="translate(-41.42 100) rotate(-45)" style="fill:#22292f"/></g><g id="db33a257-74e8-472a-b4b9-6507828c5f8f" data-name="Icon"><g id="0b29bd0f-f09f-4ce1-b507-d3751927e359" data-name="&lt;Group&gt;"><path id="13122114-e901-40ab-9dcb-767d0e79799e" data-name="&lt;Path&gt;" d="M85.12,102l5.71,22.85a6.34,6.34,0,0,1-12.09,3.76L68.75,102" style="fill:none;stroke:#fff;stroke-linecap:round;stroke-linejoin:round;stroke-width:4px"/><path id="1af982fc-5c75-45cd-9d2d-339152bd3c1e" data-name="&lt;Path&gt;" d="M91,102H65.42a2.56,2.56,0,0,1-2.56-2.56V84a2.56,2.56,0,0,1,2.56-2.56H91" style="fill:none;stroke:#fff;stroke-linecap:round;stroke-linejoin:round;stroke-width:4px"/><polygon id="b93295bf-77ee-48cb-982a-20cd357cc501" data-name="&lt;Path&gt;" points="121.77 116.14 91.04 101.89 91.04 81.55 121.77 67.31 121.77 116.14" style="fill:none;stroke:#fff;stroke-linecap:round;stroke-linejoin:round;stroke-width:4px"/><line id="e8efdc98-365e-44b4-af87-b3c8796e9eea" data-name="&lt;Path&gt;" x1="129.45" y1="91.71" x2="137.14" y2="91.71" style="fill:none;stroke:#fff;stroke-linecap:round;stroke-linejoin:round;stroke-width:4px"/><line id="3bcded91-63ca-44c7-b363-7a36a292b51b" data-name="&lt;Path&gt;" x1="129.45" y1="81.47" x2="137.14" y2="81.47" style="fill:none;stroke:#fff;stroke-linecap:round;stroke-linejoin:round;stroke-width:4px"/><line id="acbcf8e6-e381-45ff-9aa5-676ff829400e" data-name="&lt;Path&gt;" x1="129.45" y1="101.96" x2="137.14" y2="101.96" style="fill:none;stroke:#fff;stroke-linecap:round;stroke-linejoin:round;stroke-width:4px"/></g></g></svg>