<svg xmlns="http://www.w3.org/2000/svg" viewBox="0 0 200 200"><title>Money</title><g id="f623153c-0532-4ab4-abe7-ba30bc9709c7" data-name="Black"><rect x="25.04" y="25.04" width="149.93" height="149.93" rx="14.17" ry="14.17" transform="translate(-41.42 100) rotate(-45)" style="fill:#22292f"/></g><g id="d070c55b-d67d-4775-9433-df45fc713df8" data-name="Icon"><g id="ac0f0268-e131-4fba-8815-26a6420878f3" data-name="&lt;Group&gt;"><rect id="e06b53b1-8d4d-4222-af2e-34adf4386c6c" data-name="&lt;Rectangle&gt;" x="59.75" y="77" width="80.5" height="46" style="fill:none;stroke:#fff;stroke-linecap:round;stroke-linejoin:round;stroke-width:4px"/><ellipse id="65fc52e3-4ff0-41f5-8273-aa07b1450a50" data-name="&lt;Path&gt;" cx="100" cy="100" rx="8.63" ry="11.5" style="fill:none;stroke:#fff;stroke-linecap:round;stroke-linejoin:round;stroke-width:4px"/><path id="a0a7abb1-0184-4ec3-95d6-8546dca67cef" data-name="&lt;Path&gt;" d="M74.13,77A14.37,14.37,0,0,1,59.75,91.38" style="fill:none;stroke:#fff;stroke-linecap:round;stroke-linejoin:round;stroke-width:4px"/><path id="268f1937-db9c-417c-b0f6-4ab835ff6448" data-name="&lt;Path&gt;" d="M140.25,91.38A14.37,14.37,0,0,1,125.88,77" style="fill:none;stroke:#fff;stroke-linecap:round;stroke-linejoin:round;stroke-width:4px"/><path id="b6c0508b-e68c-466b-b514-4aaa57b9a761" data-name="&lt;Path&gt;" d="M125.88,123a14.37,14.37,0,0,1,14.38-14.37" style="fill:none;stroke:#fff;stroke-linecap:round;stroke-linejoin:round;stroke-width:4px"/><path id="173eed4a-b93a-4286-a8d8-b01d90fe4a04" data-name="&lt;Path&gt;" d="M59.75,108.63A14.37,14.37,0,0,1,74.13,123" style="fill:none;stroke:#fff;stroke-linecap:round;stroke-linejoin:round;stroke-width:4px"/><line id="c0699bf0-4783-4e8e-a277-a6a77cd8da00" data-name="&lt;Path&gt;" x1="77" y1="100" x2="82.75" y2="100" style="fill:none;stroke:#fff;stroke-linecap:round;stroke-linejoin:round;stroke-width:4px"/><line id="25943064-455d-47a4-880b-1f2b4757060c" data-name="&lt;Path&gt;" x1="117.25" y1="100" x2="123" y2="100" style="fill:none;stroke:#fff;stroke-linecap:round;stroke-linejoin:round;stroke-width:4px"/></g></g></svg>