<svg xmlns="http://www.w3.org/2000/svg" viewBox="0 0 200 200"><title>Pestle</title><g id="3027ee6d-dc23-494c-8973-52d3a4cfce61" data-name="Black"><rect x="25.04" y="25.04" width="149.93" height="149.93" rx="14.17" ry="14.17" transform="translate(-41.42 100) rotate(-45)" style="fill:#22292f"/></g><g id="4512e8d5-4503-40fd-b0a2-b10a85b91ce5" data-name="Icon"><g id="efce8e84-a7d6-4697-a596-d21bea0a17c8" data-name="&lt;Group&gt;"><path id="84042e21-3608-4913-89fe-8506c5913b89" data-name="&lt;Path&gt;" d="M109.27,92.32,116.9,70a8.35,8.35,0,0,1,10.83-5.35,9,9,0,0,1,5.56,8.43,9.91,9.91,0,0,1-.51,3.07l-5.53,16.14" style="fill:none;stroke:#fff;stroke-linecap:round;stroke-linejoin:round;stroke-width:4px"/><g id="06453c05-329e-43d0-a746-5412d3263f63" data-name="&lt;Group&gt;"><path id="6bc07ef0-7b3f-41cd-84ee-c00befcbe011" data-name="&lt;Path&gt;" d="M100,128.17h0A35.86,35.86,0,0,1,64.14,92.32h71.71A35.86,35.86,0,0,1,100,128.17Z" style="fill:none;stroke:#fff;stroke-linecap:round;stroke-linejoin:round;stroke-width:4px"/><polyline id="57155bb0-df39-49f0-974d-f1799166a231" data-name="&lt;Path&gt;" points="115.37 124.72 115.37 135.86 84.63 135.86 84.63 124.72" style="fill:none;stroke:#fff;stroke-linecap:round;stroke-linejoin:round;stroke-width:4px"/></g><line id="306a72ed-9ffc-4282-be3d-a67cc4865769" data-name="&lt;Path&gt;" x1="134.37" y1="102.56" x2="65.63" y2="102.56" style="fill:none;stroke:#fff;stroke-linecap:round;stroke-linejoin:round;stroke-width:4px"/></g></g></svg>