<svg xmlns="http://www.w3.org/2000/svg" viewBox="0 0 200 200"><title>Plan</title><g id="a4892bbd-41ca-40da-be08-f36c57a1e46f" data-name="Black"><rect x="25.04" y="25.04" width="149.93" height="149.93" rx="14.17" ry="14.17" transform="translate(-41.42 100) rotate(-45)" style="fill:#22292f"/></g><g id="6f1e4eaf-311a-4cd6-bcf9-dbfc828f1c1b" data-name="Icon"><g id="bbcaf7ba-7711-469d-9925-f204cbb5f566" data-name="&lt;Group&gt;"><g id="99f12b01-be37-4831-af84-8277a2674a03" data-name="&lt;Group&gt;"><polyline id="53536712-3c07-4551-8162-0d425b91623f" data-name="&lt;Path&gt;" points="120.49 82.48 89.75 82.48 89.75 128.58 128.17 128.58" style="fill:none;stroke:#fff;stroke-linecap:round;stroke-linejoin:round;stroke-width:4px"/><path id="9abf6c27-65b2-412b-9859-055097cb6c45" data-name="&lt;Path&gt;" d="M135.86,120.9a7.68,7.68,0,0,1-7.68,7.68" style="fill:none;stroke:#fff;stroke-linecap:round;stroke-linejoin:round;stroke-width:4px"/><path id="833a97dd-5651-4a77-bbdc-45841d834b5c" data-name="&lt;Path&gt;" d="M120.49,120.9a7.68,7.68,0,0,1,15.37,0" style="fill:none;stroke:#fff;stroke-linecap:round;stroke-linejoin:round;stroke-width:4px"/><path id="4caed986-4c69-4257-9da1-35957ef58ce0" data-name="&lt;Path&gt;" d="M135.86,120.9V82.48a7.68,7.68,0,0,0-15.37,0V120.9" style="fill:none;stroke:#fff;stroke-linecap:round;stroke-linejoin:round;stroke-width:4px"/></g><g id="0da3c7f8-25be-4493-944c-7397d4e6907a" data-name="&lt;Group&gt;"><path id="e0c6d77a-8201-4a3a-ba70-e320d06bc73b" data-name="&lt;Path&gt;" d="M79,81.61a2.56,2.56,0,0,1,.47,1.48V126a2.56,2.56,0,0,1-2.56,2.56H66.71A2.56,2.56,0,0,1,64.14,126V83.09a2.56,2.56,0,0,1,.47-1.48l7.21-10.19Z" style="fill:none;stroke:#fff;stroke-linecap:round;stroke-linejoin:round;stroke-width:4px"/><line id="a5b1b3f1-13da-4141-a21a-52845e4be4d0" data-name="&lt;Path&gt;" x1="64.14" y1="115.77" x2="79.51" y2="115.77" style="fill:none;stroke:#fff;stroke-linecap:round;stroke-linejoin:round;stroke-width:4px"/><line id="5396c840-4b90-4234-9cd1-f7fdf63743ff" data-name="&lt;Path&gt;" x1="64.14" y1="85.04" x2="79.51" y2="85.04" style="fill:none;stroke:#fff;stroke-linecap:round;stroke-linejoin:round;stroke-width:4px"/></g></g></g></svg>