<svg xmlns="http://www.w3.org/2000/svg" viewBox="0 0 200 200"><title>Rocket</title><g id="d10a913e-1f61-4639-98b1-55e9106adf3a" data-name="Black"><rect x="25.04" y="25.04" width="149.93" height="149.93" rx="14.17" ry="14.17" transform="translate(-41.42 100) rotate(-45)" style="fill:#22292f"/></g><g id="3937eb75-8b45-4736-906f-839bbda0cfa4" data-name="Icon"><g id="a732b8e7-d67f-4c28-b85c-845b8ac4dda3" data-name="&lt;Group&gt;"><polyline id="cb542d3f-815e-486a-895b-9ba81f0f986d" data-name="&lt;Path&gt;" points="110.18 127.22 113.57 140.79 86.43 140.79 89.82 127.22" style="fill:none;stroke:#fff;stroke-linecap:round;stroke-linejoin:round;stroke-width:4px"/><circle id="e95deda6-0299-48c6-91b8-da7755c94dc1" data-name="&lt;Path&gt;" cx="100" cy="89.89" r="10.18" style="fill:none;stroke:#fff;stroke-linecap:round;stroke-linejoin:round;stroke-width:4px"/><path id="4d581372-daba-4182-b6ee-f083d5ce5ea4" data-name="&lt;Path&gt;" d="M123.38,102.48l2.21.92a13.54,13.54,0,0,1,8.35,12.52V134l-12.76-17.78" style="fill:none;stroke:#fff;stroke-linecap:round;stroke-linejoin:round;stroke-width:4px"/><path id="49266261-7d1f-4674-9c5a-0b94db4e4c44" data-name="&lt;Path&gt;" d="M76.62,102.48l-2.21.92a13.54,13.54,0,0,0-8.35,12.52V134l12.76-17.78" style="fill:none;stroke:#fff;stroke-linecap:round;stroke-linejoin:round;stroke-width:4px"/><path id="cb34740e-6a79-443f-9be5-c489c5dd0472" data-name="&lt;Path&gt;" d="M82.8,127.22H117.2a66.77,66.77,0,0,0,6.28-27.14c0-29.18-23.48-52.86-23.48-52.86S76.52,70.89,76.52,100.07A66.77,66.77,0,0,0,82.8,127.22Z" style="fill:none;stroke:#fff;stroke-linecap:round;stroke-linejoin:round;stroke-width:4px"/></g></g></svg>