<svg xmlns="http://www.w3.org/2000/svg" viewBox="0 0 200 200"><title>Snowman</title><g id="7ea4ebc0-83a6-4aea-930a-f481a59c126d" data-name="Black"><rect x="25.04" y="25.04" width="149.93" height="149.93" rx="14.17" ry="14.17" transform="translate(-41.42 100) rotate(-45)" style="fill:#22292f"/></g><g id="612ba05e-9643-4056-803c-fe708534a2e0" data-name="Icon"><g id="9e1d08cb-3cac-4100-a94f-d5e5d63eb7be" data-name="&lt;Group&gt;"><path id="ec5a629a-3f26-4ce6-83e0-b66b264b0604" data-name="&lt;Path&gt;" d="M80.86,140a25.69,25.69,0,0,1,6.71-39.66" style="fill:none;stroke:#fff;stroke-linecap:round;stroke-linejoin:round;stroke-width:4px"/><path id="f34c4052-69a5-4cf5-b15e-1c02465abb79" data-name="&lt;Path&gt;" d="M112.43,100.34A25.69,25.69,0,0,1,119.14,140" style="fill:none;stroke:#fff;stroke-linecap:round;stroke-linejoin:round;stroke-width:4px"/><path id="60baeaf1-65c8-46e3-9384-90b1b9671c67" data-name="&lt;Path&gt;" d="M109.46,74.29a17.14,17.14,0,1,1-18.91,0" style="fill:none;stroke:#fff;stroke-linecap:round;stroke-linejoin:round;stroke-width:4px"/><path id="b4c69168-f2e5-4800-8aa3-155d7705a519" data-name="&lt;Path&gt;" d="M106.06,91.78a8.58,8.58,0,0,1-12.12,0" style="fill:none;stroke:#fff;stroke-linecap:round;stroke-linejoin:round;stroke-width:4px"/><polyline id="b37d6d6f-3d97-4142-9fa3-d2463fbc0f33" data-name="&lt;Path&gt;" points="134.29 140 119.14 140 80.86 140 65.71 140" style="fill:none;stroke:#fff;stroke-linecap:round;stroke-linejoin:round;stroke-width:4px"/><line id="ca4f4876-51f3-48e6-860f-5b05302407df" data-name="&lt;Path&gt;" x1="120" y1="74.29" x2="80" y2="74.29" style="fill:none;stroke:#fff;stroke-linecap:round;stroke-linejoin:round;stroke-width:4px"/><path id="305c84b4-c47c-43c8-9405-5005f6b39ab7" data-name="&lt;Path&gt;" d="M88.57,74.29V62.86A2.86,2.86,0,0,1,91.43,60h17.14a2.86,2.86,0,0,1,2.86,2.86V74.29" style="fill:none;stroke:#fff;stroke-linecap:round;stroke-linejoin:round;stroke-width:4px"/></g></g></svg>