<svg xmlns="http://www.w3.org/2000/svg" viewBox="0 0 200 200"><title>SprayPaint</title><g id="097e8b36-e1e6-4679-b8df-e2c215d415a5" data-name="Black"><rect x="25.04" y="25.04" width="149.93" height="149.93" rx="14.17" ry="14.17" transform="translate(-41.42 100) rotate(-45)" style="fill:#22292f"/></g><g id="4cf18d0f-86a7-42fb-a436-2b0ea0254cf0" data-name="Icon"><g id="44294e6e-fe0a-4eac-a3fc-fc32f8c652d0" data-name="&lt;Group&gt;"><path id="1241cc56-1e0e-44a9-a857-45c2b73b6648" data-name="&lt;Path&gt;" d="M89.76,75.13V66.71a2.56,2.56,0,0,1,2.56-2.56h5.12A2.56,2.56,0,0,1,100,66.71v8.43" style="fill:none;stroke:#fff;stroke-linecap:round;stroke-linejoin:round;stroke-width:4px"/><path id="0fafb1e2-3fac-4df1-970b-66e8a64431bc" data-name="&lt;Path&gt;" d="M94.88,74.39h0A17.93,17.93,0,0,0,76.95,92.32v41a2.56,2.56,0,0,0,2.56,2.56h30.73a2.56,2.56,0,0,0,2.56-2.56v-41A17.93,17.93,0,0,0,94.88,74.39Z" style="fill:none;stroke:#fff;stroke-linecap:round;stroke-linejoin:round;stroke-width:4px"/><line id="ebd76b5f-0c4e-4f04-82b5-cf8e1fba2cfe" data-name="&lt;Path&gt;" x1="112.81" y1="92.32" x2="76.95" y2="92.32" style="fill:none;stroke:#fff;stroke-linecap:round;stroke-linejoin:round;stroke-width:4px"/><line id="70c67daf-83ea-433d-8936-947b281ddcc6" data-name="&lt;Path&gt;" x1="107.68" y1="69.27" x2="112.81" y2="69.27" style="fill:none;stroke:#fff;stroke-linecap:round;stroke-linejoin:round;stroke-width:4px"/><line id="75f3f62c-be6a-48a0-bdd2-8b367b7306ca" data-name="&lt;Path&gt;" x1="117.93" y1="64.14" x2="123.05" y2="64.14" style="fill:none;stroke:#fff;stroke-linecap:round;stroke-linejoin:round;stroke-width:4px"/><line id="ff30d757-6390-49e5-bba6-17d08f306d94" data-name="&lt;Path&gt;" x1="117.93" y1="74.39" x2="123.05" y2="74.39" style="fill:none;stroke:#fff;stroke-linecap:round;stroke-linejoin:round;stroke-width:4px"/></g></g></svg>