<svg xmlns="http://www.w3.org/2000/svg" viewBox="0 0 200 200"><title>Sunset</title><g id="d5ad9d09-5ffd-4481-963e-b168156b3316" data-name="Black"><rect x="25.04" y="25.04" width="149.93" height="149.93" rx="14.17" ry="14.17" transform="translate(-41.42 100) rotate(-45)" style="fill:#22292f"/></g><g id="75c51441-7893-43ad-b647-c65b04055671" data-name="Icon"><g id="f6738af5-e4e0-48ac-91a8-60534484633d" data-name="&lt;Group&gt;"><line id="5f6bac86-11e6-40bb-88da-ca312bfe2aae" data-name="&lt;Path&gt;" x1="138.94" y1="101.5" x2="132.07" y2="101.5" style="fill:none;stroke:#fff;stroke-linecap:round;stroke-linejoin:round;stroke-width:4px"/><g id="b2c8089d-6181-4a5f-b0f0-076ccda8ecf3" data-name="&lt;Group&gt;"><line id="b3fceb72-245b-4fbb-9f77-e300f44b2684" data-name="&lt;Path&gt;" x1="100" y1="62.56" x2="100" y2="69.42" style="fill:none;stroke:#fff;stroke-linecap:round;stroke-linejoin:round;stroke-width:4px"/><path id="d6e1c1ee-8f5c-409a-95a6-6ecc63cdc31e" data-name="&lt;Path&gt;" d="M117.19,113.48a20.64,20.64,0,0,0,3.77-12,21,21,0,1,0-41.94,0,20.64,20.64,0,0,0,3.77,12" style="fill:none;stroke:#fff;stroke-linecap:round;stroke-linejoin:round;stroke-width:4px"/><line id="1cb422c9-833a-4322-89de-a35187fe558f" data-name="&lt;Path&gt;" x1="67.93" y1="101.5" x2="61.06" y2="101.5" style="fill:none;stroke:#fff;stroke-linecap:round;stroke-linejoin:round;stroke-width:4px"/><line id="dec4295f-26d8-4f8b-812c-7b0ba04bbf86" data-name="&lt;Path&gt;" x1="127.54" y1="73.96" x2="124.18" y2="77.32" style="fill:none;stroke:#fff;stroke-linecap:round;stroke-linejoin:round;stroke-width:4px"/><line id="1a227b2d-85b4-4db2-86c4-911efc780a38" data-name="&lt;Path&gt;" x1="75.82" y1="77.32" x2="72.46" y2="73.96" style="fill:none;stroke:#fff;stroke-linecap:round;stroke-linejoin:round;stroke-width:4px"/><line id="15d94179-13ae-44b9-9ab4-2ec88b4471ce" data-name="&lt;Path&gt;" x1="55.07" y1="113.48" x2="144.93" y2="113.48" style="fill:none;stroke:#fff;stroke-linecap:round;stroke-linejoin:round;stroke-width:4px"/><line id="d2c08cb0-c900-4676-9b54-375f055150e5" data-name="&lt;Path&gt;" x1="61.06" y1="125.46" x2="138.94" y2="125.46" style="fill:none;stroke:#fff;stroke-linecap:round;stroke-linejoin:round;stroke-width:4px"/><line id="c27f6b72-241a-484f-879e-5edf8769de31" data-name="&lt;Path&gt;" x1="73.04" y1="137.44" x2="126.96" y2="137.44" style="fill:none;stroke:#fff;stroke-linecap:round;stroke-linejoin:round;stroke-width:4px"/></g></g></g></svg>