<svg xmlns="http://www.w3.org/2000/svg" viewBox="0 0 200 200"><title>WebLove</title><g id="be23467c-7826-4cb4-9e13-50575df4fa72" data-name="Black"><rect x="25.04" y="25.04" width="149.93" height="149.93" rx="14.17" ry="14.17" transform="translate(-41.42 100) rotate(-45)" style="fill:#22292f"/></g><g id="4b1c9393-4c88-4df7-929d-7a8539690ec1" data-name="Icon"><g id="731cf4d0-57d0-40cc-a65c-2cecc2790ffb" data-name="&lt;Group&gt;"><polyline id="d680357a-8a3d-4600-bf74-d359fcaa1f09" data-name="&lt;Path&gt;" points="112.19 124.33 135.86 124.33 135.86 67.99 64.14 67.99 64.14 124.33 87.81 124.33" style="fill:none;stroke:#fff;stroke-linecap:round;stroke-linejoin:round;stroke-width:4px"/><line id="51de9e09-ea29-45a6-975d-d2aead354ff7" data-name="&lt;Path&gt;" x1="92.32" y1="78.23" x2="97.44" y2="78.23" style="fill:none;stroke:#fff;stroke-linecap:round;stroke-linejoin:round;stroke-width:4px"/><line id="2231fd60-997c-42f8-ba61-c7266a89aee2" data-name="&lt;Path&gt;" x1="82.07" y1="78.23" x2="87.19" y2="78.23" style="fill:none;stroke:#fff;stroke-linecap:round;stroke-linejoin:round;stroke-width:4px"/><line id="0245c591-b90f-474d-98aa-efb1f31bc3d0" data-name="&lt;Path&gt;" x1="71.83" y1="78.23" x2="76.95" y2="78.23" style="fill:none;stroke:#fff;stroke-linecap:round;stroke-linejoin:round;stroke-width:4px"/><path id="6320ee3e-8860-4741-a066-342b2aecc701" data-name="&lt;Path&gt;" d="M89.76,96.16c-5.67,0-10.24,5.33-10.24,11.93,0,13.22,10.2,17.76,20.49,23.93,10.29-6.17,20.49-10.71,20.49-23.93,0-6.6-4.58-11.93-10.24-11.93A13.63,13.63,0,0,0,100,101.68,13.63,13.63,0,0,0,89.76,96.16Z" style="fill:none;stroke:#fff;stroke-linecap:round;stroke-linejoin:round;stroke-width:4px"/></g></g></svg>